<?xml version="1.0" standalone="no"?>
<!DOCTYPE svg PUBLIC "-//W3C//DTD SVG 1.1//EN" "http://www.w3.org/Graphics/SVG/1.1/DTD/svg11.dtd" >
<svg>
<metadata>
Created by FontForge 20090622 at Thu Aug 27 10:31:02 2015
 By deploy user
Part of the digitally encoded machine readable outline data for producing the Typefaces provided is copyrighted &#194;&#169; 2006 Linotype GmbH, www.linotype.com. All rights reserved. This software is the property of Linotype GmbH, and may not be reproduced, used, displayed, modified, disclosed or transferred without the express written approval of Linotype GmbH.  Copyright &#194;&#169; 1988, 1990, 1993 Adobe Systems Incorporated. All Rights Reserved. Helvetica is a trademark of Heidelberger Druckmaschinen AG, exclusively licensed through Linotype GmbH, and may be registered in certain jurisdictions. This typeface is original artwork of Linotype Design Studio. The design may be protected in certain jurisdictions.
</metadata>
<defs>
<font id="HelveticaNeueLTCom-UltLt" horiz-adv-x="500" >
  <font-face 
    font-family="HelveticaNeueLT Com 25 UltLt"
    font-weight="275"
    font-stretch="normal"
    units-per-em="1000"
    panose-1="2 11 3 3 2 2 2 2 2 4"
    ascent="714"
    descent="-286"
    x-height="514"
    cap-height="714"
    bbox="-166 -219 1016 938"
    underline-thickness="50"
    underline-position="-50"
    unicode-range="U+000D-U+FB02"
  />
<missing-glyph horiz-adv-x="512" 
d="M222 117v67h56v-67h-56zM225 234l-2 17q0 55 13 81t46 59q32 31 41 47.5t9 35.5q0 36 -22.5 60.5t-53.5 24.5t-53.5 -22t-28.5 -73l-50 8q7 71 44 104t91 33q53 0 88.5 -36t35.5 -95q0 -32 -12.5 -58.5t-50.5 -61.5q-37 -33 -43 -52t-6 -72h-46zM462 50v617h-412v-617
h412zM512 718v-718h-512v718h512z" />
    <glyph glyph-name="IJ" unicode="IJ" horiz-adv-x="617" 
d="M54 714h20v-714h-20v714zM538 714h20v-528q0 -45 -10.5 -82t-33.5 -64t-60.5 -42t-91.5 -15q-51 0 -87 15t-59 41t-33.5 61.5t-10.5 77.5v43h20v-43q0 -88 43.5 -131.5t126.5 -43.5q43 0 75.5 10t55 33t34 61t11.5 94v513z" />
    <glyph glyph-name="ij" unicode="ij" horiz-adv-x="304" 
d="M75 613h-20v101h20v-101zM75 0h-20v514h20v-514zM249 613h-20v101h20v-101zM249 -75q0 -36 -8.5 -56t-24 -30t-38.5 -13t-53 -3v20q29 0 49 2t32 10.5t17.5 26.5t5.5 50v582h20v-589z" />
    <glyph glyph-name="napostrophe" unicode="&#x22;n" horiz-adv-x="530" 
d="M85 514h20v-127h2q7 30 22.5 55t39 44t54.5 29.5t69 10.5q40 0 73.5 -12t58 -35.5t38 -58t13.5 -79.5v-341h-20v338q0 45 -13 76.5t-35.5 52t-52 30t-62.5 9.5q-46 0 -81 -17.5t-58.5 -47t-35.5 -68.5t-12 -82v-291h-20v514zM95 790v-78q0 -26 -13.5 -42t-44.5 -19v16
q24 5 31 18.5t7 32.5v72h20z" />
    <glyph glyph-name="fi" unicode="fi" horiz-adv-x="333" 
d="M-1 494v20h88v114q0 31 9.5 48t24.5 25.5t33 10.5t34 2q14 0 24.5 -1.5t18.5 -2.5v-20q-14 2 -25 3t-22 1q-48 0 -62.5 -17.5t-14.5 -55.5v-107h111v-20h-111v-494h-20v494h-88zM278 613h-20v101h20v-101zM278 0h-20v514h20v-514z" />
    <glyph glyph-name="fl" unicode="fl" horiz-adv-x="333" 
d="M278 0h-20v714h20v-714zM-1 494v20h88v114q0 31 9.5 48t24.5 25.5t33 10.5t34 2q14 0 24.5 -1.5t18.5 -2.5v-20q-14 2 -25 3t-22 1q-48 0 -62.5 -17.5t-14.5 -55.5v-107h111v-20h-111v-494h-20v494h-88z" />
    <glyph glyph-name=".notdef" horiz-adv-x="512" 
d="M222 117v67h56v-67h-56zM225 234l-2 17q0 55 13 81t46 59q32 31 41 47.5t9 35.5q0 36 -22.5 60.5t-53.5 24.5t-53.5 -22t-28.5 -73l-50 8q7 71 44 104t91 33q53 0 88.5 -36t35.5 -95q0 -32 -12.5 -58.5t-50.5 -61.5q-37 -33 -43 -52t-6 -72h-46zM462 50v617h-412v-617
h412zM512 718v-718h-512v718h512z" />
    <glyph glyph-name=".null" 
 />
    <glyph glyph-name=".null" 
 />
    <glyph glyph-name="nonmarkingreturn" unicode="&#xd;" horiz-adv-x="0" 
 />
    <glyph glyph-name="space" unicode=" " horiz-adv-x="278" 
 />
    <glyph glyph-name="exclam" unicode="!" horiz-adv-x="185" 
d="M83 182v532h20v-532h-20zM83 0v98h20v-98h-20z" />
    <glyph glyph-name="quotedbl" unicode="&#x22;" horiz-adv-x="278" 
d="M205 489h-20v225h20v-225zM93 489h-20v225h20v-225z" />
    <glyph glyph-name="numbersign" unicode="#" horiz-adv-x="556" 
d="M185 249h171l24 177h-171zM245 680l-31 -234h171l31 234h20l-31 -234h116v-20h-121l-24 -177h117v-20h-121l-31 -229h-20l31 229h-172l-31 -229h-20l31 229h-125v20h130l24 177h-126v20h131l31 234h20z" />
    <glyph glyph-name="dollar" unicode="$" horiz-adv-x="556" 
d="M285 3q42 0 83.5 9.5t74.5 30.5t53.5 54t20.5 79q0 51 -21.5 82t-55 49.5t-74.5 28.5l-81 19v-352zM26 237q0 -61 17.5 -104.5t49 -71.5t75.5 -41.5t97 -15.5v356q-43 10 -85.5 21t-76.5 30.5t-55 51.5t-21 84t21.5 87.5t55.5 56.5t76.5 30.5t84.5 9.5v43h20v-44
q50 -1 92.5 -13.5t74 -38t50 -66t21.5 -98.5h-20q-2 53 -19 89.5t-46 60t-68 34.5t-85 12v-334l8 -2l94.5 -24.5t77.5 -32t52.5 -53.5t19.5 -89q0 -51 -22 -87t-58 -59.5t-81 -34.5t-91 -11v-88h-20v89q-57 2 -105 17.5t-82.5 46.5t-53.5 77.5t-18 111.5h20zM265 711
q-38 0 -76.5 -8.5t-70 -27t-51.5 -50t-20 -78.5q0 -45 18 -73t48.5 -45.5t70 -28t81.5 -19.5v330z" />
    <glyph glyph-name="percent" unicode="%" horiz-adv-x="685" 
d="M564 714h23l-476 -748h-23zM357 157q0 38 10 69.5t29.5 54.5t48 36t64.5 13q76 0 115.5 -48.5t39.5 -123.5q0 -35 -10 -65.5t-30 -54t-49 -37t-66 -13.5q-39 0 -68 14t-47.5 37.5t-27.5 54t-9 63.5zM41 519q0 -30 8 -57.5t24.5 -47.5t41.5 -32t58 -12t58.5 12t42.5 32.5
t25.5 47.5t8.5 57q0 69 -33 111t-102 42t-100.5 -43.5t-31.5 -109.5zM21 519q0 38 10 69.5t29.5 54.5t48 36t64.5 13q76 0 115.5 -48.5t39.5 -123.5q0 -35 -10 -65.5t-30 -54t-49 -37t-66 -13.5q-39 0 -68 14t-47.5 37.5t-27.5 54t-9 63.5zM377 157q0 -30 8 -57.5
t24.5 -47.5t41.5 -32t58 -12t58.5 12t42.5 32.5t25.5 47.5t8.5 57q0 69 -33 111t-102 42t-100.5 -43.5t-31.5 -109.5z" />
    <glyph glyph-name="ampersand" unicode="&#x26;" horiz-adv-x="574" 
d="M572 0h-26l-89 113q-30 -55 -81.5 -92.5t-127.5 -37.5q-38 0 -74.5 12t-65 35t-46.5 56t-18 74q0 43 18 78t46 63t62 50.5l66 42.5q-15 21 -33 43t-34.5 46t-27.5 48.5t-11 49.5q0 34 13 59.5t33.5 41.5t46.5 24t53 8q30 0 56.5 -9t46.5 -26t31.5 -42t11.5 -56
q0 -35 -15.5 -63t-38.5 -50.5t-51 -41.5t-52 -37l188 -238q10 22 18 54t6 72h20q1 -45 -7 -77.5t-23 -66.5zM248 378l-62.5 -40t-59.5 -46.5t-44.5 -57.5t-17.5 -74q0 -38 16 -67.5t41.5 -49.5t58.5 -30t68 -10q72 0 120 36t76 93zM150 583q0 -17 6 -34t18.5 -37.5t32 -46.5
l46.5 -61l47 32.5t48.5 39.5t38 48t15.5 57q0 26 -10.5 47t-27.5 35.5t-39.5 22.5t-47.5 8q-26 0 -49 -7.5t-40.5 -22t-27.5 -35t-10 -46.5z" />
    <glyph glyph-name="quotesingle" unicode="'" horiz-adv-x="167" 
d="M74 714h20v-225h-20v225z" />
    <glyph glyph-name="parenleft" unicode="(" horiz-adv-x="222" 
d="M204 731q-56 -103 -86 -217t-30 -232q0 -121 29.5 -237t87.5 -222h-20q-29 57 -51 111.5t-36.5 110t-22 114t-7.5 123.5q0 118 30 232t86 217h20z" />
    <glyph glyph-name="parenright" unicode=")" horiz-adv-x="222" 
d="M18 -177q56 103 86 217t30 232q0 121 -29.5 237t-87.5 222h20q29 -57 51 -111.5t36.5 -110t22 -114.5t7.5 -123q0 -118 -30 -232t-86 -217h-20z" />
    <glyph glyph-name="asterisk" unicode="*" horiz-adv-x="352" 
d="M184 714v-140l132 43l4 -19l-130 -43l83 -109l-16 -12l-83 108l-84 -104l-16 13l88 104l-130 43l6 19l126 -43v140h20z" />
    <glyph glyph-name="plus" unicode="+" horiz-adv-x="600" 
d="M290 506h20v-243h242v-20h-242v-243h-20v243h-242v20h242v243z" />
    <glyph glyph-name="comma" unicode="," horiz-adv-x="278" 
d="M149 98v-98q0 -45 -9.5 -73.5t-34.5 -45.5v20q13 13 18.5 35.5t5.5 63.5v98h20z" />
    <glyph glyph-name="hyphen" unicode="-" horiz-adv-x="333" 
d="M79 278h175v-20h-175v20z" />
    <glyph glyph-name="period" unicode="." horiz-adv-x="278" 
d="M149 0h-20v98h20v-98z" />
    <glyph glyph-name="slash" unicode="/" horiz-adv-x="333" 
d="M-7 -17l327 748h20l-327 -748h-20z" />
    <glyph glyph-name="zero" unicode="0" horiz-adv-x="556" 
d="M535 340q0 -64 -12.5 -127t-42.5 -113t-79.5 -81t-122.5 -31t-122.5 31t-79.5 81t-42.5 113t-12.5 127t12.5 127t42.5 113t79.5 81t122.5 31t122.5 -31t79.5 -81t42.5 -113t12.5 -127zM515 340q0 57 -11 116t-38 107t-72.5 78.5t-115.5 30.5t-115.5 -30.5t-72.5 -78.5
t-38 -107t-11 -116t11 -116t38 -107t72.5 -78.5t115.5 -30.5t115.5 30.5t72.5 78.5t38 107t11 116z" />
    <glyph glyph-name="one" unicode="1" horiz-adv-x="556" 
d="M298 654h-2q-31 -43 -80.5 -74.5t-100.5 -45.5v20q31 10 55 22t45 27t40.5 34t40.5 43h22v-680h-20v654z" />
    <glyph glyph-name="two" unicode="2" horiz-adv-x="556" 
d="M513 20v-20h-458q-1 43 18 78t50 65.5t69.5 58l76.5 54.5l76 54.5t66 58.5t46.5 65.5t17.5 74.5t-14.5 70.5t-39.5 51t-60 31t-75 10.5q-53 0 -91 -16t-62 -44.5t-35 -68t-11 -86.5h-20q1 112 55.5 173.5t163.5 61.5q43 0 81.5 -11.5t66.5 -34.5t44.5 -57t16.5 -80
q0 -42 -17.5 -78.5t-46 -68.5t-65 -60.5t-75.5 -55.5l-76.5 -53.5t-67 -53.5t-49 -56.5t-23.5 -62.5h438z" />
    <glyph glyph-name="three" unicode="3" horiz-adv-x="556" 
d="M59 469q-1 55 15.5 97t46.5 70t73.5 42t96.5 14q40 0 78.5 -9t68.5 -29t48 -52t18 -77q0 -36 -11 -64t-30.5 -48t-46.5 -31.5t-58 -14.5v-2q30 -3 58.5 -14.5t51 -33t36 -53.5t13.5 -76q0 -47 -18.5 -84.5t-50 -63t-73.5 -39t-88 -13.5q-58 0 -105 16t-80 47t-49.5 76
t-12.5 103h20q-4 -54 11 -95.5t45 -69.5t74 -42.5t97 -14.5q41 0 79 11.5t67 34.5t46.5 56.5t17.5 77.5q0 43 -14.5 74.5t-41 51.5t-62 30t-77.5 12h-49v20h49q33 0 65.5 7.5t58.5 25t42 46t16 70.5q-1 41 -18 69t-44 45.5t-61 25t-70 7.5q-49 0 -88.5 -12.5t-67 -38
t-42.5 -63.5t-14 -89h-20z" />
    <glyph glyph-name="four" unicode="4" horiz-adv-x="556" 
d="M34 177v24l340 479h25v-483h123v-20h-123v-177h-20v177h-345zM379 652h-2l-323 -455h325v455z" />
    <glyph glyph-name="five" unicode="5" horiz-adv-x="556" 
d="M147 660l-62 -291h2q29 47 77.5 69.5t108.5 22.5q52 0 95.5 -17.5t74.5 -48.5t48 -74.5t17 -94.5q0 -54 -17 -98t-48 -75t-74.5 -48t-95.5 -17q-53 0 -97 15.5t-75.5 45t-48.5 72.5t-15 97h20q-2 -50 13 -89t43.5 -66t69 -41t90.5 -14q49 0 89 15.5t68 44t43 68.5t15 90
q0 47 -15.5 86.5t-43.5 68t-68 44.5t-88 16q-60 0 -111 -26.5t-79 -77.5h-25l73 343h349v-20h-333z" />
    <glyph glyph-name="six" unicode="6" horiz-adv-x="556" 
d="M485 520q-10 46 -31.5 75.5t-48.5 46.5t-56 23.5t-55 6.5q-51 0 -88.5 -17.5t-64 -47.5t-43 -69t-26 -82t-12.5 -86.5t-2 -82.5h2q7 36 27.5 67t50 54.5t66.5 36.5t78 13q44 0 86.5 -17t75.5 -48t53 -74.5t20 -95.5q0 -51 -19 -94t-51.5 -74.5t-75 -49t-89.5 -17.5
q-35 0 -65.5 9.5t-55.5 24.5t-44.5 34t-32.5 39q-29 45 -37 102.5t-8 123.5q0 63 12 129t41.5 120t78.5 88t124 34q44 0 80.5 -13.5t63.5 -36.5t44 -54.5t22 -67.5h-20zM497 223q0 45 -17 84t-46 68t-68 46t-84 17t-84 -17t-68 -46t-46 -68t-17 -84t17 -84t46 -68t68 -46
t84 -17t84 17t68 46t46 68t17 84z" />
    <glyph glyph-name="seven" unicode="7" horiz-adv-x="556" 
d="M61 660v20h434v-27q-69 -69 -126 -142t-97 -152.5t-62 -168t-22 -190.5h-20q-1 100 20.5 190t62 171.5t97 155.5t125.5 143h-412z" />
    <glyph glyph-name="eight" unicode="8" horiz-adv-x="556" 
d="M471 520q0 43 -16.5 72.5t-43.5 47t-61.5 25t-71.5 7.5t-71.5 -7.5t-61.5 -25t-43.5 -47t-16.5 -72.5q0 -36 17.5 -62.5t45 -43t62 -24.5t68.5 -8t68 8t62 24.5t45.5 43t17.5 62.5zM351 373q81 -8 127.5 -56.5t46.5 -126.5q0 -53 -20 -91t-53.5 -63t-78.5 -36.5
t-95 -11.5t-95 11.5t-78.5 36.5t-53.5 63t-20 91q0 78 46.5 126.5t127.5 56.5v2q-29 4 -54.5 16t-44.5 31t-30 44t-11 54q0 46 16.5 78.5t45.5 53.5t68 30.5t83 9.5t83 -9.5t68 -30.5t45.5 -53.5t16.5 -78.5q0 -29 -11 -54t-30 -44t-44.5 -31t-54.5 -16v-2zM505 190
q0 49 -19 82t-50.5 53t-72.5 28.5t-85 8.5t-85 -8.5t-72.5 -28.5t-50.5 -53t-19 -82t18.5 -83.5t50 -56.5t72.5 -32t86 -10t86 10t72.5 32t50 56.5t18.5 83.5z" />
    <glyph glyph-name="nine" unicode="9" horiz-adv-x="556" 
d="M489 457q0 45 -17 84t-46 68t-68 46t-84 17t-84 -17t-68 -46t-46 -68t-17 -84t17 -84t46 -68t68 -46t84 -17t84 17t68 46t46 68t17 84zM71 160q10 -46 31.5 -75.5t48.5 -46.5t56 -23.5t55 -6.5q76 0 123 38t72.5 96t33.5 125t7 126h-2q-8 -36 -28 -67t-49.5 -54.5
t-66.5 -36.5t-78 -13q-44 0 -86.5 17t-75.5 48t-53 74t-20 96q0 51 19 94t51.5 74.5t75 49t89.5 17.5q35 0 65.5 -9.5t55.5 -24.5t44.5 -34t32.5 -39q30 -45 38 -102.5t8 -123.5q0 -63 -12 -129t-41.5 -120t-79 -88t-124.5 -34q-44 0 -80.5 13.5t-63.5 36.5t-44 54.5
t-22 67.5h20z" />
    <glyph glyph-name="colon" unicode=":" horiz-adv-x="278" 
d="M129 416v98h20v-98h-20zM129 0v98h20v-98h-20z" />
    <glyph glyph-name="semicolon" unicode=";" horiz-adv-x="278" 
d="M129 416v98h20v-98h-20zM149 0q0 -45 -9.5 -73.5t-34.5 -45.5v20q13 13 18.5 35.5t5.5 63.5v98h20v-98z" />
    <glyph glyph-name="less" unicode="&#x3c;" horiz-adv-x="600" 
d="M554 -8l-508 249v24l508 249v-21l-490 -240l490 -240v-21z" />
    <glyph glyph-name="equal" unicode="=" horiz-adv-x="600" 
d="M48 146v20h504v-20h-504zM48 340v20h504v-20h-504z" />
    <glyph glyph-name="greater" unicode="&#x3e;" horiz-adv-x="600" 
d="M536 253l-490 240v21l508 -249v-24l-508 -249v21z" />
    <glyph glyph-name="question" unicode="?" 
d="M232 0v98h20v-98h-20zM35 493q-2 52 12 96t42 75.5t69 49t94 17.5q41 0 77 -11t62.5 -32t42 -52t15.5 -71q0 -38 -10.5 -66.5t-26 -50t-32.5 -36.5l-29 -26q-27 -26 -46 -47.5t-30.5 -44t-17 -49.5t-5.5 -63h-20q0 34 5 61t16 51.5t30 48.5t47 51q6 6 22 19t33.5 34
t30.5 50.5t13 67.5q0 35 -13.5 62.5t-37 46t-56 28t-70.5 9.5q-50 0 -87.5 -16t-62.5 -44.5t-37 -69t-10 -88.5h-20z" />
    <glyph glyph-name="at" unicode="@" horiz-adv-x="800" 
d="M594 547h21l-111 -288q-9 -22 -13.5 -41.5t-3 -34t11.5 -23t30 -8.5q31 0 65 20t62.5 54.5t47.5 82t19 102.5q0 62 -23 114t-63.5 89t-96.5 57.5t-121 20.5q-73 0 -135.5 -26.5t-108.5 -72.5t-72 -108t-26 -132q0 -85 27.5 -149.5t74.5 -108t109 -65.5t131 -22
q46 0 88 12t79.5 33.5t68.5 50.5t54 62h23q-24 -40 -59 -73t-76 -56t-86.5 -36t-91.5 -13q-67 0 -132 21.5t-116 66t-82.5 113.5t-31.5 164q0 78 28.5 143.5t78 113.5t115.5 75t140 27q67 0 126 -21t103 -60t69.5 -95t25.5 -125q0 -58 -20 -108.5t-51.5 -88.5t-70 -60
t-74.5 -22q-29 0 -46.5 17.5t-12.5 45.5h-2q-28 -38 -64.5 -50.5t-71.5 -12.5q-29 0 -54 11.5t-43 31t-28.5 46t-10.5 56.5q0 46 17 97t48 94t75 70.5t97 27.5q47 0 85.5 -22.5t51.5 -62.5h2zM559 456q-7 26 -21.5 43t-32.5 27.5t-38.5 15t-39.5 4.5q-47 0 -86.5 -26.5
t-67.5 -66.5t-43.5 -87t-15.5 -89q0 -27 9 -49.5t25 -39.5t38 -26.5t48 -9.5q20 0 41.5 5t41.5 18.5t38.5 37t32.5 59.5z" />
    <glyph glyph-name="A" unicode="A" horiz-adv-x="575" 
d="M106 235l-95 -235h-23l290 714h26l282 -714h-22l-94 235h-364zM462 255l-170 439h-2l-176 -439h348z" />
    <glyph glyph-name="B" unicode="B" horiz-adv-x="611" 
d="M67 382h287q36 0 68.5 9.5t57.5 29t40 48.5t15 67q0 40 -14 70t-38.5 49.5t-57.5 29t-71 9.5h-287v-312zM47 714h307q42 0 78.5 -11t64 -33.5t43 -55.5t15.5 -78q0 -32 -11.5 -61t-31.5 -50.5t-47.5 -35.5t-60.5 -16v-2q35 -1 66.5 -13.5t55 -35t37.5 -55t14 -73.5
q0 -48 -17.5 -84.5t-48.5 -60.5t-74.5 -36.5t-94.5 -12.5h-295v714zM67 20h284q43 0 81 10.5t65.5 32t43.5 54t16 76.5q0 47 -17.5 79t-46 52t-65 29t-74.5 9h-287v-342z" />
    <glyph glyph-name="C" unicode="C" horiz-adv-x="685" 
d="M662 280q-9 -65 -34 -119.5t-64.5 -94t-94 -61.5t-121.5 -22q-71 0 -130.5 27.5t-102.5 76.5t-66.5 116.5t-23.5 147.5q0 65 18.5 132.5t58.5 122.5t104 90t155 35q71 0 124 -23.5t88.5 -59t53.5 -75.5t19 -73h-20q-3 39 -23 76.5t-54.5 67.5t-82 48.5t-105.5 18.5
q-59 0 -105 -16.5t-81 -44t-60 -64t-40.5 -76.5t-22.5 -81t-7 -78q0 -68 20 -131t59 -111t95.5 -77t128.5 -29q64 0 115 21t88 58t60 88t31 110h20z" />
    <glyph glyph-name="D" unicode="D" horiz-adv-x="648" 
d="M74 20h204q63 0 119.5 20.5t99 62t67 105t24.5 149.5q0 100 -25 165t-66 103.5t-92.5 53.5t-105.5 15h-225v-674zM54 714h250q53 0 107.5 -16.5t98 -57t71 -109.5t27.5 -174q0 -96 -28 -164t-75 -110.5t-107.5 -62.5t-124.5 -20h-219v714z" />
    <glyph glyph-name="E" unicode="E" horiz-adv-x="537" 
d="M74 20h458v-20h-478v714h474v-20h-454v-312h427v-20h-427v-342z" />
    <glyph glyph-name="F" unicode="F" horiz-adv-x="481" 
d="M74 382h380v-20h-380v-362h-20v714h440v-20h-420v-312z" />
    <glyph glyph-name="G" unicode="G" horiz-adv-x="722" 
d="M377 314v20h297v-335h-20v178h-2q-14 -45 -40.5 -81t-63.5 -61t-83 -38.5t-98 -13.5q-83 0 -145.5 29.5t-104.5 80.5t-63.5 119t-21.5 145q0 78 23 146.5t66 119t105 79.5t141 29q60 0 110.5 -17t89 -48.5t63 -75.5t33.5 -99h-20q-9 50 -32.5 90.5t-59 69.5t-82.5 44.5
t-102 15.5q-75 0 -133.5 -28t-99 -76t-61.5 -112.5t-21 -137.5t20 -137.5t60 -112.5t99.5 -76t138.5 -28q59 0 111 20.5t90.5 57t60.5 87t22 109.5v37h-277z" />
    <glyph glyph-name="H" unicode="H" horiz-adv-x="648" 
d="M74 362v-362h-20v714h20v-332h500v332h20v-714h-20v362h-500z" />
    <glyph glyph-name="I" unicode="I" horiz-adv-x="128" 
d="M54 714h20v-714h-20v714z" />
    <glyph glyph-name="J" unicode="J" horiz-adv-x="463" 
d="M384 714h20v-528q0 -45 -10.5 -82t-33.5 -64t-60.5 -42t-91.5 -15q-51 0 -87 15t-59 41t-33.5 61.5t-10.5 77.5v43h20v-43q0 -88 43.5 -131.5t126.5 -43.5q43 0 75.5 10t55 33t34 61t11.5 94v513z" />
    <glyph glyph-name="K" unicode="K" horiz-adv-x="593" 
d="M74 253v-253h-20v714h20v-434l495 434h30l-345 -304l365 -410h-27l-354 398z" />
    <glyph glyph-name="L" unicode="L" horiz-adv-x="481" 
d="M491 20v-20h-437v714h20v-694h417z" />
    <glyph glyph-name="M" unicode="M" horiz-adv-x="780" 
d="M693 714h33v-714h-20v689h-2l-303 -689h-22l-303 689h-2v-689h-20v714h33l302 -688h2z" />
    <glyph glyph-name="N" unicode="N" horiz-adv-x="648" 
d="M54 714h30l488 -689h2v689h20v-714h-30l-488 689h-2v-689h-20v714z" />
    <glyph glyph-name="O" unicode="O" horiz-adv-x="721" 
d="M32 357q0 76 21.5 144t63 119t103 81t141.5 30t141.5 -30t103 -81t63 -119t21.5 -144t-21.5 -144t-63 -119t-103 -81t-141.5 -30t-141.5 30t-103 81t-63 119t-21.5 144zM52 357q1 -77 22 -142t61 -112t97 -73.5t129 -26.5t129 26.5t96.5 73.5t61 112t22.5 142
q-1 77 -22.5 142t-61 112t-96.5 73.5t-129 26.5t-129 -26.5t-97 -73.5t-61 -112t-22 -142z" />
    <glyph glyph-name="P" unicode="P" horiz-adv-x="574" 
d="M74 0h-20v714h289q103 0 160 -49t57 -146q0 -47 -17 -83.5t-47 -61t-72 -37t-91 -12.5h-259v-325zM74 345h269q42 0 78 11.5t62.5 34t41.5 54.5t15 74q0 85 -49 130t-148 45h-269v-349z" />
    <glyph glyph-name="Q" unicode="Q" horiz-adv-x="721" 
d="M571 58q-40 -35 -92.5 -55t-117.5 -20q-80 0 -141.5 30t-103 81t-63 119t-21.5 144t21.5 144t63 119t103 81t141.5 30t141.5 -30t103 -81t63 -119t21.5 -144q0 -85 -26.5 -159.5t-79.5 -126.5l115 -79l-10 -14zM427 156l11 16l129 -89q49 47 75.5 117t27.5 157
q-1 77 -22.5 142t-61 112t-96.5 73.5t-129 26.5t-129 -26.5t-97 -73.5t-61 -112t-22 -142q1 -77 22 -142t61 -112t97 -73.5t129 -26.5q58 0 106 17.5t86 49.5z" />
    <glyph glyph-name="R" unicode="R" horiz-adv-x="611" 
d="M74 0h-20v714h292q111 0 163.5 -45t54.5 -138q2 -71 -38 -119t-115 -65v-2q45 -6 73 -21.5t43 -40.5t20 -59t5 -77q0 -16 1 -38t3 -44t5 -40t8 -25h-22q-5 11 -7.5 29.5t-4.5 39.5t-2.5 42.5t-0.5 38.5q0 44 -6.5 78.5t-26.5 58t-57.5 36t-98.5 12.5h-269v-335zM74 355
h267q39 0 76 10t65.5 32t45 55.5t16.5 80.5q-1 76 -46 118.5t-147 42.5h-277v-339z" />
    <glyph glyph-name="S" unicode="S" horiz-adv-x="611" 
d="M531 514q-2 55 -20.5 92.5t-49 60.5t-72.5 33.5t-90 10.5q-38 0 -77.5 -7.5t-72 -26.5t-53.5 -50.5t-21 -79.5t21.5 -77t56 -47t78.5 -28l90 -21l94.5 -24.5t77.5 -32t52.5 -53.5t19.5 -89q0 -51 -22 -87t-58 -59.5t-81 -34.5t-91 -11q-61 0 -112.5 14.5t-89 45t-58 78.5
t-19.5 116h20q0 -64 19 -108.5t53.5 -72.5t82 -40.5t104.5 -12.5q42 0 83.5 9.5t74.5 30.5t53.5 54t20.5 79q0 54 -23.5 85.5t-60 50t-81 28t-85.5 19.5q-44 10 -86.5 21t-77 30.5t-55.5 51.5t-21 85t22 88.5t57 56.5t78.5 30t86.5 9q52 0 97 -11.5t78.5 -37t53.5 -67
t23 -101.5h-20z" />
    <glyph glyph-name="T" unicode="T" 
d="M-17 694v20h534v-20h-257v-694h-20v694h-257z" />
    <glyph glyph-name="U" unicode="U" horiz-adv-x="632" 
d="M558 714h20v-448q0 -143 -67.5 -213t-194.5 -70t-194.5 70t-67.5 213v448h20v-448q0 -128 59.5 -195.5t182.5 -67.5t182.5 67.5t59.5 195.5v448z" />
    <glyph glyph-name="V" unicode="V" horiz-adv-x="538" 
d="M536 714h20l-272 -714h-22l-280 714h20l270 -688h2z" />
    <glyph glyph-name="W" unicode="W" horiz-adv-x="870" 
d="M860 714h20l-207 -714h-27l-210 689h-2l-206 -689h-27l-211 714h21l202 -689h2l206 689h29l209 -689h2z" />
    <glyph glyph-name="X" unicode="X" horiz-adv-x="520" 
d="M510 714h25l-260 -347l272 -367h-25l-261 351l-263 -351h-25l275 367l-260 347h26l247 -331z" />
    <glyph glyph-name="Y" unicode="Y" horiz-adv-x="538" 
d="M544 714h24l-289 -413v-301h-20v301l-289 413h25l274 -392z" />
    <glyph glyph-name="Z" unicode="Z" 
d="M508 20v-20h-527v27l499 667h-471v20h491v-27l-499 -667h507z" />
    <glyph glyph-name="bracketleft" unicode="[" horiz-adv-x="222" 
d="M209 731v-20h-93v-868h93v-20h-113v908h113z" />
    <glyph glyph-name="backslash" unicode="\" horiz-adv-x="333" 
d="M320 -17l-327 748h20l327 -748h-20z" />
    <glyph glyph-name="bracketright" unicode="]" horiz-adv-x="222" 
d="M13 -177v20h93v868h-93v20h113v-908h-113z" />
    <glyph glyph-name="asciicircum" unicode="^" horiz-adv-x="600" 
d="M541 227h-20l-221 433l-221 -433h-20l231 453h20z" />
    <glyph glyph-name="underscore" unicode="_" 
d="M0 -125v50h500v-50h-500z" />
    <glyph glyph-name="grave" unicode="`" horiz-adv-x="130" 
d="M-38 732h29l125 -144h-15z" />
    <glyph glyph-name="a" unicode="a" horiz-adv-x="481" 
d="M54 355q2 36 15 67.5t37.5 54.5t60 36t83.5 13q34 0 64.5 -7t53.5 -24.5t37 -45.5t15 -70v-327q0 -15 6 -22t16 -9.5t21 -2t22 1.5v-20q-15 -1 -30 -1t-27 5t-20 15.5t-8 30.5v67h-2q-8 -25 -25.5 -48t-44 -41t-60.5 -29t-74 -11q-77 0 -124.5 35t-47.5 104q0 48 15.5 77
t40.5 45.5t57 23t64 8.5q53 3 91 5.5t62.5 10t36 23t11.5 44.5q0 23 -4 48t-19.5 46t-45.5 34.5t-81 13.5q-81 0 -126 -39.5t-50 -111.5h-20zM400 302h-2q-10 -15 -31 -22t-48 -10.5t-58 -5t-62 -3.5q-30 -2 -58.5 -8t-50.5 -20t-35 -39.5t-13 -66.5q0 -22 7.5 -43.5
t25.5 -38t46.5 -27t70.5 -10.5q50 0 89 17t65.5 44.5t40 63.5t13.5 74v95z" />
    <glyph glyph-name="b" unicode="b" horiz-adv-x="537" 
d="M75 370h2q18 70 71 113t135 43q53 0 94 -22t68.5 -59t42 -86t14.5 -103q0 -58 -15 -107t-43.5 -85t-69 -56t-91.5 -20q-39 0 -72.5 11.5t-60 32.5t-45 49.5t-28.5 62.5h-2v-144h-20v714h20v-344zM75 256q0 -50 14 -95t40.5 -79t65 -54t88.5 -20t87.5 20t62 54.5t37 79
t12.5 94.5q0 45 -11.5 89.5t-35.5 80t-61.5 58t-90.5 22.5q-47 0 -85.5 -16.5t-65.5 -48.5t-42 -78.5t-15 -106.5z" />
    <glyph glyph-name="c" unicode="c" 
d="M469 175q-4 -43 -21 -77.5t-44.5 -59t-64.5 -37.5t-80 -13q-55 0 -97.5 20.5t-71.5 56t-44 82t-15 99.5q0 56 14.5 106.5t44 89t74.5 61.5t107 23q36 0 69 -11t59 -32t43.5 -52.5t22.5 -72.5h-20q-6 37 -22 65t-39 46.5t-52 27.5t-61 9q-62 0 -104 -23.5t-67.5 -61
t-37 -84t-11.5 -91.5q0 -47 13.5 -90t39.5 -76t65 -52.5t90 -19.5q38 0 71 11.5t58.5 33.5t41.5 52.5t19 69.5h20z" />
    <glyph glyph-name="d" unicode="d" horiz-adv-x="537" 
d="M455 714h20v-714h-20v144h-2q-10 -34 -28.5 -62.5t-45 -49.5t-60 -32.5t-72.5 -11.5q-51 0 -91.5 20t-69 56t-43.5 85t-15 107q0 54 14 103t42 86t69 59t94 22q82 0 135 -43t71 -113h2v344zM455 256q0 60 -15 106.5t-42 78.5t-65.5 48.5t-85.5 16.5q-53 0 -90.5 -22.5
t-61.5 -58t-35.5 -80t-11.5 -89.5q0 -50 12.5 -94.5t37 -79t62 -54.5t87.5 -20q49 0 88 20t65.5 54t40.5 79t14 95z" />
    <glyph glyph-name="e" unicode="e" 
d="M45 253q1 -52 12 -96.5t35.5 -77.5t62.5 -52t93 -19q80 0 134 43t67 127h20q-5 -44 -23.5 -79.5t-47.5 -60t-66.5 -37.5t-81.5 -13q-60 -1 -102.5 19.5t-69.5 57t-40 86t-13 106.5q0 64 19 114t50 84.5t71.5 52.5t84.5 18q60 0 103.5 -23t71 -61t40 -87t10.5 -102h-430z
M455 273q0 47 -13 89.5t-38.5 74.5t-63.5 50.5t-88 18.5q-42 0 -78.5 -16t-64 -46.5t-44.5 -73.5t-20 -97h410z" />
    <glyph glyph-name="f" unicode="f" horiz-adv-x="204" 
d="M-1 494v20h88v114q0 31 9.5 48t24.5 25.5t33 10.5t34 2q14 0 24.5 -1.5t18.5 -2.5v-20q-14 2 -25 3t-22 1q-48 0 -62.5 -17.5t-14.5 -55.5v-107h111v-20h-111v-494h-20v494h-88z" />
    <glyph glyph-name="g" unicode="g" horiz-adv-x="519" 
d="M446 172h-2q-8 -34 -28 -61t-48 -45.5t-60.5 -28t-65.5 -9.5q-54 0 -94 20t-66.5 53.5t-40 78t-13.5 94.5q0 52 14 97.5t42 80t69.5 54.5t95.5 20q37 0 69 -11.5t57.5 -31.5t43 -47.5t25.5 -58.5h2v137h20v-497q0 -106 -56.5 -156t-157.5 -50q-39 0 -74 9t-62 28.5
t-43 50.5t-17 74h20q1 -38 15.5 -65t38.5 -44t55 -25t66 -8q94 0 144.5 45t50.5 141v155zM445 274q0 44 -12.5 86t-37 74.5t-61.5 52t-85 19.5q-50 0 -87.5 -18.5t-63 -50.5t-38 -74t-12.5 -89q0 -48 12.5 -89t37 -71.5t60.5 -48t83 -17.5q49 0 87.5 18t64 48.5t39 71.5
t13.5 88z" />
    <glyph glyph-name="h" unicode="h" 
d="M55 714h20v-327h2q7 30 22.5 55t39 44t54.5 29.5t69 10.5q40 0 73.5 -12t58 -35.5t38 -58t13.5 -79.5v-341h-20v338q0 45 -13 76.5t-35.5 52t-52 30t-62.5 9.5q-46 0 -81 -17.5t-58.5 -47t-35.5 -68.5t-12 -82v-291h-20v714z" />
    <glyph glyph-name="i" unicode="i" horiz-adv-x="130" 
d="M75 613h-20v101h20v-101zM75 0h-20v514h20v-514z" />
    <glyph glyph-name="j" unicode="j" horiz-adv-x="130" 
d="M75 613h-20v101h20v-101zM75 -75q0 -36 -8.5 -56t-24 -30t-38.5 -13t-53 -3v20q29 0 49 2t32 10.5t17.5 26.5t5.5 50v582h20v-589z" />
    <glyph glyph-name="k" unicode="k" horiz-adv-x="444" 
d="M75 194v-194h-20v714h20v-495l355 295h29l-236 -196l253 -318h-27l-241 304z" />
    <glyph glyph-name="l" unicode="l" horiz-adv-x="130" 
d="M55 714h20v-714h-20v714z" />
    <glyph glyph-name="m" unicode="m" horiz-adv-x="778" 
d="M55 514h20v-127h2q7 30 22.5 55t37 44t48 29.5t56.5 10.5q60 2 100.5 -30.5t53.5 -89.5h2q15 54 59.5 87t103.5 33q46 0 77.5 -14t50.5 -38.5t27 -59t8 -76.5v-338h-20v338q0 38 -6.5 69t-23 53t-44 34t-69.5 12q-38 0 -67.5 -14.5t-50.5 -39.5t-32 -57.5t-11 -68.5v-326
h-20v330q0 36 -5.5 68t-20.5 56t-42 38t-70 14q-38 0 -69 -17.5t-52.5 -47t-33 -68.5t-11.5 -82v-291h-20v514z" />
    <glyph glyph-name="n" unicode="n" 
d="M55 514h20v-127h2q7 30 22.5 55t39 44t54.5 29.5t69 10.5q40 0 73.5 -12t58 -35.5t38 -58t13.5 -79.5v-341h-20v338q0 45 -13 76.5t-35.5 52t-52 30t-62.5 9.5q-46 0 -81 -17.5t-58.5 -47t-35.5 -68.5t-12 -82v-291h-20v514z" />
    <glyph glyph-name="o" unicode="o" horiz-adv-x="519" 
d="M48 257q0 -49 13.5 -94t40.5 -79.5t66.5 -55t91.5 -20.5q51 0 90.5 20.5t66.5 55t40.5 79.5t13.5 94q0 48 -13.5 93t-40.5 79.5t-66.5 55.5t-90.5 21q-52 0 -91.5 -21t-66.5 -55.5t-40.5 -79.5t-13.5 -93zM28 257q0 52 15 101t44.5 86t72.5 59.5t100 22.5q56 0 99 -22.5
t72.5 -59.5t44.5 -86t15 -101q0 -53 -15 -101.5t-44.5 -86t-72.5 -59.5t-100 -22q-56 0 -99.5 22t-72.5 59.5t-44 86t-15 101.5z" />
    <glyph glyph-name="p" unicode="p" horiz-adv-x="537" 
d="M75 -177h-20v691h20v-144h2q10 34 28.5 62.5t45 49.5t60 32.5t72.5 11.5q51 0 91.5 -20t69 -56t43.5 -85t15 -107q0 -54 -14.5 -103t-42 -86t-68.5 -59t-94 -22q-82 0 -135 43t-71 113h-2v-321zM283 8q53 0 90.5 22.5t61.5 58t35.5 80t11.5 89.5q0 49 -12.5 94t-37 79.5
t-62 54.5t-87.5 20t-88.5 -20t-65 -54t-40.5 -79t-14 -95q0 -60 15 -106.5t42 -78.5t65.5 -48.5t85.5 -16.5z" />
    <glyph glyph-name="q" unicode="q" horiz-adv-x="537" 
d="M455 258q0 50 -14 95t-40.5 79t-65.5 54t-88 20q-50 0 -87.5 -20t-62 -54.5t-37 -79.5t-12.5 -94q0 -45 11.5 -89.5t35.5 -80t61.5 -58t90.5 -22.5q47 0 85.5 16.5t65.5 48.5t42 78.5t15 106.5zM455 514h20v-691h-20v321h-2q-18 -70 -71 -113t-135 -43q-53 0 -94 22
t-69 59t-42 86t-14 103q0 58 15 107t43.5 85t69 56t91.5 20q39 0 72.5 -11.5t60 -32.5t45 -49.5t28.5 -62.5h2v144z" />
    <glyph glyph-name="r" unicode="r" horiz-adv-x="259" 
d="M75 0h-20v514h20v-127h2q7 28 22 54t40 45.5t59.5 30t80.5 9.5v-20q-53 3 -91.5 -14.5t-63.5 -48t-37 -70.5t-12 -82v-291z" />
    <glyph glyph-name="s" unicode="s" horiz-adv-x="463" 
d="M390 362q0 39 -12 66t-34 44.5t-52.5 25.5t-67.5 8q-54 0 -85 -14.5t-46 -33.5t-19 -36.5t-4 -24.5q0 -38 15.5 -58.5t41.5 -31.5q27 -11 58.5 -19l73.5 -19l59.5 -16.5t53 -23.5t38 -38t14.5 -60q0 -39 -16.5 -66t-43 -44t-60 -25t-66.5 -8q-102 0 -155 45.5t-53 142.5
h20q0 -86 49 -127t139 -41q28 0 57.5 6.5t53.5 21t39.5 37.5t15.5 56q0 34 -15.5 55t-40 34.5t-56.5 21.5l-65 16q-37 9 -65 17t-50 18q-32 14 -47 39t-15 67q0 21 9 44t30 42t54 31t81 12q86 0 136 -39t50 -125h-20z" />
    <glyph glyph-name="t" unicode="t" horiz-adv-x="241" 
d="M110 494v-394q0 -29 6.5 -45t16.5 -24t22 -9.5t24 -1.5q15 0 27 0.5t17 2.5v-20l-17.5 -2t-31.5 -1q-35 0 -59.5 20.5t-24.5 75.5v398h-95v20h95v162h20v-162h116v-20h-116z" />
    <glyph glyph-name="u" unicode="u" 
d="M445 0h-20v127h-2q-7 -30 -22.5 -55t-39 -44t-54.5 -29.5t-69 -10.5q-40 0 -73.5 12t-58 35.5t-38 58t-13.5 79.5v341h20v-338q0 -45 13 -76.5t35.5 -52t52 -30t62.5 -9.5q46 0 81 17.5t58.5 47t35.5 68.5t12 82v291h20v-514z" />
    <glyph glyph-name="v" unicode="v" horiz-adv-x="407" 
d="M397 514h22l-194 -514h-25l-212 514h24l199 -494h2z" />
    <glyph glyph-name="w" unicode="w" horiz-adv-x="685" 
d="M673 514h20l-164 -514h-26l-160 494h-2l-161 -494h-28l-160 514h20l153 -494h2l159 494h31l158 -494h2z" />
    <glyph glyph-name="x" unicode="x" horiz-adv-x="407" 
d="M380 514h24l-188 -248l206 -266h-25l-194 251l-193 -251h-25l206 266l-187 248h26l173 -233z" />
    <glyph glyph-name="y" unicode="y" horiz-adv-x="407" 
d="M398 514h21l-237 -619q-10 -26 -24 -40.5t-31 -21.5t-37.5 -8.5t-43.5 -1.5v20q25 0 44 1.5t32.5 8t24 20t19.5 36.5l37 96l-215 509h22l204 -487z" />
    <glyph glyph-name="z" unicode="z" horiz-adv-x="407" 
d="M402 20v-20h-397v25l360 469h-333v20h354v-25l-360 -469h376z" />
    <glyph glyph-name="braceleft" unicode="{" horiz-adv-x="333" 
d="M230 -177q-42 0 -57.5 27t-15.5 84v163q0 61 -14 102.5t-58 70.5v20q16 3 29.5 18t23 38t14.5 52t5 59v165q0 57 15.5 83t57.5 26h50v-20h-48q-30 0 -42.5 -22.5t-12.5 -84.5v-164q0 -22 -4 -47t-13 -48t-22.5 -41t-32.5 -26q33 -16 52.5 -61.5t19.5 -102.5v-162
q0 -33 3 -54.5t10 -33.5t17.5 -16.5t24.5 -4.5h48v-20h-50z" />
    <glyph glyph-name="bar" unicode="|" horiz-adv-x="222" 
d="M101 -214v1000h20v-1000h-20z" />
    <glyph glyph-name="braceright" unicode="}" horiz-adv-x="333" 
d="M103 731q42 0 57.5 -27t15.5 -84v-163q0 -61 14 -103t58 -70v-20q-16 -3 -29.5 -18t-23 -38t-14.5 -52t-5 -59v-165q0 -57 -15.5 -83t-57.5 -26h-50v20h48q30 0 42.5 22.5t12.5 84.5v164q0 22 4 47t13 48t22.5 41t32.5 26q-33 16 -52.5 61.5t-19.5 102.5v162
q0 33 -3.5 54.5t-10 33.5t-17 16.5t-24.5 4.5h-48v20h50z" />
    <glyph glyph-name="asciitilde" unicode="~" horiz-adv-x="600" 
d="M523 295q-10 -16 -21 -31.5t-24 -27.5t-29 -19.5t-35 -7.5q-25 0 -48 10.5l-49 21.5l-54.5 24.5t-67.5 12.5q-34 0 -57 -20.5t-41 -52.5l-20 6q19 35 47.5 61t70.5 26q27 2 57.5 -9t59.5 -25l56.5 -24t46.5 -11q15 0 27.5 6.5t23 16.5t19.5 23l18 26z" />
    <glyph glyph-name="Euro" unicode="&#x20ac;" horiz-adv-x="556" 
d="M567 73q-87 -88 -210 -88q-63 0 -113.5 22.5t-88 61t-61.5 90t-33 110.5h-61l7 17h53q-1 5 -1.5 10.5t-0.5 10.5v21q0 14 0.5 29t1.5 29h-60l7 17h55q8 61 31.5 114.5t62 93t91 62t117.5 22.5q54 0 99 -16.5t87 -49.5l-9 -16q-42 32 -83 48t-95 16q-60 0 -109 -21.5
t-85 -58.5t-58 -87t-29 -107h407l-9 -17h-400q-1 -12 -1.5 -24t-0.5 -24q0 -27 3 -52h378l-9 -17h-367q9 -54 31.5 -102.5t57.5 -85t82 -57.5t106 -21q125 0 207 97v-27v0z" />
    <glyph glyph-name="quotesinglbase" unicode="&#x201a;" horiz-adv-x="167" 
d="M93 98v-98q0 -45 -9.5 -73.5t-35.5 -45.5v20q14 13 19.5 35.5t5.5 63.5v98h20z" />
    <glyph glyph-name="florin" unicode="&#x192;" horiz-adv-x="556" 
d="M189 -55q-5 -24 -14 -46t-24.5 -39t-37 -27t-50.5 -10q-13 0 -25.5 1t-24.5 5l5 20q21 -6 42 -6q50 0 74.5 29.5t33.5 76.5l91 462h-119l4 20h119l39 195q11 56 44.5 80.5t87.5 24.5q14 0 28 -1.5t27 -5.5l-4 -19q-12 2 -25.5 4t-27.5 2q-46 0 -72.5 -20.5t-37.5 -75.5
l-37 -184h127l-4 -20h-127z" />
    <glyph glyph-name="quotedblbase" unicode="&#x201e;" horiz-adv-x="278" 
d="M95 98v-98q0 -45 -9.5 -73.5t-35.5 -45.5v20q14 13 19.5 35.5t5.5 63.5v98h20zM195 98v-98q0 -45 -9.5 -73.5t-35.5 -45.5v20q14 13 19.5 35.5t5.5 63.5v98h20z" />
    <glyph glyph-name="ellipsis" unicode="&#x2026;" horiz-adv-x="1000" 
d="M843 0h-20v98h20v-98zM510 0h-20v98h20v-98zM177 0h-20v98h20v-98z" />
    <glyph glyph-name="dagger" unicode="&#x2020;" horiz-adv-x="556" 
d="M288 714v-243h208v-20h-208v-591h-20v591h-208v20h208v243h20z" />
    <glyph glyph-name="daggerdbl" unicode="&#x2021;" horiz-adv-x="556" 
d="M60 57v20h208v420h-208v20h208v197h20v-197h208v-20h-208v-420h208v-20h-208v-197h-20v197h-208z" />
    <glyph glyph-name="circumflex" unicode="&#x2c6;" horiz-adv-x="130" 
d="M166 591l-103 123l-99 -123h-20l113 139h15l114 -139h-20z" />
    <glyph glyph-name="perthousand" unicode="&#x2030;" horiz-adv-x="1037" 
d="M565 714h23l-476 -748h-23zM729 157q0 -30 8 -57.5t24.5 -47.5t41.5 -32t58 -12t58.5 12t42.5 32.5t25.5 47.5t8.5 57q0 69 -33 111t-102 42t-100.5 -43.5t-31.5 -109.5zM709 157q0 38 10 69.5t29.5 54.5t48 36t64.5 13q76 0 115.5 -48.5t39.5 -123.5q0 -35 -10 -65.5
t-30 -54t-49 -37t-66 -13.5q-39 0 -68 14t-47.5 37.5t-27.5 54t-9 63.5zM369 157q0 -30 8 -57.5t24.5 -47.5t41.5 -32t58 -12t58.5 12t42.5 32.5t25.5 47.5t8.5 57q0 69 -33 111t-102 42t-100.5 -43.5t-31.5 -109.5zM349 157q0 38 10 69.5t29.5 54.5t48 36t64.5 13
q76 0 115.5 -48.5t39.5 -123.5q0 -35 -10 -65.5t-30 -54t-49 -37t-66 -13.5q-39 0 -68 14t-47.5 37.5t-27.5 54t-9 63.5zM41 519q0 -30 8 -57.5t24.5 -47.5t41.5 -32t58 -12t58.5 12t42.5 32.5t25.5 47.5t8.5 57q0 69 -33 111t-102 42t-100.5 -43.5t-31.5 -109.5zM21 519
q0 38 10 69.5t29.5 54.5t48 36t64.5 13q76 0 115.5 -48.5t39.5 -123.5q0 -35 -10 -65.5t-30 -54t-49 -37t-66 -13.5q-39 0 -68 14t-47.5 37.5t-27.5 54t-9 63.5z" />
    <glyph glyph-name="Scaron" unicode="&#x160;" horiz-adv-x="611" 
d="M531 514q-2 55 -20.5 92.5t-49 60.5t-72.5 33.5t-90 10.5q-38 0 -77.5 -7.5t-72 -26.5t-53.5 -50.5t-21 -79.5t21.5 -77t56 -47t78.5 -28l90 -21l94.5 -24.5t77.5 -32t52.5 -53.5t19.5 -89q0 -51 -22 -87t-58 -59.5t-81 -34.5t-91 -11q-61 0 -112.5 14.5t-89 45t-58 78.5
t-19.5 116h20q0 -64 19 -108.5t53.5 -72.5t82 -40.5t104.5 -12.5q42 0 83.5 9.5t74.5 30.5t53.5 54t20.5 79q0 54 -23.5 85.5t-60 50t-81 28t-85.5 19.5q-44 10 -86.5 21t-77 30.5t-55.5 51.5t-21 85t22 88.5t57 56.5t78.5 30t86.5 9q52 0 97 -11.5t78.5 -37t53.5 -67
t23 -101.5h-20zM204 920l103 -123l99 123h20l-113 -139h-15l-114 139h20z" />
    <glyph glyph-name="guilsinglleft" unicode="&#x2039;" horiz-adv-x="259" 
d="M169 121l-103 139v16l103 139v-35l-83 -112l83 -112v-35z" />
    <glyph glyph-name="OE" unicode="&#x152;" horiz-adv-x="1019" 
d="M558 623q-23 24 -44.5 40.5t-44.5 27t-49 15.5t-58 5q-71 0 -128 -25.5t-97 -72.5t-62 -113t-23 -147q1 -76 22.5 -140t61 -110.5t97 -73t129.5 -26.5q47 0 100 20.5t96 70.5v529zM944 382v-20h-366v-342h414v-20h-434v65q-42 -43 -93 -62.5t-103 -19.5q-81 0 -142.5 30
t-103 80.5t-63 117.5t-21.5 142t21 143.5t62 120.5t103 83t144 31q59 0 108 -18.5t88 -63.5v65h434v-20h-414v-312h366z" />
    <glyph glyph-name="Zcaron" unicode="&#x17d;" 
d="M508 20v-20h-527v27l499 667h-471v20h491v-27l-499 -667h507zM148 920l103 -123l99 123h20l-113 -139h-15l-114 139h20z" />
    <glyph glyph-name="quoteleft" unicode="&#x2018;" horiz-adv-x="167" 
d="M73 489v118q0 27 2 44t7.5 29t14 19.5t21.5 14.5v-20q-15 -10 -20 -29.5t-5 -57.5v-118h-20z" />
    <glyph glyph-name="quoteright" unicode="&#x2019;" horiz-adv-x="167" 
d="M94 714v-118q0 -27 -2 -44t-7.5 -29t-14 -19.5t-21.5 -14.5v20q15 10 20 29.5t5 57.5v118h20z" />
    <glyph glyph-name="quotedblleft" unicode="&#x201c;" horiz-adv-x="278" 
d="M183 489v118q0 27 2 44t7.5 29t14 19.5t21.5 14.5v-20q-15 -10 -20 -29.5t-5 -57.5v-118h-20zM83 489v118q0 27 2 44t7.5 29t14 19.5t21.5 14.5v-20q-15 -10 -20 -29.5t-5 -57.5v-118h-20z" />
    <glyph glyph-name="quotedblright" unicode="&#x201d;" horiz-adv-x="278" 
d="M95 714v-118q0 -27 -2 -44t-7.5 -29t-14 -19.5t-21.5 -14.5v20q15 10 20 29.5t5 57.5v118h20zM195 714v-118q0 -27 -2 -44t-7.5 -29t-14 -19.5t-21.5 -14.5v20q15 10 20 29.5t5 57.5v118h20z" />
    <glyph glyph-name="bullet" unicode="&#x2022;" 
d="M72 357q0 37 14 69.5t38 56.5t56.5 38t69.5 14t69.5 -14t57 -38t38.5 -56.5t14 -69.5t-14 -69.5t-38.5 -57t-57 -38.5t-69.5 -14t-69.5 14t-56.5 38.5t-38 57t-14 69.5z" />
    <glyph glyph-name="endash" unicode="&#x2013;" 
d="M0 278h500v-20h-500v20z" />
    <glyph glyph-name="emdash" unicode="&#x2014;" horiz-adv-x="1000" 
d="M870 258h-740v20h740v-20z" />
    <glyph glyph-name="tilde" unicode="&#x2dc;" horiz-adv-x="130" 
d="M-67 615q1 15 6 29t14 25t22 18t26 7q17 0 33.5 -9t32.5 -20t31 -20t30 -9q19 0 31.5 12.5t17.5 42.5h20q-5 -37 -22.5 -56t-46.5 -19q-19 0 -35 9t-31 20t-30 20t-31 9q-11 0 -20 -5.5t-15 -14.5t-9 -18.5t-4 -20.5h-20z" />
    <glyph glyph-name="trademark" unicode="&#x2122;" horiz-adv-x="990" 
d="M496 714h34l162 -384l162 384h34v-412h-20v392h-2l-164 -392h-20l-164 392h-2v-392h-20v412zM232 694h-150v20h320v-20h-150v-392h-20v392z" />
    <glyph glyph-name="scaron" unicode="&#x161;" horiz-adv-x="463" 
d="M390 362q0 39 -12 66t-34 44.5t-52.5 25.5t-67.5 8q-54 0 -85 -14.5t-46 -33.5t-19 -36.5t-4 -24.5q0 -38 15.5 -58.5t41.5 -31.5q27 -11 58.5 -19l73.5 -19l59.5 -16.5t53 -23.5t38 -38t14.5 -60q0 -39 -16.5 -66t-43 -44t-60 -25t-66.5 -8q-102 0 -155 45.5t-53 142.5
h20q0 -86 49 -127t139 -41q28 0 57.5 6.5t53.5 21t39.5 37.5t15.5 56q0 34 -15.5 55t-40 34.5t-56.5 21.5l-65 16q-37 9 -65 17t-50 18q-32 14 -47 39t-15 67q0 21 9 44t30 42t54 31t81 12q86 0 136 -39t50 -125h-20zM132 730l103 -123l99 123h20l-113 -139h-15l-114 139h20
z" />
    <glyph glyph-name="guilsinglright" unicode="&#x203a;" horiz-adv-x="259" 
d="M90 415l103 -139v-16l-103 -139v35l83 112l-83 112v35z" />
    <glyph glyph-name="oe" unicode="&#x153;" horiz-adv-x="890" 
d="M454 253q-1 -119 46 -182t146 -63q44 0 76 13.5t53.5 36t34.5 52.5t19 63h20q-14 -84 -64.5 -134.5t-138.5 -50.5q-85 0 -137 44t-64 125h-2q-17 -78 -65.5 -123.5t-134.5 -45.5q-57 0 -97 23t-65.5 61t-37 86t-11.5 99q0 49 11 97.5t36 86.5t65.5 61.5t98.5 23.5
q42 0 76 -13t59.5 -36t41.5 -55.5t22 -71.5h2q7 37 22 69t39.5 55.5t59 37t81.5 14.5q55 1 95 -20t65.5 -57t37.5 -83t12 -98v-15h-402zM434 257q0 48 -9.5 93t-32 79.5t-59 55.5t-90.5 21q-52 0 -88.5 -21t-59 -56t-33 -79.5t-10.5 -92.5q0 -47 10.5 -91.5t33 -79.5
t59 -56.5t88.5 -21.5q55 0 91.5 20.5t58.5 55t31.5 79.5t9.5 94zM836 273q-1 47 -12 89.5t-33.5 74.5t-57.5 50.5t-86 18.5q-52 0 -88 -18t-58.5 -49t-33.5 -74t-13 -92h382z" />
    <glyph glyph-name="zcaron" unicode="&#x17e;" horiz-adv-x="407" 
d="M402 20v-20h-397v25l360 469h-333v20h354v-25l-360 -469h376zM104 730l103 -123l99 123h20l-113 -139h-15l-114 139h20z" />
    <glyph glyph-name="Ydieresis" unicode="&#x178;" horiz-adv-x="538" 
d="M544 714h24l-289 -413v-301h-20v301l-289 413h25l274 -392zM337 804v81h20v-81h-20zM181 804v81h20v-81h-20z" />
    <glyph glyph-name="uni00A0" unicode="&#xa0;" horiz-adv-x="278" 
 />
    <glyph glyph-name="exclamdown" unicode="&#xa1;" horiz-adv-x="185" 
d="M103 360v-537h-20v537h20zM103 542v-98h-20v98h20z" />
    <glyph glyph-name="cent" unicode="&#xa2;" horiz-adv-x="556" 
d="M292 8h5q37 0 68 12.5t55 35t38.5 53t18.5 66.5h20q-11 -88 -66.5 -137t-138.5 -50v-109h-20v109q-54 2 -94 25t-66.5 60.5t-39.5 85.5t-13 99q0 49 13.5 96.5t40 84.5t66.5 60.5t93 25.5v88h20v-88q39 -1 73 -12t61 -32t44 -51.5t22 -71.5h-20q-11 73 -60.5 109
t-119.5 38v-497zM272 505q-49 -2 -85.5 -24t-60.5 -56.5t-35.5 -78t-11.5 -88.5q0 -46 11.5 -90t35.5 -79t60 -57t86 -24v497z" />
    <glyph glyph-name="sterling" unicode="&#xa3;" horiz-adv-x="556" 
d="M296 365v-20h-149q17 -31 23.5 -66t6.5 -70q0 -57 -26.5 -104.5t-72.5 -86.5l2 -2q19 14 45 25.5t57 11.5q25 0 50 -8l49 -16q25 -10 49 -18t47 -8q24 0 44 6t38 17t35 26.5l36 33.5l13 -14q-22 -25 -42 -42t-40 -27.5t-40.5 -15t-43.5 -4.5q-25 0 -50 7.5t-50 17.5
q-25 8 -48.5 16.5t-46.5 8.5q-35 0 -65.5 -13.5t-59.5 -36.5l-18 20q49 42 83.5 94t34.5 112q0 38 -8.5 74t-23.5 62h-76v20h66l-22 41t-22.5 45t-18 47t-7.5 47q0 48 19 83t50.5 58t72 34t84.5 11q57 0 102.5 -17.5t76 -50t44 -79t7.5 -104.5h-20q5 56 -8 99t-41.5 72.5
t-69.5 44.5t-91 15q-39 0 -76 -9.5t-66 -29.5t-46.5 -51.5t-17.5 -75.5q0 -23 7.5 -46.5t19 -46.5t24 -45t22.5 -42h158z" />
    <glyph glyph-name="currency" unicode="&#xa4;" horiz-adv-x="556" 
d="M506 340q0 47 -18 88.5t-49 72.5t-72.5 49t-88.5 18t-88.5 -18t-72.5 -49t-49 -72.5t-18 -88.5t18 -88.5t49 -72.5t72.5 -49t88.5 -18t88.5 18t72.5 49t49 72.5t18 88.5zM503 579l14 -14l-57 -57q33 -35 49.5 -78.5t16.5 -89.5q0 -45 -16.5 -88.5t-49.5 -79.5l57 -57
l-14 -14l-57 57q-35 -32 -78.5 -48.5t-89.5 -17.5q-45 0 -88.5 16.5t-79.5 49.5l-57 -57l-14 14l57 57q-33 36 -49.5 79.5t-16.5 88.5q1 46 17.5 89.5t48.5 78.5l-57 57l14 14l57 -57q36 33 79.5 49.5t88.5 16.5q46 0 89.5 -16.5t78.5 -49.5z" />
    <glyph glyph-name="yen" unicode="&#xa5;" horiz-adv-x="556" 
d="M287 203h147v-20h-147v-183h-20v183h-147v20h147v102h-147v20h138l-237 389h22l234 -383h2l234 383h22l-237 -389h136v-20h-147v-102z" />
    <glyph glyph-name="brokenbar" unicode="&#xa6;" horiz-adv-x="222" 
d="M121 661v-250h-20v250h20zM121 -89h-20v250h20v-250z" />
    <glyph glyph-name="section" unicode="&#xa7;" horiz-adv-x="556" 
d="M479 205q0 25 -6.5 46t-25 43t-50.5 47t-83 58q-12 8 -30.5 18.5l-37 21l-35.5 20.5l-27 16q-11 -3 -29 -12.5t-35.5 -25.5t-30 -39.5t-12.5 -55.5q0 -12 2.5 -26.5t12.5 -32t30 -38t55 -42.5l47.5 -30l50.5 -32l48 -31.5l40 -27.5q15 3 35 13t38 25.5t30.5 36.5t12.5 48
zM422 546q-2 77 -40 121t-113 44q-20 0 -44 -5.5t-45 -18.5t-35 -35t-12 -56q2 -38 18 -60t39 -39q18 -13 33.5 -22.5t31.5 -18l32.5 -18l37.5 -22.5q54 -35 87.5 -61t53 -50t26.5 -48t7 -53q0 -27 -12.5 -50t-30.5 -40.5t-38.5 -29.5t-35.5 -16q39 -32 50 -62.5t9 -60.5
q-3 -35 -17 -60t-36.5 -41.5t-51 -24.5t-58.5 -8q-85 0 -131 50t-44 144h20q-1 -77 35 -125t120 -49q39 0 66 11t44 28.5t25 37.5t8 37q0 20 -2.5 35.5t-11 30t-24 29.5t-42.5 34q-17 12 -38 25.5l-44.5 28l-47.5 29.5l-46 30q-36 24 -57 44.5t-32.5 40t-15 38.5t-3.5 40
q0 24 9.5 45.5t24.5 40t34.5 32t40.5 21.5q-20 17 -36.5 42t-16.5 67t17 68t42 40.5t52 19.5t47 5q39 0 71 -13.5t54 -37.5t34 -58t12 -76h-20z" />
    <glyph glyph-name="dieresis" unicode="&#xa8;" horiz-adv-x="130" 
d="M133 614v81h20v-81h-20zM-23 614v81h20v-81h-20z" />
    <glyph glyph-name="copyright" unicode="&#xa9;" horiz-adv-x="800" 
d="M46 357q0 -74 27.5 -138.5t75.5 -112.5t112.5 -75.5t138.5 -27.5q73 0 137.5 27.5t112.5 75.5t76 112.5t28 138.5q0 73 -28 137.5t-76 112.5t-112.5 76t-137.5 28q-74 0 -138.5 -28t-112.5 -76t-75.5 -112.5t-27.5 -137.5zM26 357q0 78 29.5 146t80 118.5t118.5 80
t146 29.5t146 -29.5t118.5 -80t80 -118.5t29.5 -146t-29.5 -146t-80 -118.5t-118.5 -80t-146 -29.5t-146 29.5t-118.5 80t-80 118.5t-29.5 146zM573 428q-5 33 -20 57.5t-37.5 41t-50 24.5t-57.5 8q-47 0 -83.5 -16t-62 -43.5t-38.5 -65.5t-13 -82t13.5 -82.5t39.5 -67.5
t63 -45.5t84 -16.5q55 0 100.5 35t61.5 101h20q-8 -35 -24.5 -63.5t-40 -49t-53.5 -32t-64 -11.5q-50 0 -91 18t-69.5 49t-44 73t-15.5 91t15 91t42.5 72.5t68 47.5t91.5 17q35 0 66.5 -10t56.5 -29t41 -47.5t21 -64.5h-20z" />
    <glyph glyph-name="ordfeminine" unicode="&#xaa;" horiz-adv-x="300" 
d="M300 374h-19q-9 0 -17 3t-13 9.5t-5 18.5v41h-2v-7q-11 -33 -44.5 -52.5t-87.5 -19.5q-22 0 -42 4.5t-35.5 15t-25 26t-9.5 38.5q0 30 10.5 48t28 28t39.5 13.5t45 5.5q23 1 45 1.5t39.5 4t28 12.5t10.5 27q0 44 -23.5 62.5t-73.5 18.5q-51 0 -77 -22.5t-31 -61.5h-20
q5 49 36.5 76.5t91.5 27.5q49 0 82 -19.5t35 -69.5v-190q0 -17 10.5 -19t23.5 0v-20zM246 552h-2q-6 -9 -18.5 -13.5t-28.5 -7t-35 -3t-39 -2.5t-38.5 -5.5t-33 -11.5t-23 -22t-8.5 -36q0 -18 8 -30t21 -19.5t29.5 -11t33.5 -3.5q65 0 99.5 34t34.5 83v48z" />
    <glyph glyph-name="guillemotleft" unicode="&#xab;" horiz-adv-x="352" 
d="M262 121l-103 139v16l103 139v-35l-83 -112l83 -112v-35zM169 121l-103 139v16l103 139v-35l-83 -112l83 -112v-35z" />
    <glyph glyph-name="logicalnot" unicode="&#xac;" horiz-adv-x="600" 
d="M532 340h-484v20h504v-267h-20v247z" />
    <glyph glyph-name="uni00AD" unicode="&#xad;" horiz-adv-x="333" 
d="M79 278h175v-20h-175v20z" />
    <glyph glyph-name="registered" unicode="&#xae;" horiz-adv-x="800" 
d="M46 357q0 -74 27.5 -138.5t75.5 -112.5t112.5 -75.5t138.5 -27.5q73 0 137.5 27.5t112.5 75.5t76 112.5t28 138.5q0 73 -28 137.5t-76 112.5t-112.5 76t-137.5 28q-74 0 -138.5 -28t-112.5 -76t-75.5 -112.5t-27.5 -137.5zM26 357q0 78 29.5 146t80 118.5t118.5 80
t146 29.5t146 -29.5t118.5 -80t80 -118.5t29.5 -146t-29.5 -146t-80 -118.5t-118.5 -80t-146 -29.5t-146 29.5t-118.5 80t-80 118.5t-29.5 146zM398 354q22 0 46.5 2.5t45 12.5t34 29t13.5 51q0 30 -10.5 48.5t-27.5 29t-39.5 14.5t-46.5 4h-119v-191h104zM274 565h141
q73 0 107.5 -30.5t34.5 -85.5q0 -27 -9 -47.5t-24.5 -34t-36 -21t-42.5 -9.5l132 -202h-25l-129 200q-8 -1 -16 -1h-15h-98v-199h-20v430z" />
    <glyph glyph-name="macron" unicode="&#xaf;" horiz-adv-x="130" 
d="M181 640h-232v20h232v-20z" />
    <glyph glyph-name="degree" unicode="&#xb0;" horiz-adv-x="400" 
d="M343 549q0 -30 -11 -56.5t-30 -46t-45.5 -31t-56.5 -11.5t-56 11t-45.5 30.5t-30.5 46t-11 57.5q0 29 11 55t30.5 45.5t45.5 31t56 11.5t56 -11.5t45.5 -31t30.5 -45.5t11 -55zM323 549q0 25 -9 47t-25.5 39t-39 27t-49.5 10q-25 0 -47 -10t-39 -27.5t-27 -39.5t-10 -46
q0 -27 10 -50t27 -39.5t39 -26t47 -9.5q26 0 48.5 9.5t39 26.5t26 40t9.5 49z" />
    <glyph glyph-name="plusminus" unicode="&#xb1;" horiz-adv-x="600" 
d="M48 20h504v-20h-504v20zM290 506h20v-198h242v-20h-242v-198h-20v198h-242v20h242v198z" />
    <glyph glyph-name="twosuperior" unicode="&#xb2;" horiz-adv-x="333" 
d="M316 297v-20h-298q0 28 12.5 50.5t32 40.5t44.5 34l50 33q25 16 48 33t40.5 35t28 39t10.5 46q0 43 -32.5 63.5t-83.5 20.5q-66 0 -94.5 -32t-27.5 -89h-20q2 68 33.5 104.5t108.5 36.5q28 0 53 -6t43.5 -18.5t29 -32.5t10.5 -47q0 -20 -5 -38.5t-19.5 -38t-40.5 -41
t-67 -48.5l-48 -32t-41 -31.5t-29.5 -31t-12.5 -30.5h275z" />
    <glyph glyph-name="threesuperior" unicode="&#xb3;" horiz-adv-x="333" 
d="M24 559q-1 33 10 57.5t31.5 41.5t48.5 25.5t61 8.5q25 0 49.5 -4.5t44.5 -16t32.5 -30.5t12.5 -49q0 -42 -28.5 -68.5t-73.5 -26.5v-2q22 -2 42 -8.5t35 -19.5t24 -32t9 -45q0 -29 -12 -51t-32.5 -37.5t-47.5 -23.5t-57 -8q-38 0 -69 9.5t-52.5 28t-32 45.5t-8.5 62h20
q-5 -63 35 -94t106 -31q25 0 48.5 6.5t41.5 19t29 31t11 43.5q0 28 -11 46.5t-29 29.5t-41.5 15.5t-47.5 4.5h-24v21h26q22 0 43.5 4.5t38.5 14t27 26t10 40.5q0 25 -10.5 40.5t-27 24.5t-38.5 12t-44 3q-63 0 -96.5 -27t-33.5 -86h-20z" />
    <glyph glyph-name="acute" unicode="&#xb4;" horiz-adv-x="130" 
d="M171 732l-146 -144h-15l132 144h29z" />
    <glyph glyph-name="mu" unicode="&#xb5;" horiz-adv-x="556" 
d="M472 0h-20v127h-2q-7 -30 -22.5 -55t-39 -44t-54.5 -29.5t-69 -10.5q-50 0 -93.5 21t-66.5 72h-2v-258h-20v691h19v-338q0 -45 13 -76.5t35.5 -52t52 -30t62.5 -9.5q46 0 81 17.5t58.5 47t35.5 68.5t12 82v291h20v-514z" />
    <glyph glyph-name="paragraph" unicode="&#xb6;" horiz-adv-x="600" 
d="M491 714v-854h-20v834h-163v-834h-20v468q-50 0 -90.5 15t-70 41t-45.5 60.5t-16 73.5q0 95 58.5 145.5t164.5 50.5h202z" />
    <glyph glyph-name="periodcentered" unicode="&#xb7;" horiz-adv-x="278" 
d="M107 340q0 14 9 23t23 9t23 -9t9 -23t-9 -23t-23 -9t-23 9t-9 23z" />
    <glyph glyph-name="cedilla" unicode="&#xb8;" horiz-adv-x="130" 
d="M-8 -151q17 -8 34 -12.5t37 -4.5q14 0 28 4t23.5 12t14 17.5t4.5 21.5q0 13 -5 21t-12.5 13t-18 7t-17.5 2q-32 0 -54 -13l-15 10l57 73h20l-41 -56q7 3 14.5 4.5t18.5 1.5q33 0 54 -14.5t22 -45.5q0 -15 -7 -31t-19.5 -26t-30 -15.5t-36.5 -5.5q-24 0 -45 5.5t-35 12.5z
" />
    <glyph glyph-name="onesuperior" unicode="&#xb9;" horiz-adv-x="333" 
d="M181 662h-2q-18 -26 -51.5 -44.5t-65.5 -27.5v19q20 6 35.5 13.5t29 16.5t26 20t26.5 26h22v-408h-20v385z" />
    <glyph glyph-name="ordmasculine" unicode="&#xba;" horiz-adv-x="300" 
d="M20 531q0 -27 9 -53t25.5 -46t41 -32.5t55.5 -12.5t55 12.5t40.5 32.5t25.5 46t9 53q0 26 -9 51.5t-25.5 45.5t-40.5 32t-55 12t-55.5 -12t-41 -32t-25.5 -45.5t-9 -51.5zM0 531q0 31 10 60.5t29 51.5t47 35.5t65 13.5t65 -13.5t47 -35.5t28.5 -51.5t9.5 -60.5
q0 -32 -9.5 -61.5t-28.5 -52.5t-47.5 -36.5t-65.5 -13.5q-36 0 -64 13.5t-47 36.5t-29 52.5t-10 61.5z" />
    <glyph glyph-name="guillemotright" unicode="&#xbb;" horiz-adv-x="352" 
d="M90 415l103 -139v-16l-103 -139v35l83 112l-83 112v35zM183 415l103 -139v-16l-103 -139v35l83 112l-83 112v35z" />
    <glyph glyph-name="onequarter" unicode="&#xbc;" horiz-adv-x="834" 
d="M221 662h-2q-18 -26 -51.5 -44.5t-65.5 -27.5v19q20 6 35.5 13.5t29 16.5t26 20t26.5 26h22v-408h-20v385zM620 714h23l-476 -748h-23zM635 381l-2 -2l-198 -257h200v259zM414 102v25l216 281h25v-286h76v-20h-76v-102h-20v102h-221z" />
    <glyph glyph-name="onehalf" unicode="&#xbd;" horiz-adv-x="834" 
d="M770 20v-20h-298q0 28 12.5 50.5t32 40.5t44.5 34l50 33q25 16 48 33t40.5 35t28 39t10.5 46q0 43 -32.5 63.5t-83.5 20.5q-66 0 -94.5 -32t-27.5 -89h-20q2 68 33.5 104.5t108.5 36.5q28 0 53 -6t43.5 -18.5t29 -32.5t10.5 -47q0 -20 -5 -38.5t-19.5 -38t-40.5 -41
t-67 -48.5l-48 -32t-41 -31.5t-29.5 -31t-12.5 -30.5h275zM184 662h-2q-18 -26 -51.5 -44.5t-65.5 -27.5v19q20 6 35.5 13.5t29 16.5t26 20t26.5 26h22v-408h-20v385zM573 714h23l-476 -748h-23z" />
    <glyph glyph-name="threequarters" unicode="&#xbe;" horiz-adv-x="834" 
d="M68 559q-1 33 10 57.5t31.5 41.5t48.5 25.5t61 8.5q25 0 49.5 -4.5t44.5 -16t32.5 -30.5t12.5 -49q0 -42 -28.5 -68.5t-73.5 -26.5v-2q22 -2 42 -8.5t35 -19.5t24 -32t9 -45q0 -29 -12 -51t-32.5 -37.5t-47.5 -23.5t-57 -8q-38 0 -69 9.5t-52.5 28t-32 45.5t-8.5 62h20
q-5 -63 35 -94t106 -31q25 0 48.5 6.5t41.5 19t29 31t11 43.5q0 28 -11 46.5t-29 29.5t-41.5 16t-47.5 5h-12t-12 -1v21h26q22 0 43.5 4.5t38.5 14t27 26t10 40.5q0 25 -10.5 40.5t-27 24.5t-38.5 12t-44 3q-63 0 -96.5 -27t-33.5 -86h-20zM674 714h23l-476 -748h-23z
M683 381l-2 -2l-198 -257h200v259zM462 102v25l216 281h25v-286h76v-20h-76v-102h-20v102h-221z" />
    <glyph glyph-name="questiondown" unicode="&#xbf;" 
d="M268 542v-98h-20v98h20zM465 49q2 -52 -12 -96t-42 -75.5t-69 -49t-94 -17.5q-41 0 -77 11t-62.5 32t-42 52t-15.5 71q0 37 10.5 66t25.5 50.5t32 36.5l29 26q27 26 46 47.5t30.5 44t17 49.5t5.5 63h20q0 -34 -5 -61t-16 -51.5t-30 -48.5t-47 -51q-6 -6 -22 -19t-33 -34
t-30 -50.5t-13 -67.5q0 -35 13.5 -62.5t37 -46t56 -28t70.5 -9.5q49 0 87 16t63 44.5t37 69t10 88.5h20z" />
    <glyph glyph-name="Agrave" unicode="&#xc0;" horiz-adv-x="575" 
d="M106 235l-95 -235h-23l290 714h26l282 -714h-22l-94 235h-364zM462 255l-170 439h-2l-176 -439h348zM150 922h29l125 -144h-15z" />
    <glyph glyph-name="Aacute" unicode="&#xc1;" horiz-adv-x="575" 
d="M106 235l-95 -235h-23l290 714h26l282 -714h-22l-94 235h-364zM462 255l-170 439h-2l-176 -439h348zM439 922l-146 -144h-15l132 144h29z" />
    <glyph glyph-name="Acircumflex" unicode="&#xc2;" horiz-adv-x="575" 
d="M106 235l-95 -235h-23l290 714h26l282 -714h-22l-94 235h-364zM462 255l-170 439h-2l-176 -439h348zM392 781l-103 123l-99 -123h-20l113 139h15l114 -139h-20z" />
    <glyph glyph-name="Atilde" unicode="&#xc3;" horiz-adv-x="575" 
d="M106 235l-95 -235h-23l290 714h26l282 -714h-22l-94 235h-364zM462 255l-170 439h-2l-176 -439h348zM159 805q1 15 6 29t14 25t22 18t26 7q17 0 33.5 -9t32.5 -20t31 -20t30 -9q19 0 31.5 12.5t17.5 42.5h20q-5 -37 -22.5 -56t-46.5 -19q-19 0 -35 9t-31 20t-30 20t-31 9
q-11 0 -20 -5.5t-15 -14.5t-9 -18.5t-4 -20.5h-20z" />
    <glyph glyph-name="Adieresis" unicode="&#xc4;" horiz-adv-x="575" 
d="M106 235l-95 -235h-23l290 714h26l282 -714h-22l-94 235h-364zM462 255l-170 439h-2l-176 -439h348zM359 804v81h20v-81h-20zM203 804v81h20v-81h-20z" />
    <glyph glyph-name="Aring" unicode="&#xc5;" horiz-adv-x="575" 
d="M359 850q0 28 -20 48t-48 20t-48 -20t-20 -48t20 -48t48 -20t48 20t20 48zM379 850q0 -18 -7 -34t-19 -28t-28 -19t-34 -7t-34 7t-28 19t-19 28t-7 34t7 34t19 28t28 19t34 7t34 -7t28 -19t19 -28t7 -34zM106 235l-95 -235h-23l290 714h26l282 -714h-22l-94 235h-364z
M462 255l-170 439h-2l-176 -439h348z" />
    <glyph glyph-name="AE" unicode="&#xc6;" horiz-adv-x="852" 
d="M376 696l-211 -402h258v402h-47zM155 274l-145 -274h-22l378 714h469v-20h-392v-312h360v-20h-360v-342h392v-20h-412v274h-268z" />
    <glyph glyph-name="Ccedilla" unicode="&#xc7;" horiz-adv-x="685" 
d="M264 -151q17 -8 34 -12.5t37 -4.5q14 0 28 4t23.5 12t14 17.5t4.5 21.5q0 13 -5 21t-12.5 13t-18 7t-17.5 2q-32 0 -54 -13l-15 10l48 56q-60 3 -114 27q-59 28 -102 77t-66.5 116.5t-23.5 147.5q0 65 18.5 132.5t58.5 122.5t104 90t155 35q71 0 124 -23.5t88.5 -59
t53.5 -75.5t19 -73h-20q-3 39 -23 76.5t-54.5 67.5t-82 48.5t-105.5 18.5q-59 0 -105 -16.5t-81 -44t-60 -64t-40.5 -76.5t-22.5 -81t-7 -78q0 -68 20 -131t59 -111t95.5 -77t128.5 -29q64 0 115 21t88 58t60 88t31 110h20q-9 -65 -34 -119.5t-64.5 -94t-94.5 -61.5
q-53 -20 -118 -22l-32 -39q7 3 14.5 4.5t18.5 1.5q33 0 54 -14.5t22 -45.5q0 -15 -7 -31t-19.5 -26t-30 -15.5t-36.5 -5.5q-24 0 -45 5.5t-35 12.5z" />
    <glyph glyph-name="Egrave" unicode="&#xc8;" horiz-adv-x="537" 
d="M74 20h458v-20h-478v714h474v-20h-454v-312h427v-20h-427v-342zM162 922h29l125 -144h-15z" />
    <glyph glyph-name="Eacute" unicode="&#xc9;" horiz-adv-x="537" 
d="M74 20h458v-20h-478v714h474v-20h-454v-312h427v-20h-427v-342zM440 922l-146 -144h-15l132 144h29z" />
    <glyph glyph-name="Ecircumflex" unicode="&#xca;" horiz-adv-x="537" 
d="M74 20h458v-20h-478v714h474v-20h-454v-312h427v-20h-427v-342zM390 781l-103 123l-99 -123h-20l113 139h15l114 -139h-20z" />
    <glyph glyph-name="Edieresis" unicode="&#xcb;" horiz-adv-x="537" 
d="M359 804v81h20v-81h-20zM203 804v81h20v-81h-20zM74 20h458v-20h-478v714h474v-20h-454v-312h427v-20h-427v-342z" />
    <glyph glyph-name="Igrave" unicode="&#xcc;" horiz-adv-x="128" 
d="M54 714h20v-714h-20v714zM-78 922h29l125 -144h-15z" />
    <glyph glyph-name="Iacute" unicode="&#xcd;" horiz-adv-x="128" 
d="M54 714h20v-714h-20v714zM215 922l-146 -144h-15l132 144h29z" />
    <glyph glyph-name="Icircumflex" unicode="&#xce;" horiz-adv-x="128" 
d="M54 714h20v-714h-20v714zM166 781l-103 123l-99 -123h-20l113 139h15l114 -139h-20z" />
    <glyph glyph-name="Idieresis" unicode="&#xcf;" horiz-adv-x="128" 
d="M54 714h20v-714h-20v714zM133 804v81h20v-81h-20zM-23 804v81h20v-81h-20z" />
    <glyph glyph-name="Eth" unicode="&#xd0;" horiz-adv-x="648" 
d="M74 362v-342h204q63 0 119.5 20.5t99 62t67 105t24.5 149.5q0 100 -25 165t-66 103.5t-92.5 53.5t-105.5 15h-225v-312h297v-20h-297zM-10 362v20h64v332h250q53 0 107.5 -16.5t98 -57t71 -109.5t27.5 -174q0 -96 -28 -164t-75 -110.5t-107.5 -62.5t-124.5 -20h-219v362
h-64z" />
    <glyph glyph-name="Ntilde" unicode="&#xd1;" horiz-adv-x="648" 
d="M54 714h30l488 -689h2v689h20v-714h-30l-488 689h-2v-689h-20v714zM197 805q1 15 6 29t14 25t22 18t26 7q17 0 33.5 -9t32.5 -20t31 -20t30 -9q19 0 31.5 12.5t17.5 42.5h20q-5 -37 -22.5 -56t-46.5 -19q-19 0 -35 9t-31 20t-30 20t-31 9q-11 0 -20 -5.5t-15 -14.5
t-9 -18.5t-4 -20.5h-20z" />
    <glyph glyph-name="Ograve" unicode="&#xd2;" horiz-adv-x="721" 
d="M32 357q0 76 21.5 144t63 119t103 81t141.5 30t141.5 -30t103 -81t63 -119t21.5 -144t-21.5 -144t-63 -119t-103 -81t-141.5 -30t-141.5 30t-103 81t-63 119t-21.5 144zM52 357q1 -77 22 -142t61 -112t97 -73.5t129 -26.5t129 26.5t96.5 73.5t61 112t22.5 142
q-1 77 -22.5 142t-61 112t-96.5 73.5t-129 26.5t-129 -26.5t-97 -73.5t-61 -112t-22 -142zM217 922h29l125 -144h-15z" />
    <glyph glyph-name="Oacute" unicode="&#xd3;" horiz-adv-x="721" 
d="M32 357q0 76 21.5 144t63 119t103 81t141.5 30t141.5 -30t103 -81t63 -119t21.5 -144t-21.5 -144t-63 -119t-103 -81t-141.5 -30t-141.5 30t-103 81t-63 119t-21.5 144zM52 357q1 -77 22 -142t61 -112t97 -73.5t129 -26.5t129 26.5t96.5 73.5t61 112t22.5 142
q-1 77 -22.5 142t-61 112t-96.5 73.5t-129 26.5t-129 -26.5t-97 -73.5t-61 -112t-22 -142zM514 922l-146 -144h-15l132 144h29z" />
    <glyph glyph-name="Ocircumflex" unicode="&#xd4;" horiz-adv-x="721" 
d="M32 357q0 76 21.5 144t63 119t103 81t141.5 30t141.5 -30t103 -81t63 -119t21.5 -144t-21.5 -144t-63 -119t-103 -81t-141.5 -30t-141.5 30t-103 81t-63 119t-21.5 144zM52 357q1 -77 22 -142t61 -112t97 -73.5t129 -26.5t129 26.5t96.5 73.5t61 112t22.5 142
q-1 77 -22.5 142t-61 112t-96.5 73.5t-129 26.5t-129 -26.5t-97 -73.5t-61 -112t-22 -142zM466 781l-103 123l-99 -123h-20l113 139h15l114 -139h-20z" />
    <glyph glyph-name="Otilde" unicode="&#xd5;" horiz-adv-x="721" 
d="M32 357q0 76 21.5 144t63 119t103 81t141.5 30t141.5 -30t103 -81t63 -119t21.5 -144t-21.5 -144t-63 -119t-103 -81t-141.5 -30t-141.5 30t-103 81t-63 119t-21.5 144zM52 357q1 -77 22 -142t61 -112t97 -73.5t129 -26.5t129 26.5t96.5 73.5t61 112t22.5 142
q-1 77 -22.5 142t-61 112t-96.5 73.5t-129 26.5t-129 -26.5t-97 -73.5t-61 -112t-22 -142zM233 805q1 15 6 29t14 25t22 18t26 7q17 0 33.5 -9t32.5 -20t31 -20t30 -9q19 0 31.5 12.5t17.5 42.5h20q-5 -37 -22.5 -56t-46.5 -19q-19 0 -35 9t-31 20t-30 20t-31 9
q-11 0 -20 -5.5t-15 -14.5t-9 -18.5t-4 -20.5h-20z" />
    <glyph glyph-name="Odieresis" unicode="&#xd6;" horiz-adv-x="721" 
d="M32 357q0 76 21.5 144t63 119t103 81t141.5 30t141.5 -30t103 -81t63 -119t21.5 -144t-21.5 -144t-63 -119t-103 -81t-141.5 -30t-141.5 30t-103 81t-63 119t-21.5 144zM52 357q1 -77 22 -142t61 -112t97 -73.5t129 -26.5t129 26.5t96.5 73.5t61 112t22.5 142
q-1 77 -22.5 142t-61 112t-96.5 73.5t-129 26.5t-129 -26.5t-97 -73.5t-61 -112t-22 -142zM431 804v81h20v-81h-20zM275 804v81h20v-81h-20z" />
    <glyph glyph-name="multiply" unicode="&#xd7;" horiz-adv-x="600" 
d="M96 443l14 13l189 -191l191 191l14 -13l-191 -190l191 -190l-14 -14l-191 191l-189 -191l-14 14l190 190z" />
    <glyph glyph-name="Oslash" unicode="&#xd8;" horiz-adv-x="721" 
d="M113 98q-40 51 -60.5 117.5t-20.5 141.5q0 76 21.5 144t63 119t103 81t141.5 30q75 0 133.5 -26.5t100.5 -72.5l59 65l15 -12l-61 -68q41 -51 61.5 -117.5t20.5 -142.5t-21.5 -144t-63 -119t-103 -81t-141.5 -30q-76 0 -134.5 26.5t-100.5 74.5l-71 -79l-15 12zM140 99
q39 -46 94.5 -71t126.5 -25q72 0 129 26.5t96.5 73.5t61 112t22.5 142q-1 74 -20 136t-56 108zM581 617q-40 45 -95 69.5t-125 24.5q-72 0 -129 -26.5t-97 -73.5t-61 -112t-22 -142q1 -74 20 -135.5t55 -107.5z" />
    <glyph glyph-name="Ugrave" unicode="&#xd9;" horiz-adv-x="632" 
d="M558 714h20v-448q0 -143 -67.5 -213t-194.5 -70t-194.5 70t-67.5 213v448h20v-448q0 -128 59.5 -195.5t182.5 -67.5t182.5 67.5t59.5 195.5v448zM171 922h29l125 -144h-15z" />
    <glyph glyph-name="Uacute" unicode="&#xda;" horiz-adv-x="632" 
d="M558 714h20v-448q0 -143 -67.5 -213t-194.5 -70t-194.5 70t-67.5 213v448h20v-448q0 -128 59.5 -195.5t182.5 -67.5t182.5 67.5t59.5 195.5v448zM468 922l-146 -144h-15l132 144h29z" />
    <glyph glyph-name="Ucircumflex" unicode="&#xdb;" horiz-adv-x="632" 
d="M558 714h20v-448q0 -143 -67.5 -213t-194.5 -70t-194.5 70t-67.5 213v448h20v-448q0 -128 59.5 -195.5t182.5 -67.5t182.5 67.5t59.5 195.5v448zM419 781l-103 123l-99 -123h-20l113 139h15l114 -139h-20z" />
    <glyph glyph-name="Udieresis" unicode="&#xdc;" horiz-adv-x="632" 
d="M558 714h20v-448q0 -143 -67.5 -213t-194.5 -70t-194.5 70t-67.5 213v448h20v-448q0 -128 59.5 -195.5t182.5 -67.5t182.5 67.5t59.5 195.5v448zM383 804v81h20v-81h-20zM227 804v81h20v-81h-20z" />
    <glyph glyph-name="Yacute" unicode="&#xdd;" horiz-adv-x="538" 
d="M544 714h24l-289 -413v-301h-20v301l-289 413h25l274 -392zM418 922l-146 -144h-15l132 144h29z" />
    <glyph glyph-name="Thorn" unicode="&#xde;" horiz-adv-x="574" 
d="M343 590q103 0 160 -49t57 -146q0 -47 -17 -83.5t-47 -61t-72 -37t-91 -12.5h-259v-201h-20v714h20v-124h269zM74 221h269q42 0 78 11.5t62.5 34t41.5 54.5t15 74q0 85 -49 130t-148 45h-269v-349z" />
    <glyph glyph-name="germandbls" unicode="&#xdf;" horiz-adv-x="481" 
d="M202 407q38 -1 73 6.5t61.5 25.5t42.5 48t16 74q0 34 -13 61t-35 45.5t-52 28.5t-64 10q-19 0 -46 -4.5t-51.5 -20.5t-41.5 -46t-17 -82v-553h-20v556q0 48 15.5 80.5t40.5 52.5t56.5 28.5t63.5 8.5q36 0 69 -11t58.5 -32.5t41 -52t15.5 -69.5q0 -62 -31.5 -106
t-95.5 -55v-2q87 -8 125.5 -58.5t38.5 -129.5q0 -48 -12.5 -88t-41.5 -68t-77 -42.5t-119 -11.5v20q51 -3 93 5t72.5 30t47.5 60t17 95q0 55 -17 89.5t-47.5 54t-73 26.5t-92.5 7v20z" />
    <glyph glyph-name="agrave" unicode="&#xe0;" horiz-adv-x="481" 
d="M54 355q2 36 15 67.5t37.5 54.5t60 36t83.5 13q34 0 64.5 -7t53.5 -24.5t37 -45.5t15 -70v-327q0 -15 6 -22t16 -9.5t21 -2t22 1.5v-20q-15 -1 -30 -1t-27 5t-20 15.5t-8 30.5v67h-2q-8 -25 -25.5 -48t-44 -41t-60.5 -29t-74 -11q-77 0 -124.5 35t-47.5 104q0 48 15.5 77
t40.5 45.5t57 23t64 8.5q53 3 91 5.5t62.5 10t36 23t11.5 44.5q0 23 -4 48t-19.5 46t-45.5 34.5t-81 13.5q-81 0 -126 -39.5t-50 -111.5h-20zM400 302h-2q-10 -15 -31 -22t-48 -10.5t-58 -5t-62 -3.5q-30 -2 -58.5 -8t-50.5 -20t-35 -39.5t-13 -66.5q0 -22 7.5 -43.5
t25.5 -38t46.5 -27t70.5 -10.5q50 0 89 17t65.5 44.5t40 63.5t13.5 74v95zM104 732h29l125 -144h-15z" />
    <glyph glyph-name="aacute" unicode="&#xe1;" horiz-adv-x="481" 
d="M54 355q2 36 15 67.5t37.5 54.5t60 36t83.5 13q34 0 64.5 -7t53.5 -24.5t37 -45.5t15 -70v-327q0 -15 6 -22t16 -9.5t21 -2t22 1.5v-20q-15 -1 -30 -1t-27 5t-20 15.5t-8 30.5v67h-2q-8 -25 -25.5 -48t-44 -41t-60.5 -29t-74 -11q-77 0 -124.5 35t-47.5 104q0 48 15.5 77
t40.5 45.5t57 23t64 8.5q53 3 91 5.5t62.5 10t36 23t11.5 44.5q0 23 -4 48t-19.5 46t-45.5 34.5t-81 13.5q-81 0 -126 -39.5t-50 -111.5h-20zM400 302h-2q-10 -15 -31 -22t-48 -10.5t-58 -5t-62 -3.5q-30 -2 -58.5 -8t-50.5 -20t-35 -39.5t-13 -66.5q0 -22 7.5 -43.5
t25.5 -38t46.5 -27t70.5 -10.5q50 0 89 17t65.5 44.5t40 63.5t13.5 74v95zM381 732l-146 -144h-15l132 144h29z" />
    <glyph glyph-name="acircumflex" unicode="&#xe2;" horiz-adv-x="481" 
d="M54 355q2 36 15 67.5t37.5 54.5t60 36t83.5 13q34 0 64.5 -7t53.5 -24.5t37 -45.5t15 -70v-327q0 -15 6 -22t16 -9.5t21 -2t22 1.5v-20q-15 -1 -30 -1t-27 5t-20 15.5t-8 30.5v67h-2q-8 -25 -25.5 -48t-44 -41t-60.5 -29t-74 -11q-77 0 -124.5 35t-47.5 104q0 48 15.5 77
t40.5 45.5t57 23t64 8.5q53 3 91 5.5t62.5 10t36 23t11.5 44.5q0 23 -4 48t-19.5 46t-45.5 34.5t-81 13.5q-81 0 -126 -39.5t-50 -111.5h-20zM400 302h-2q-10 -15 -31 -22t-48 -10.5t-58 -5t-62 -3.5q-30 -2 -58.5 -8t-50.5 -20t-35 -39.5t-13 -66.5q0 -22 7.5 -43.5
t25.5 -38t46.5 -27t70.5 -10.5q50 0 89 17t65.5 44.5t40 63.5t13.5 74v95zM346 591l-103 123l-99 -123h-20l113 139h15l114 -139h-20z" />
    <glyph glyph-name="atilde" unicode="&#xe3;" horiz-adv-x="481" 
d="M54 355q2 36 15 67.5t37.5 54.5t60 36t83.5 13q34 0 64.5 -7t53.5 -24.5t37 -45.5t15 -70v-327q0 -15 6 -22t16 -9.5t21 -2t22 1.5v-20q-15 -1 -30 -1t-27 5t-20 15.5t-8 30.5v67h-2q-8 -25 -25.5 -48t-44 -41t-60.5 -29t-74 -11q-77 0 -124.5 35t-47.5 104q0 48 15.5 77
t40.5 45.5t57 23t64 8.5q53 3 91 5.5t62.5 10t36 23t11.5 44.5q0 23 -4 48t-19.5 46t-45.5 34.5t-81 13.5q-81 0 -126 -39.5t-50 -111.5h-20zM400 302h-2q-10 -15 -31 -22t-48 -10.5t-58 -5t-62 -3.5q-30 -2 -58.5 -8t-50.5 -20t-35 -39.5t-13 -66.5q0 -22 7.5 -43.5
t25.5 -38t46.5 -27t70.5 -10.5q50 0 89 17t65.5 44.5t40 63.5t13.5 74v95zM107 615q1 15 6 29t14 25t22 18t26 7q17 0 33.5 -9t32.5 -20t31 -20t30 -9q19 0 31.5 12.5t17.5 42.5h20q-5 -37 -22.5 -56t-46.5 -19q-19 0 -35 9t-31 20t-30 20t-31 9q-11 0 -20 -5.5t-15 -14.5
t-9 -18.5t-4 -20.5h-20z" />
    <glyph glyph-name="adieresis" unicode="&#xe4;" horiz-adv-x="481" 
d="M54 355q2 36 15 67.5t37.5 54.5t60 36t83.5 13q34 0 64.5 -7t53.5 -24.5t37 -45.5t15 -70v-327q0 -15 6 -22t16 -9.5t21 -2t22 1.5v-20q-15 -1 -30 -1t-27 5t-20 15.5t-8 30.5v67h-2q-8 -25 -25.5 -48t-44 -41t-60.5 -29t-74 -11q-77 0 -124.5 35t-47.5 104q0 48 15.5 77
t40.5 45.5t57 23t64 8.5q53 3 91 5.5t62.5 10t36 23t11.5 44.5q0 23 -4 48t-19.5 46t-45.5 34.5t-81 13.5q-81 0 -126 -39.5t-50 -111.5h-20zM400 302h-2q-10 -15 -31 -22t-48 -10.5t-58 -5t-62 -3.5q-30 -2 -58.5 -8t-50.5 -20t-35 -39.5t-13 -66.5q0 -22 7.5 -43.5
t25.5 -38t46.5 -27t70.5 -10.5q50 0 89 17t65.5 44.5t40 63.5t13.5 74v95zM314 614v81h20v-81h-20zM158 614v81h20v-81h-20z" />
    <glyph glyph-name="aring" unicode="&#xe5;" horiz-adv-x="481" 
d="M54 355q2 36 15 67.5t37.5 54.5t60 36t83.5 13q34 0 64.5 -7t53.5 -24.5t37 -45.5t15 -70v-327q0 -15 6 -22t16 -9.5t21 -2t22 1.5v-20q-15 -1 -30 -1t-27 5t-20 15.5t-8 30.5v67h-2q-8 -25 -25.5 -48t-44 -41t-60.5 -29t-74 -11q-77 0 -124.5 35t-47.5 104q0 48 15.5 77
t40.5 45.5t57 23t64 8.5q53 3 91 5.5t62.5 10t36 23t11.5 44.5q0 23 -4 48t-19.5 46t-45.5 34.5t-81 13.5q-81 0 -126 -39.5t-50 -111.5h-20zM400 302h-2q-10 -15 -31 -22t-48 -10.5t-58 -5t-62 -3.5q-30 -2 -58.5 -8t-50.5 -20t-35 -39.5t-13 -66.5q0 -22 7.5 -43.5
t25.5 -38t46.5 -27t70.5 -10.5q50 0 89 17t65.5 44.5t40 63.5t13.5 74v95zM307 670q0 28 -20 48t-48 20t-48 -20t-20 -48t20 -48t48 -20t48 20t20 48zM327 670q0 -18 -7 -34t-19 -28t-28 -19t-34 -7t-34 7t-28 19t-19 28t-7 34t7 34t19 28t28 19t34 7t34 -7t28 -19t19 -28
t7 -34z" />
    <glyph glyph-name="ae" unicode="&#xe6;" horiz-adv-x="889" 
d="M64 355q2 36 15 67.5t37.5 54.5t60 36t83.5 13q34 0 64.5 -7.5t53.5 -24.5t37 -46t15 -72h2q10 32 28 59.5t44 47.5t59 31.5t74 11.5q58 0 100.5 -22.5t70 -60t39.5 -87t10 -103.5h-427q2 -51 13.5 -95.5t36 -78t62.5 -52.5t93 -19q38 0 72 11t60.5 32.5t44 53t22.5 73.5
h20q-4 -42 -22 -77t-46.5 -60t-67 -39t-83.5 -14q-83 -1 -137.5 43t-74.5 124h-2q-8 -39 -27.5 -70t-48.5 -52.5t-65 -33t-76 -11.5q-77 0 -124.5 35t-47.5 104q0 48 15.5 77t40.5 45.5t57 23t64 8.5q53 3 91 5.5t62.5 10t36 23t11.5 44.5q0 23 -4 48t-19.5 46t-45.5 34.5
t-81 13.5q-81 0 -126 -39.5t-50 -111.5h-20zM410 302h-2q-10 -15 -31 -22t-48 -10.5t-58 -5t-62 -3.5q-30 -2 -58.5 -8t-50.5 -20t-35 -39.5t-13 -66.5q0 -22 7.5 -43.5t25.5 -38t46.5 -27t70.5 -10.5q50 0 89 17t65.5 44.5t40 63.5t13.5 74v95zM837 273q0 48 -12.5 90.5
t-37 74t-62 50t-88.5 18.5q-47 0 -84 -16.5t-63 -47t-41 -73.5t-19 -96h407z" />
    <glyph glyph-name="ccedilla" unicode="&#xe7;" 
d="M179 -151q17 -8 34 -12.5t37 -4.5q14 0 28 4t23.5 12t14 17.5t4.5 21.5q0 13 -5 21t-12.5 13t-18 7t-17.5 2q-32 0 -54 -13l-15 10l51 61q-49 2 -88 20q-42 21 -71 56.5t-44 82t-15 99.5q0 56 14.5 106.5t44 89t74.5 61.5t107 23q36 0 69 -11t59 -32t43.5 -52.5
t22.5 -72.5h-20q-6 37 -22 65t-39 46.5t-52 27.5t-61 9q-62 0 -104 -23.5t-67.5 -61t-37 -84t-11.5 -91.5q0 -47 13.5 -90t39.5 -76t65 -52.5t90 -19.5q38 0 71 11.5t58.5 33.5t41.5 52.5t19 69.5h20q-4 -43 -21 -77.5t-44.5 -59t-64.5 -37.5q-32 -11 -69 -13l-36 -44
q7 3 14.5 4.5t18.5 1.5q33 0 54 -14.5t22 -45.5q0 -15 -7 -31t-19.5 -26t-30 -15.5t-36.5 -5.5q-24 0 -45 5.5t-35 12.5z" />
    <glyph glyph-name="egrave" unicode="&#xe8;" 
d="M45 253q1 -52 12 -96.5t35.5 -77.5t62.5 -52t93 -19q80 0 134 43t67 127h20q-5 -44 -23.5 -79.5t-47.5 -60t-66.5 -37.5t-81.5 -13q-60 -1 -102.5 19.5t-69.5 57t-40 86t-13 106.5q0 64 19 114t50 84.5t71.5 52.5t84.5 18q60 0 103.5 -23t71 -61t40 -87t10.5 -102h-430z
M455 273q0 47 -13 89.5t-38.5 74.5t-63.5 50.5t-88 18.5q-42 0 -78.5 -16t-64 -46.5t-44.5 -73.5t-20 -97h410zM109 732h29l125 -144h-15z" />
    <glyph glyph-name="eacute" unicode="&#xe9;" 
d="M45 253q1 -52 12 -96.5t35.5 -77.5t62.5 -52t93 -19q80 0 134 43t67 127h20q-5 -44 -23.5 -79.5t-47.5 -60t-66.5 -37.5t-81.5 -13q-60 -1 -102.5 19.5t-69.5 57t-40 86t-13 106.5q0 64 19 114t50 84.5t71.5 52.5t84.5 18q60 0 103.5 -23t71 -61t40 -87t10.5 -102h-430z
M455 273q0 47 -13 89.5t-38.5 74.5t-63.5 50.5t-88 18.5q-42 0 -78.5 -16t-64 -46.5t-44.5 -73.5t-20 -97h410zM401 732l-146 -144h-15l132 144h29z" />
    <glyph glyph-name="ecircumflex" unicode="&#xea;" 
d="M45 253q1 -52 12 -96.5t35.5 -77.5t62.5 -52t93 -19q80 0 134 43t67 127h20q-5 -44 -23.5 -79.5t-47.5 -60t-66.5 -37.5t-81.5 -13q-60 -1 -102.5 19.5t-69.5 57t-40 86t-13 106.5q0 64 19 114t50 84.5t71.5 52.5t84.5 18q60 0 103.5 -23t71 -61t40 -87t10.5 -102h-430z
M455 273q0 47 -13 89.5t-38.5 74.5t-63.5 50.5t-88 18.5q-42 0 -78.5 -16t-64 -46.5t-44.5 -73.5t-20 -97h410zM357 591l-103 123l-99 -123h-20l113 139h15l114 -139h-20z" />
    <glyph glyph-name="edieresis" unicode="&#xeb;" 
d="M45 253q1 -52 12 -96.5t35.5 -77.5t62.5 -52t93 -19q80 0 134 43t67 127h20q-5 -44 -23.5 -79.5t-47.5 -60t-66.5 -37.5t-81.5 -13q-60 -1 -102.5 19.5t-69.5 57t-40 86t-13 106.5q0 64 19 114t50 84.5t71.5 52.5t84.5 18q60 0 103.5 -23t71 -61t40 -87t10.5 -102h-430z
M455 273q0 47 -13 89.5t-38.5 74.5t-63.5 50.5t-88 18.5q-42 0 -78.5 -16t-64 -46.5t-44.5 -73.5t-20 -97h410zM322 614v81h20v-81h-20zM166 614v81h20v-81h-20z" />
    <glyph glyph-name="igrave" unicode="&#xec;" horiz-adv-x="130" 
d="M55 0v514h20v-514h-20zM-78 732h29l125 -144h-15z" />
    <glyph glyph-name="iacute" unicode="&#xed;" horiz-adv-x="130" 
d="M55 0v514h20v-514h-20zM215 732l-146 -144h-15l132 144h29z" />
    <glyph glyph-name="icircumflex" unicode="&#xee;" horiz-adv-x="130" 
d="M55 0v514h20v-514h-20zM166 591l-103 123l-99 -123h-20l113 139h15l114 -139h-20z" />
    <glyph glyph-name="idieresis" unicode="&#xef;" horiz-adv-x="130" 
d="M55 0v514h20v-514h-20zM133 614v81h20v-81h-20zM-23 614v81h20v-81h-20z" />
    <glyph glyph-name="eth" unicode="&#xf0;" horiz-adv-x="519" 
d="M48 248q0 -47 13.5 -90t40.5 -76t66.5 -53t91.5 -20q51 0 90.5 20t66.5 53t40.5 76t13.5 90q0 46 -13.5 89t-40.5 76.5t-66.5 53.5t-90.5 20q-52 0 -91.5 -20t-66.5 -53.5t-40.5 -76.5t-13.5 -89zM249 648q-18 14 -41 29.5t-52 30.5l16 14q29 -15 53.5 -32t42.5 -32
l123 68l15 -16l-120 -67q53 -49 92 -96.5t64 -95.5t37 -98.5t12 -104.5q0 -51 -15 -98t-44.5 -82.5t-72.5 -57t-100 -21.5q-56 0 -99.5 21.5t-72.5 57t-44 82.5t-15 98t15 97.5t44.5 82.5t72.5 57.5t100 21.5q46 0 89.5 -17t72.5 -55h4q-15 30 -35.5 59t-42.5 55.5t-43.5 48
t-39.5 36.5l-122 -68l-15 15z" />
    <glyph glyph-name="ntilde" unicode="&#xf1;" 
d="M55 514h20v-127h2q7 30 22.5 55t39 44t54.5 29.5t69 10.5q40 0 73.5 -12t58 -35.5t38 -58t13.5 -79.5v-341h-20v338q0 45 -13 76.5t-35.5 52t-52 30t-62.5 9.5q-46 0 -81 -17.5t-58.5 -47t-35.5 -68.5t-12 -82v-291h-20v514zM114 615q1 15 6 29t14 25t22 18t26 7
q17 0 33.5 -9t32.5 -20t31 -20t30 -9q19 0 31.5 12.5t17.5 42.5h20q-5 -37 -22.5 -56t-46.5 -19q-19 0 -35 9t-31 20t-30 20t-31 9q-11 0 -20 -5.5t-15 -14.5t-9 -18.5t-4 -20.5h-20z" />
    <glyph glyph-name="ograve" unicode="&#xf2;" horiz-adv-x="519" 
d="M48 257q0 -49 13.5 -94t40.5 -79.5t66.5 -55t91.5 -20.5q51 0 90.5 20.5t66.5 55t40.5 79.5t13.5 94q0 48 -13.5 93t-40.5 79.5t-66.5 55.5t-90.5 21q-52 0 -91.5 -21t-66.5 -55.5t-40.5 -79.5t-13.5 -93zM28 257q0 52 15 101t44.5 86t72.5 59.5t100 22.5q56 0 99 -22.5
t72.5 -59.5t44.5 -86t15 -101q0 -53 -15 -101.5t-44.5 -86t-72.5 -59.5t-100 -22q-56 0 -99.5 22t-72.5 59.5t-44 86t-15 101.5zM115 732h29l125 -144h-15z" />
    <glyph glyph-name="oacute" unicode="&#xf3;" horiz-adv-x="519" 
d="M48 257q0 -49 13.5 -94t40.5 -79.5t66.5 -55t91.5 -20.5q51 0 90.5 20.5t66.5 55t40.5 79.5t13.5 94q0 48 -13.5 93t-40.5 79.5t-66.5 55.5t-90.5 21q-52 0 -91.5 -21t-66.5 -55.5t-40.5 -79.5t-13.5 -93zM28 257q0 52 15 101t44.5 86t72.5 59.5t100 22.5q56 0 99 -22.5
t72.5 -59.5t44.5 -86t15 -101q0 -53 -15 -101.5t-44.5 -86t-72.5 -59.5t-100 -22q-56 0 -99.5 22t-72.5 59.5t-44 86t-15 101.5zM410 732l-146 -144h-15l132 144h29z" />
    <glyph glyph-name="ocircumflex" unicode="&#xf4;" horiz-adv-x="519" 
d="M48 257q0 -49 13.5 -94t40.5 -79.5t66.5 -55t91.5 -20.5q51 0 90.5 20.5t66.5 55t40.5 79.5t13.5 94q0 48 -13.5 93t-40.5 79.5t-66.5 55.5t-90.5 21q-52 0 -91.5 -21t-66.5 -55.5t-40.5 -79.5t-13.5 -93zM28 257q0 52 15 101t44.5 86t72.5 59.5t100 22.5q56 0 99 -22.5
t72.5 -59.5t44.5 -86t15 -101q0 -53 -15 -101.5t-44.5 -86t-72.5 -59.5t-100 -22q-56 0 -99.5 22t-72.5 59.5t-44 86t-15 101.5zM361 591l-103 123l-99 -123h-20l113 139h15l114 -139h-20z" />
    <glyph glyph-name="otilde" unicode="&#xf5;" horiz-adv-x="519" 
d="M48 257q0 -49 13.5 -94t40.5 -79.5t66.5 -55t91.5 -20.5q51 0 90.5 20.5t66.5 55t40.5 79.5t13.5 94q0 48 -13.5 93t-40.5 79.5t-66.5 55.5t-90.5 21q-52 0 -91.5 -21t-66.5 -55.5t-40.5 -79.5t-13.5 -93zM28 257q0 52 15 101t44.5 86t72.5 59.5t100 22.5q56 0 99 -22.5
t72.5 -59.5t44.5 -86t15 -101q0 -53 -15 -101.5t-44.5 -86t-72.5 -59.5t-100 -22q-56 0 -99.5 22t-72.5 59.5t-44 86t-15 101.5zM128 615q1 15 6 29t14 25t22 18t26 7q17 0 33.5 -9t32.5 -20t31 -20t30 -9q19 0 31.5 12.5t17.5 42.5h20q-5 -37 -22.5 -56t-46.5 -19
q-19 0 -35 9t-31 20t-30 20t-31 9q-11 0 -20 -5.5t-15 -14.5t-9 -18.5t-4 -20.5h-20z" />
    <glyph glyph-name="odieresis" unicode="&#xf6;" horiz-adv-x="519" 
d="M48 257q0 -49 13.5 -94t40.5 -79.5t66.5 -55t91.5 -20.5q51 0 90.5 20.5t66.5 55t40.5 79.5t13.5 94q0 48 -13.5 93t-40.5 79.5t-66.5 55.5t-90.5 21q-52 0 -91.5 -21t-66.5 -55.5t-40.5 -79.5t-13.5 -93zM28 257q0 52 15 101t44.5 86t72.5 59.5t100 22.5q56 0 99 -22.5
t72.5 -59.5t44.5 -86t15 -101q0 -53 -15 -101.5t-44.5 -86t-72.5 -59.5t-100 -22q-56 0 -99.5 22t-72.5 59.5t-44 86t-15 101.5zM328 614v81h20v-81h-20zM172 614v81h20v-81h-20z" />
    <glyph glyph-name="divide" unicode="&#xf7;" horiz-adv-x="600" 
d="M300 0q-22 0 -31.5 12t-9.5 29q0 18 12 29.5t29 11.5t29 -12t12 -29t-9 -29t-32 -12zM300 424q-22 0 -31.5 12t-9.5 29q0 18 12 29.5t29 11.5t29 -12t12 -29t-9 -29t-32 -12zM48 243v20h504v-20h-504z" />
    <glyph glyph-name="oslash" unicode="&#xf8;" horiz-adv-x="519" 
d="M472 496l14 -14l-47 -49q26 -35 39 -80.5t13 -95.5q0 -53 -15 -101.5t-44.5 -86t-72.5 -59.5t-100 -22q-56 0 -98.5 21.5t-71.5 57.5l-57 -59l-14 14l60 62q-25 35 -37.5 80t-12.5 93q0 52 15 101t44.5 86t72.5 59.5t100 22.5q54 0 96 -20.5t71 -56.5zM104 83
q26 -35 65 -55t91 -20q51 0 90.5 20.5t66.5 55t40.5 79.5t13.5 94q0 45 -12 86t-35 75zM412 434q-26 33 -63.5 52.5t-88.5 19.5q-52 0 -91.5 -21t-66.5 -55.5t-40.5 -79.5t-13.5 -93q0 -44 11 -84.5t33 -73.5z" />
    <glyph glyph-name="ugrave" unicode="&#xf9;" 
d="M445 0h-20v127h-2q-7 -30 -22.5 -55t-39 -44t-54.5 -29.5t-69 -10.5q-40 0 -73.5 12t-58 35.5t-38 58t-13.5 79.5v341h20v-338q0 -45 13 -76.5t35.5 -52t52 -30t62.5 -9.5q46 0 81 17.5t58.5 47t35.5 68.5t12 82v291h20v-514zM103 732h29l125 -144h-15z" />
    <glyph glyph-name="uacute" unicode="&#xfa;" 
d="M445 0h-20v127h-2q-7 -30 -22.5 -55t-39 -44t-54.5 -29.5t-69 -10.5q-40 0 -73.5 12t-58 35.5t-38 58t-13.5 79.5v341h20v-338q0 -45 13 -76.5t35.5 -52t52 -30t62.5 -9.5q46 0 81 17.5t58.5 47t35.5 68.5t12 82v291h20v-514zM399 732l-146 -144h-15l132 144h29z" />
    <glyph glyph-name="ucircumflex" unicode="&#xfb;" 
d="M445 0h-20v127h-2q-7 -30 -22.5 -55t-39 -44t-54.5 -29.5t-69 -10.5q-40 0 -73.5 12t-58 35.5t-38 58t-13.5 79.5v341h20v-338q0 -45 13 -76.5t35.5 -52t52 -30t62.5 -9.5q46 0 81 17.5t58.5 47t35.5 68.5t12 82v291h20v-514zM349 591l-103 123l-99 -123h-20l113 139h15
l114 -139h-20z" />
    <glyph glyph-name="udieresis" unicode="&#xfc;" 
d="M445 0h-20v127h-2q-7 -30 -22.5 -55t-39 -44t-54.5 -29.5t-69 -10.5q-40 0 -73.5 12t-58 35.5t-38 58t-13.5 79.5v341h20v-338q0 -45 13 -76.5t35.5 -52t52 -30t62.5 -9.5q46 0 81 17.5t58.5 47t35.5 68.5t12 82v291h20v-514zM316 614v81h20v-81h-20zM160 614v81h20v-81
h-20z" />
    <glyph glyph-name="yacute" unicode="&#xfd;" horiz-adv-x="407" 
d="M398 514h21l-237 -619q-10 -26 -24 -40.5t-31 -21.5t-37.5 -8.5t-43.5 -1.5v20q25 0 44 1.5t32.5 8t24 20t19.5 36.5l37 96l-215 509h22l204 -487zM366 732l-146 -144h-15l132 144h29z" />
    <glyph glyph-name="thorn" unicode="&#xfe;" horiz-adv-x="537" 
d="M75 -177h-20v891h20v-344h2q10 34 27.5 62.5t43 49.5t59.5 32.5t76 11.5q54 0 95 -20t68.5 -56t41.5 -85t14 -107q0 -54 -12.5 -103t-39.5 -86t-68.5 -59t-98.5 -22q-79 0 -133.5 43t-72.5 113h-2v-321zM482 258q0 49 -11.5 94t-35.5 79.5t-61.5 54.5t-90.5 20t-92 -20
t-64.5 -54t-38.5 -79t-13 -95q0 -60 15.5 -106.5t43 -78.5t66 -48.5t83.5 -16.5q57 0 95 22.5t61.5 58t33 80t9.5 89.5z" />
    <glyph glyph-name="ydieresis" unicode="&#xff;" horiz-adv-x="407" 
d="M398 514h21l-237 -619q-10 -26 -24 -40.5t-31 -21.5t-37.5 -8.5t-43.5 -1.5v20q25 0 44 1.5t32.5 8t24 20t19.5 36.5l37 96l-215 509h22l204 -487zM282 614v81h20v-81h-20zM126 614v81h20v-81h-20z" />
    <glyph glyph-name="dotlessj" horiz-adv-x="130" 
d="M75 -75q0 -36 -8.5 -56t-24 -30t-38.5 -13t-53 -3v20q29 0 49 2t32 10.5t17.5 26.5t5.5 50v582h20v-589z" />
    <glyph glyph-name="grave.cap" horiz-adv-x="130" 
d="M-38 922h29l125 -144h-15z" />
    <glyph glyph-name="acute.cap" horiz-adv-x="130" 
d="M171 922l-146 -144h-15l132 144h29z" />
    <glyph glyph-name="circumflex.cap" horiz-adv-x="130" 
d="M166 778l-103 123l-99 -123h-20l113 139h15l114 -139h-20z" />
    <glyph glyph-name="caron.cap" horiz-adv-x="130" 
d="M-36 917l103 -123l99 123h20l-113 -139h-15l-114 139h20z" />
    <glyph glyph-name="caron.alt" horiz-adv-x="130" 
d="M130 714l-65 -144h-15l51 144h29z" />
    <glyph glyph-name="tilde.cap" horiz-adv-x="130" 
d="M-67 805q1 15 6.5 29t14 25t20.5 18t27 7q17 0 33.5 -9t32.5 -20t31 -20t30 -9q19 0 31.5 12.5t17.5 42.5h20q-11 -75 -69 -75q-19 0 -35 9t-31 20t-30 20t-31 9q-23 0 -34.5 -19.5t-13.5 -39.5h-20z" />
    <glyph glyph-name="dieresis.cap" horiz-adv-x="130" 
d="M133 804v81h20v-81h-20zM-23 804v81h20v-81h-20z" />
    <glyph glyph-name="macron.cap" horiz-adv-x="130" 
d="M181 830h-232v20h232v-20z" />
    <glyph glyph-name="breve.cap" horiz-adv-x="130" 
d="M-38 904q5 -39 32.5 -63t67.5 -24q43 0 72 21t34 66h20q-6 -51 -40.5 -79t-85.5 -28q-49 0 -81.5 29.5t-38.5 77.5h20z" />
    <glyph glyph-name="ring.cap" horiz-adv-x="130" 
d="M133 850q0 28 -20 48t-48 20t-48 -20t-20 -48t20 -48t48 -20t48 20t20 48zM153 850q0 -18 -7 -34t-19 -28t-28 -19t-34 -7t-34 7t-28 19t-19 28t-7 34t7 34t19 28t28 19t34 7t34 -7t28 -19t19 -28t7 -34z" />
    <glyph glyph-name="hungarumlaut.cap" horiz-adv-x="130" 
d="M266 922l-146 -144h-15l132 144h29zM116 922l-146 -144h-15l132 144h29z" />
    <glyph glyph-name="dotaccent.cap" horiz-adv-x="130" 
d="M75 885v-81h-20v81h20z" />
    <glyph glyph-name="commaaccent" horiz-adv-x="278" 
d="M149 -50v-78q0 -26 -13.5 -42t-44.5 -19v16q24 5 31 18.5t7 32.5v72h20z" />
    <glyph glyph-name="commaaccent.alt" horiz-adv-x="278" 
d="M149 -50v-78q0 -26 -13.5 -42t-44.5 -19v16q24 5 31 18.5t7 32.5v72h20z" />
    <glyph glyph-name="commaaccenttwo" horiz-adv-x="278" 
d="M119 616v78q0 26 13.5 42t44.5 19v-16q-24 -5 -31 -18.5t-7 -32.5v-72h-20z" />
    <glyph glyph-name="carontwo" horiz-adv-x="130" 
d="M130 714l-65 -144h-15l51 144h29z" />
    <glyph glyph-name="Amacron" unicode="&#x100;" horiz-adv-x="575" 
d="M106 235l-95 -235h-23l290 714h26l282 -714h-22l-94 235h-364zM462 255l-170 439h-2l-176 -439h348zM407 830h-232v20h232v-20z" />
    <glyph glyph-name="amacron" unicode="&#x101;" horiz-adv-x="481" 
d="M54 355q2 36 15 67.5t37.5 54.5t60 36t83.5 13q34 0 64.5 -7t53.5 -24.5t37 -45.5t15 -70v-327q0 -15 6 -22t16 -9.5t21 -2t22 1.5v-20q-15 -1 -30 -1t-27 5t-20 15.5t-8 30.5v67h-2q-8 -25 -25.5 -48t-44 -41t-60.5 -29t-74 -11q-77 0 -124.5 35t-47.5 104q0 48 15.5 77
t40.5 45.5t57 23t64 8.5q53 3 91 5.5t62.5 10t36 23t11.5 44.5q0 23 -4 48t-19.5 46t-45.5 34.5t-81 13.5q-81 0 -126 -39.5t-50 -111.5h-20zM400 302h-2q-10 -15 -31 -22t-48 -10.5t-58 -5t-62 -3.5q-30 -2 -58.5 -8t-50.5 -20t-35 -39.5t-13 -66.5q0 -22 7.5 -43.5
t25.5 -38t46.5 -27t70.5 -10.5q50 0 89 17t65.5 44.5t40 63.5t13.5 74v95zM361 640h-232v20h232v-20z" />
    <glyph glyph-name="Abreve" unicode="&#x102;" horiz-adv-x="575" 
d="M106 235l-95 -235h-23l290 714h26l282 -714h-22l-94 235h-364zM462 255l-170 439h-2l-176 -439h348zM188 904q5 -39 32.5 -63t67.5 -24q43 0 72 21t34 66h20q-6 -51 -40.5 -79t-85.5 -28q-49 0 -81.5 29.5t-38.5 77.5h20z" />
    <glyph glyph-name="abreve" unicode="&#x103;" horiz-adv-x="481" 
d="M54 355q2 36 15 67.5t37.5 54.5t60 36t83.5 13q34 0 64.5 -7t53.5 -24.5t37 -45.5t15 -70v-327q0 -15 6 -22t16 -9.5t21 -2t22 1.5v-20q-15 -1 -30 -1t-27 5t-20 15.5t-8 30.5v67h-2q-8 -25 -25.5 -48t-44 -41t-60.5 -29t-74 -11q-77 0 -124.5 35t-47.5 104q0 48 15.5 77
t40.5 45.5t57 23t64 8.5q53 3 91 5.5t62.5 10t36 23t11.5 44.5q0 23 -4 48t-19.5 46t-45.5 34.5t-81 13.5q-81 0 -126 -39.5t-50 -111.5h-20zM400 302h-2q-10 -15 -31 -22t-48 -10.5t-58 -5t-62 -3.5q-30 -2 -58.5 -8t-50.5 -20t-35 -39.5t-13 -66.5q0 -22 7.5 -43.5
t25.5 -38t46.5 -27t70.5 -10.5q50 0 89 17t65.5 44.5t40 63.5t13.5 74v95zM139 714q5 -39 32.5 -63t67.5 -24q43 0 72 21t34 66h20q-6 -51 -40.5 -79t-85.5 -28q-49 0 -81.5 29.5t-38.5 77.5h20z" />
    <glyph glyph-name="Aogonek" unicode="&#x104;" horiz-adv-x="575" 
d="M106 235l-95 -235h-23l290 714h26l282 -714q-53 -44 -75 -71t-22 -52q0 -19 13.5 -32t37.5 -13q28 0 46.5 10.5t28.5 21.5l17 -12q-21 -22 -42.5 -31t-49.5 -9q-37 0 -56 18t-19 45q0 19 9 36t22.5 32t31 29.5t36.5 27.5l-94 235h-364zM462 255l-170 439h-2l-176 -439
h348z" />
    <glyph glyph-name="aogonek" unicode="&#x105;" horiz-adv-x="481" 
d="M54 355q2 36 15 67.5t37.5 54.5t60 36t83.5 13q34 0 64.5 -7t53.5 -24.5t37 -45.5t15 -70v-327q0 -15 6 -22t16 -9.5t21 -2t22 1.5v-20q-15 -1 -30 -1q-7 0 -13 1q-56 -44 -78 -71t-22 -52q0 -19 13.5 -32t37.5 -13q28 0 46.5 10.5t28.5 21.5l17 -12q-21 -22 -42.5 -31
t-49.5 -9q-37 0 -56 18t-19 45q0 19 9 36.5t22.5 32.5t30.5 30q16 14 43 32q-9 5 -15 13q-8 11 -8 31v67h-2q-8 -25 -25.5 -48t-44 -41t-60.5 -29t-74 -11q-77 0 -124.5 35t-47.5 104q0 48 15.5 77t40.5 45.5t57 23t64 8.5q53 3 91 5.5t62.5 10t36 23t11.5 44.5q0 23 -4 48
t-19.5 46t-45.5 34.5t-81 13.5q-81 0 -126 -39.5t-50 -111.5h-20zM400 302h-2q-10 -15 -31 -22t-48 -10.5t-58 -5t-62 -3.5q-30 -2 -58.5 -8t-50.5 -20t-35 -39.5t-13 -66.5q0 -22 7.5 -43.5t25.5 -38t46.5 -27t70.5 -10.5q50 0 89 17t65.5 44.5t40 63.5t13.5 74v95z" />
    <glyph glyph-name="Cacute" unicode="&#x106;" horiz-adv-x="685" 
d="M662 280q-9 -65 -34 -119.5t-64.5 -94t-94 -61.5t-121.5 -22q-71 0 -130.5 27.5t-102.5 76.5t-66.5 116.5t-23.5 147.5q0 65 18.5 132.5t58.5 122.5t104 90t155 35q71 0 124 -23.5t88.5 -59t53.5 -75.5t19 -73h-20q-3 39 -23 76.5t-54.5 67.5t-82 48.5t-105.5 18.5
q-59 0 -105 -16.5t-81 -44t-60 -64t-40.5 -76.5t-22.5 -81t-7 -78q0 -68 20 -131t59 -111t95.5 -77t128.5 -29q64 0 115 21t88 58t60 88t31 110h20zM505 922l-146 -144h-15l132 144h29z" />
    <glyph glyph-name="cacute" unicode="&#x107;" 
d="M469 175q-4 -43 -21 -77.5t-44.5 -59t-64.5 -37.5t-80 -13q-55 0 -97.5 20.5t-71.5 56t-44 82t-15 99.5q0 56 14.5 106.5t44 89t74.5 61.5t107 23q36 0 69 -11t59 -32t43.5 -52.5t22.5 -72.5h-20q-6 37 -22 65t-39 46.5t-52 27.5t-61 9q-62 0 -104 -23.5t-67.5 -61
t-37 -84t-11.5 -91.5q0 -47 13.5 -90t39.5 -76t65 -52.5t90 -19.5q38 0 71 11.5t58.5 33.5t41.5 52.5t19 69.5h20zM409 732l-146 -144h-15l132 144h29z" />
    <glyph glyph-name="Ccircumflex" unicode="&#x108;" horiz-adv-x="685" 
d="M662 280q-9 -65 -34 -119.5t-64.5 -94t-94 -61.5t-121.5 -22q-71 0 -130.5 27.5t-102.5 76.5t-66.5 116.5t-23.5 147.5q0 65 18.5 132.5t58.5 122.5t104 90t155 35q71 0 124 -23.5t88.5 -59t53.5 -75.5t19 -73h-20q-3 39 -23 76.5t-54.5 67.5t-82 48.5t-105.5 18.5
q-59 0 -105 -16.5t-81 -44t-60 -64t-40.5 -76.5t-22.5 -81t-7 -78q0 -68 20 -131t59 -111t95.5 -77t128.5 -29q64 0 115 21t88 58t60 88t31 110h20zM456 781l-103 123l-99 -123h-20l113 139h15l114 -139h-20z" />
    <glyph glyph-name="ccircumflex" unicode="&#x109;" 
d="M469 175q-4 -43 -21 -77.5t-44.5 -59t-64.5 -37.5t-80 -13q-55 0 -97.5 20.5t-71.5 56t-44 82t-15 99.5q0 56 14.5 106.5t44 89t74.5 61.5t107 23q36 0 69 -11t59 -32t43.5 -52.5t22.5 -72.5h-20q-6 37 -22 65t-39 46.5t-52 27.5t-61 9q-62 0 -104 -23.5t-67.5 -61
t-37 -84t-11.5 -91.5q0 -47 13.5 -90t39.5 -76t65 -52.5t90 -19.5q38 0 71 11.5t58.5 33.5t41.5 52.5t19 69.5h20zM366 591l-103 123l-99 -123h-20l113 139h15l114 -139h-20z" />
    <glyph glyph-name="Cdotaccent" unicode="&#x10a;" horiz-adv-x="685" 
d="M662 280q-9 -65 -34 -119.5t-64.5 -94t-94 -61.5t-121.5 -22q-71 0 -130.5 27.5t-102.5 76.5t-66.5 116.5t-23.5 147.5q0 65 18.5 132.5t58.5 122.5t104 90t155 35q71 0 124 -23.5t88.5 -59t53.5 -75.5t19 -73h-20q-3 39 -23 76.5t-54.5 67.5t-82 48.5t-105.5 18.5
q-59 0 -105 -16.5t-81 -44t-60 -64t-40.5 -76.5t-22.5 -81t-7 -78q0 -68 20 -131t59 -111t95.5 -77t128.5 -29q64 0 115 21t88 58t60 88t31 110h20zM364 885v-81h-20v81h20z" />
    <glyph glyph-name="cdotaccent" unicode="&#x10b;" 
d="M469 175q-4 -43 -21 -77.5t-44.5 -59t-64.5 -37.5t-80 -13q-55 0 -97.5 20.5t-71.5 56t-44 82t-15 99.5q0 56 14.5 106.5t44 89t74.5 61.5t107 23q36 0 69 -11t59 -32t43.5 -52.5t22.5 -72.5h-20q-6 37 -22 65t-39 46.5t-52 27.5t-61 9q-62 0 -104 -23.5t-67.5 -61
t-37 -84t-11.5 -91.5q0 -47 13.5 -90t39.5 -76t65 -52.5t90 -19.5q38 0 71 11.5t58.5 33.5t41.5 52.5t19 69.5h20zM277 695v-81h-20v81h20z" />
    <glyph glyph-name="Ccaron" unicode="&#x10c;" horiz-adv-x="685" 
d="M662 280q-9 -65 -34 -119.5t-64.5 -94t-94 -61.5t-121.5 -22q-71 0 -130.5 27.5t-102.5 76.5t-66.5 116.5t-23.5 147.5q0 65 18.5 132.5t58.5 122.5t104 90t155 35q71 0 124 -23.5t88.5 -59t53.5 -75.5t19 -73h-20q-3 39 -23 76.5t-54.5 67.5t-82 48.5t-105.5 18.5
q-59 0 -105 -16.5t-81 -44t-60 -64t-40.5 -76.5t-22.5 -81t-7 -78q0 -68 20 -131t59 -111t95.5 -77t128.5 -29q64 0 115 21t88 58t60 88t31 110h20zM254 920l103 -123l99 123h20l-113 -139h-15l-114 139h20z" />
    <glyph glyph-name="ccaron" unicode="&#x10d;" 
d="M469 175q-4 -43 -21 -77.5t-44.5 -59t-64.5 -37.5t-80 -13q-55 0 -97.5 20.5t-71.5 56t-44 82t-15 99.5q0 56 14.5 106.5t44 89t74.5 61.5t107 23q36 0 69 -11t59 -32t43.5 -52.5t22.5 -72.5h-20q-6 37 -22 65t-39 46.5t-52 27.5t-61 9q-62 0 -104 -23.5t-67.5 -61
t-37 -84t-11.5 -91.5q0 -47 13.5 -90t39.5 -76t65 -52.5t90 -19.5q38 0 71 11.5t58.5 33.5t41.5 52.5t19 69.5h20zM157 730l103 -123l99 123h20l-113 -139h-15l-114 139h20z" />
    <glyph glyph-name="Dcaron" unicode="&#x10e;" horiz-adv-x="648" 
d="M74 20h204q63 0 119.5 20.5t99 62t67 105t24.5 149.5q0 100 -25 165t-66 103.5t-92.5 53.5t-105.5 15h-225v-674zM54 714h250q53 0 107.5 -16.5t98 -57t71 -109.5t27.5 -174q0 -96 -28 -164t-75 -110.5t-107.5 -62.5t-124.5 -20h-219v714zM164 920l103 -123l99 123h20
l-113 -139h-15l-114 139h20z" />
    <glyph glyph-name="dcaron" unicode="&#x10f;" horiz-adv-x="589" 
d="M455 714h20v-714h-20v144h-2q-10 -34 -28.5 -62.5t-45 -49.5t-60 -32.5t-72.5 -11.5q-51 0 -91.5 20t-69 56t-43.5 85t-15 107q0 54 14 103t42 86t69 59t94 22q82 0 135 -43t71 -113h2v344zM455 256q0 60 -15 106.5t-42 78.5t-65.5 48.5t-85.5 16.5q-53 0 -90.5 -22.5
t-61.5 -58t-35.5 -80t-11.5 -89.5q0 -50 12.5 -94.5t37 -79t62 -54.5t87.5 -20q49 0 88 20t65.5 54t40.5 79t14 95zM605 714l-65 -144h-15l51 144h29z" />
    <glyph glyph-name="Dcroat" unicode="&#x110;" horiz-adv-x="648" 
d="M74 362v-342h204q63 0 119.5 20.5t99 62t67 105t24.5 149.5q0 100 -25 165t-66 103.5t-92.5 53.5t-105.5 15h-225v-312h297v-20h-297zM-10 362v20h64v332h250q53 0 107.5 -16.5t98 -57t71 -109.5t27.5 -174q0 -96 -28 -164t-75 -110.5t-107.5 -62.5t-124.5 -20h-219v362
h-64z" />
    <glyph glyph-name="dcroat" unicode="&#x111;" horiz-adv-x="547" 
d="M455 714h20v-81h72v-20h-72v-613h-20v144h-2q-10 -34 -28.5 -62.5t-45 -49.5t-60 -32.5t-72.5 -11.5q-51 0 -91.5 20t-69 56t-43.5 85t-15 107q0 54 14 103t42 86t69 59t94 22q82 0 135 -43t71 -113h2v243h-179v20h179v81zM455 256q0 60 -15 106.5t-42 78.5t-65.5 48.5
t-85.5 16.5q-53 0 -90.5 -22.5t-61.5 -58t-35.5 -80t-11.5 -89.5q0 -50 12.5 -94.5t37 -79t62 -54.5t87.5 -20q49 0 88 20t65.5 54t40.5 79t14 95z" />
    <glyph glyph-name="Emacron" unicode="&#x112;" horiz-adv-x="537" 
d="M74 20h458v-20h-478v714h474v-20h-454v-312h427v-20h-427v-342zM403 830h-232v20h232v-20z" />
    <glyph glyph-name="emacron" unicode="&#x113;" 
d="M45 253q1 -52 12 -96.5t35.5 -77.5t62.5 -52t93 -19q80 0 134 43t67 127h20q-5 -44 -23.5 -79.5t-47.5 -60t-66.5 -37.5t-81.5 -13q-60 -1 -102.5 19.5t-69.5 57t-40 86t-13 106.5q0 64 19 114t50 84.5t71.5 52.5t84.5 18q60 0 103.5 -23t71 -61t40 -87t10.5 -102h-430z
M455 273q0 47 -13 89.5t-38.5 74.5t-63.5 50.5t-88 18.5q-42 0 -78.5 -16t-64 -46.5t-44.5 -73.5t-20 -97h410zM369 640h-232v20h232v-20z" />
    <glyph glyph-name="Ebreve" unicode="&#x114;" horiz-adv-x="537" 
d="M74 20h458v-20h-478v714h474v-20h-454v-312h427v-20h-427v-342zM182 904q5 -39 32.5 -63t67.5 -24q43 0 72 21t34 66h20q-6 -51 -40.5 -79t-85.5 -28q-49 0 -81.5 29.5t-38.5 77.5h20z" />
    <glyph glyph-name="ebreve" unicode="&#x115;" 
d="M45 253q1 -52 12 -96.5t35.5 -77.5t62.5 -52t93 -19q80 0 134 43t67 127h20q-5 -44 -23.5 -79.5t-47.5 -60t-66.5 -37.5t-81.5 -13q-60 -1 -102.5 19.5t-69.5 57t-40 86t-13 106.5q0 64 19 114t50 84.5t71.5 52.5t84.5 18q60 0 103.5 -23t71 -61t40 -87t10.5 -102h-430z
M455 273q0 47 -13 89.5t-38.5 74.5t-63.5 50.5t-88 18.5q-42 0 -78.5 -16t-64 -46.5t-44.5 -73.5t-20 -97h410zM151 714q5 -39 32.5 -63t67.5 -24q43 0 72 21t34 66h20q-6 -51 -40.5 -79t-85.5 -28q-49 0 -81.5 29.5t-38.5 77.5h20z" />
    <glyph glyph-name="Edotaccent" unicode="&#x116;" horiz-adv-x="537" 
d="M74 20h458v-20h-478v714h474v-20h-454v-312h427v-20h-427v-342zM296 885v-81h-20v81h20z" />
    <glyph glyph-name="edotaccent" unicode="&#x117;" 
d="M45 253q1 -52 12 -96.5t35.5 -77.5t62.5 -52t93 -19q80 0 134 43t67 127h20q-5 -44 -23.5 -79.5t-47.5 -60t-66.5 -37.5t-81.5 -13q-60 -1 -102.5 19.5t-69.5 57t-40 86t-13 106.5q0 64 19 114t50 84.5t71.5 52.5t84.5 18q60 0 103.5 -23t71 -61t40 -87t10.5 -102h-430z
M455 273q0 47 -13 89.5t-38.5 74.5t-63.5 50.5t-88 18.5q-42 0 -78.5 -16t-64 -46.5t-44.5 -73.5t-20 -97h410zM260 695v-81h-20v81h20z" />
    <glyph glyph-name="Eogonek" unicode="&#x118;" horiz-adv-x="537" 
d="M490 0q-57 -44 -79 -71t-22 -52q0 -19 13.5 -32t37.5 -13q28 0 46.5 10.5t28.5 21.5l17 -12q-21 -22 -42.5 -31t-49.5 -9q-37 0 -56 18t-19 45q0 19 9 36.5t22.5 32.5t30.5 29.5t34 26.5h-407v714h474v-20h-454v-312h427v-20h-427v-342h458v-20h-42z" />
    <glyph glyph-name="eogonek" unicode="&#x119;" 
d="M45 253q1 -52 12 -96.5t35.5 -77.5t62.5 -52t93 -19q80 0 134 43t67 127h20q-5 -44 -23.5 -79.5t-47.5 -60t-67 -37.5q-22 -8 -48 -11q-46 -37 -65 -61q-22 -27 -22 -52q0 -19 13.5 -32t37.5 -13q28 0 46.5 10.5t28.5 21.5l17 -12q-21 -22 -42.5 -31t-49.5 -9
q-37 0 -56 18t-19 45q0 19 9 36.5t22.5 32.5t30.5 30q8 7 17 14h-1q-60 -1 -102.5 19.5t-69.5 57t-40 86t-13 106.5q0 64 19 114t50 84.5t71.5 52.5t84.5 18q60 0 103.5 -23t71 -61t40 -87t10.5 -102h-430zM455 273q0 47 -13 89.5t-38.5 74.5t-63.5 50.5t-88 18.5
q-42 0 -78.5 -16t-64 -46.5t-44.5 -73.5t-20 -97h410z" />
    <glyph glyph-name="Ecaron" unicode="&#x11a;" horiz-adv-x="537" 
d="M74 20h458v-20h-478v714h474v-20h-454v-312h427v-20h-427v-342zM188 920l103 -123l99 123h20l-113 -139h-15l-114 139h20z" />
    <glyph glyph-name="ecaron" unicode="&#x11b;" 
d="M45 253q1 -52 12 -96.5t35.5 -77.5t62.5 -52t93 -19q80 0 134 43t67 127h20q-5 -44 -23.5 -79.5t-47.5 -60t-66.5 -37.5t-81.5 -13q-60 -1 -102.5 19.5t-69.5 57t-40 86t-13 106.5q0 64 19 114t50 84.5t71.5 52.5t84.5 18q60 0 103.5 -23t71 -61t40 -87t10.5 -102h-430z
M455 273q0 47 -13 89.5t-38.5 74.5t-63.5 50.5t-88 18.5q-42 0 -78.5 -16t-64 -46.5t-44.5 -73.5t-20 -97h410zM150 730l103 -123l99 123h20l-113 -139h-15l-114 139h20z" />
    <glyph glyph-name="Gcircumflex" unicode="&#x11c;" horiz-adv-x="722" 
d="M377 314v20h297v-335h-20v178h-2q-14 -45 -40.5 -81t-63.5 -61t-83 -38.5t-98 -13.5q-83 0 -145.5 29.5t-104.5 80.5t-63.5 119t-21.5 145q0 78 23 146.5t66 119t105 79.5t141 29q60 0 110.5 -17t89 -48.5t63 -75.5t33.5 -99h-20q-9 50 -32.5 90.5t-59 69.5t-82.5 44.5
t-102 15.5q-75 0 -133.5 -28t-99 -76t-61.5 -112.5t-21 -137.5t20 -137.5t60 -112.5t99.5 -76t138.5 -28q59 0 111 20.5t90.5 57t60.5 87t22 109.5v37h-277zM471 781l-103 123l-99 -123h-20l113 139h15l114 -139h-20z" />
    <glyph glyph-name="gcircumflex" unicode="&#x11d;" horiz-adv-x="519" 
d="M446 172h-2q-8 -34 -28 -61t-48 -45.5t-60.5 -28t-65.5 -9.5q-54 0 -94 20t-66.5 53.5t-40 78t-13.5 94.5q0 52 14 97.5t42 80t69.5 54.5t95.5 20q37 0 69 -11.5t57.5 -31.5t43 -47.5t25.5 -58.5h2v137h20v-497q0 -106 -56.5 -156t-157.5 -50q-39 0 -74 9t-62 28.5
t-43 50.5t-17 74h20q1 -38 15.5 -65t38.5 -44t55 -25t66 -8q94 0 144.5 45t50.5 141v155zM445 274q0 44 -12.5 86t-37 74.5t-61.5 52t-85 19.5q-50 0 -87.5 -18.5t-63 -50.5t-38 -74t-12.5 -89q0 -48 12.5 -89t37 -71.5t60.5 -48t83 -17.5q49 0 87.5 18t64 48.5t39 71.5
t13.5 88zM367 591l-103 123l-99 -123h-20l113 139h15l114 -139h-20z" />
    <glyph glyph-name="Gbreve" unicode="&#x11e;" horiz-adv-x="722" 
d="M377 314v20h297v-335h-20v178h-2q-14 -45 -40.5 -81t-63.5 -61t-83 -38.5t-98 -13.5q-83 0 -145.5 29.5t-104.5 80.5t-63.5 119t-21.5 145q0 78 23 146.5t66 119t105 79.5t141 29q60 0 110.5 -17t89 -48.5t63 -75.5t33.5 -99h-20q-9 50 -32.5 90.5t-59 69.5t-82.5 44.5
t-102 15.5q-75 0 -133.5 -28t-99 -76t-61.5 -112.5t-21 -137.5t20 -137.5t60 -112.5t99.5 -76t138.5 -28q59 0 111 20.5t90.5 57t60.5 87t22 109.5v37h-277zM262 904q5 -39 32.5 -63t67.5 -24q43 0 72 21t34 66h20q-6 -51 -40.5 -79t-85.5 -28q-49 0 -81.5 29.5t-38.5 77.5
h20z" />
    <glyph glyph-name="gbreve" unicode="&#x11f;" horiz-adv-x="519" 
d="M446 172h-2q-8 -34 -28 -61t-48 -45.5t-60.5 -28t-65.5 -9.5q-54 0 -94 20t-66.5 53.5t-40 78t-13.5 94.5q0 52 14 97.5t42 80t69.5 54.5t95.5 20q37 0 69 -11.5t57.5 -31.5t43 -47.5t25.5 -58.5h2v137h20v-497q0 -106 -56.5 -156t-157.5 -50q-39 0 -74 9t-62 28.5
t-43 50.5t-17 74h20q1 -38 15.5 -65t38.5 -44t55 -25t66 -8q94 0 144.5 45t50.5 141v155zM445 274q0 44 -12.5 86t-37 74.5t-61.5 52t-85 19.5q-50 0 -87.5 -18.5t-63 -50.5t-38 -74t-12.5 -89q0 -48 12.5 -89t37 -71.5t60.5 -48t83 -17.5q49 0 87.5 18t64 48.5t39 71.5
t13.5 88zM148 714q5 -39 32.5 -63t67.5 -24q43 0 72 21t34 66h20q-6 -51 -40.5 -79t-85.5 -28q-49 0 -81.5 29.5t-38.5 77.5h20z" />
    <glyph glyph-name="Gdotaccent" unicode="&#x120;" horiz-adv-x="722" 
d="M377 314v20h297v-335h-20v178h-2q-14 -45 -40.5 -81t-63.5 -61t-83 -38.5t-98 -13.5q-83 0 -145.5 29.5t-104.5 80.5t-63.5 119t-21.5 145q0 78 23 146.5t66 119t105 79.5t141 29q60 0 110.5 -17t89 -48.5t63 -75.5t33.5 -99h-20q-9 50 -32.5 90.5t-59 69.5t-82.5 44.5
t-102 15.5q-75 0 -133.5 -28t-99 -76t-61.5 -112.5t-21 -137.5t20 -137.5t60 -112.5t99.5 -76t138.5 -28q59 0 111 20.5t90.5 57t60.5 87t22 109.5v37h-277zM380 885v-81h-20v81h20z" />
    <glyph glyph-name="gdotaccent" unicode="&#x121;" horiz-adv-x="519" 
d="M446 172h-2q-8 -34 -28 -61t-48 -45.5t-60.5 -28t-65.5 -9.5q-54 0 -94 20t-66.5 53.5t-40 78t-13.5 94.5q0 52 14 97.5t42 80t69.5 54.5t95.5 20q37 0 69 -11.5t57.5 -31.5t43 -47.5t25.5 -58.5h2v137h20v-497q0 -106 -56.5 -156t-157.5 -50q-39 0 -74 9t-62 28.5
t-43 50.5t-17 74h20q1 -38 15.5 -65t38.5 -44t55 -25t66 -8q94 0 144.5 45t50.5 141v155zM445 274q0 44 -12.5 86t-37 74.5t-61.5 52t-85 19.5q-50 0 -87.5 -18.5t-63 -50.5t-38 -74t-12.5 -89q0 -48 12.5 -89t37 -71.5t60.5 -48t83 -17.5q49 0 87.5 18t64 48.5t39 71.5
t13.5 88zM268 695v-81h-20v81h20z" />
    <glyph glyph-name="Gcommaaccent" unicode="&#x122;" horiz-adv-x="722" 
d="M377 314v20h297v-335h-20v178h-2q-14 -45 -40.5 -81t-63.5 -61t-83 -38.5t-98 -13.5q-83 0 -145.5 29.5t-104.5 80.5t-63.5 119t-21.5 145q0 78 23 146.5t66 119t105 79.5t141 29q60 0 110.5 -17t89 -48.5t63 -75.5t33.5 -99h-20q-9 50 -32.5 90.5t-59 69.5t-82.5 44.5
t-102 15.5q-75 0 -133.5 -28t-99 -76t-61.5 -112.5t-21 -137.5t20 -137.5t60 -112.5t99.5 -76t138.5 -28q59 0 111 20.5t90.5 57t60.5 87t22 109.5v37h-277zM377 -50v-78q0 -26 -13.5 -42t-44.5 -19v16q24 5 31 18.5t7 32.5v72h20z" />
    <glyph glyph-name="gcommaaccent" unicode="&#x123;" horiz-adv-x="519" 
d="M446 172h-2q-8 -34 -28 -61t-48 -45.5t-60.5 -28t-65.5 -9.5q-54 0 -94 20t-66.5 53.5t-40 78t-13.5 94.5q0 52 14 97.5t42 80t69.5 54.5t95.5 20q37 0 69 -11.5t57.5 -31.5t43 -47.5t25.5 -58.5h2v137h20v-497q0 -106 -56.5 -156t-157.5 -50q-39 0 -74 9t-62 28.5
t-43 50.5t-17 74h20q1 -38 15.5 -65t38.5 -44t55 -25t66 -8q94 0 144.5 45t50.5 141v155zM445 274q0 44 -12.5 86t-37 74.5t-61.5 52t-85 19.5q-50 0 -87.5 -18.5t-63 -50.5t-38 -74t-12.5 -89q0 -48 12.5 -89t37 -71.5t60.5 -48t83 -17.5q49 0 87.5 18t64 48.5t39 71.5
t13.5 88zM242 616v78q0 26 13.5 42t44.5 19v-16q-24 -5 -31 -18.5t-7 -32.5v-72h-20z" />
    <glyph glyph-name="Hcircumflex" unicode="&#x124;" horiz-adv-x="648" 
d="M74 362v-362h-20v714h20v-332h500v332h20v-714h-20v362h-500zM426 781l-103 123l-99 -123h-20l113 139h15l114 -139h-20z" />
    <glyph glyph-name="hcircumflex" unicode="&#x125;" 
d="M55 714h20v-327h2q7 30 22.5 55t39 44t54.5 29.5t69 10.5q40 0 73.5 -12t58 -35.5t38 -58t13.5 -79.5v-341h-20v338q0 45 -13 76.5t-35.5 52t-52 30t-62.5 9.5q-46 0 -81 -17.5t-58.5 -47t-35.5 -68.5t-12 -82v-291h-20v714zM347 781l-103 123l-99 -123h-20l113 139h15
l114 -139h-20z" />
    <glyph glyph-name="Hbar" unicode="&#x126;" horiz-adv-x="648" 
d="M74 362v-362h-20v714h20v-200h500v200h20v-714h-20v362h-500zM574 382v112h-500v-112h500z" />
    <glyph glyph-name="hbar" unicode="&#x127;" horiz-adv-x="510" 
d="M65 714h20v-81h174v-20h-174v-226h2q7 30 22.5 55t39 44t54.5 29.5t69 10.5q40 0 73.5 -12t58 -35.5t38 -58t13.5 -79.5v-341h-20v338q0 45 -13 76.5t-35.5 52t-52 30t-62.5 9.5q-46 0 -81 -17.5t-58.5 -47t-35.5 -68.5t-12 -82v-291h-20v613h-67v20h67v81z" />
    <glyph glyph-name="Itilde" unicode="&#x128;" horiz-adv-x="128" 
d="M54 714h20v-714h-20v714zM-67 805q1 15 6 29t14 25t22 18t26 7q17 0 33.5 -9t32.5 -20t31 -20t30 -9q19 0 31.5 12.5t17.5 42.5h20q-5 -37 -22.5 -56t-46.5 -19q-19 0 -35 9t-31 20t-30 20t-31 9q-11 0 -20 -5.5t-15 -14.5t-9 -18.5t-4 -20.5h-20z" />
    <glyph glyph-name="itilde" unicode="&#x129;" horiz-adv-x="130" 
d="M55 0v514h20v-514h-20zM-67 615q1 15 6 29t14 25t22 18t26 7q17 0 33.5 -9t32.5 -20t31 -20t30 -9q19 0 31.5 12.5t17.5 42.5h20q-5 -37 -22.5 -56t-46.5 -19q-19 0 -35 9t-31 20t-30 20t-31 9q-11 0 -20 -5.5t-15 -14.5t-9 -18.5t-4 -20.5h-20z" />
    <glyph glyph-name="Imacron" unicode="&#x12a;" horiz-adv-x="128" 
d="M54 714h20v-714h-20v714zM181 830h-232v20h232v-20z" />
    <glyph glyph-name="imacron" unicode="&#x12b;" horiz-adv-x="130" 
d="M55 0v514h20v-514h-20zM181 640h-232v20h232v-20z" />
    <glyph glyph-name="Iogonek" unicode="&#x12e;" horiz-adv-x="128" 
d="M74 0q-42 -42 -60 -69t-18 -54q0 -19 12 -32t34 -13q25 0 42 10.5t26 21.5l15 -12q-19 -22 -38.5 -31t-44.5 -9q-33 0 -50.5 18t-17.5 45q0 19 8 37.5t20.5 34t24.5 27.5l27 26v714h20v-714z" />
    <glyph glyph-name="iogonek" unicode="&#x12f;" horiz-adv-x="130" 
d="M75 0q-42 -42 -60 -69t-18 -54q0 -19 12 -32t34 -13q25 0 42 10.5t26 21.5l15 -12q-19 -22 -38.5 -31t-44.5 -9q-33 0 -50.5 18t-17.5 45q0 19 8 37.5t20.5 34t24.5 27.5l27 26v514h20v-514zM75 613h-20v101h20v-101z" />
    <glyph glyph-name="Idotaccent" unicode="&#x130;" horiz-adv-x="128" 
d="M54 714h20v-714h-20v714zM75 901v-81h-20v81h20z" />
    <glyph glyph-name="dotlessi" unicode="&#x131;" horiz-adv-x="130" 
d="M55 0v514h20v-514h-20z" />
    <glyph glyph-name="Jcircumflex" unicode="&#x134;" horiz-adv-x="463" 
d="M384 714h20v-528q0 -45 -10.5 -82t-33.5 -64t-60.5 -42t-91.5 -15q-51 0 -87 15t-59 41t-33.5 61.5t-10.5 77.5v43h20v-43q0 -88 43.5 -131.5t126.5 -43.5q43 0 75.5 10t55 33t34 61t11.5 94v513zM490 781l-103 123l-99 -123h-20l113 139h15l114 -139h-20z" />
    <glyph glyph-name="jcircumflex" unicode="&#x135;" horiz-adv-x="130" 
d="M75 -75q0 -36 -8.5 -56t-24 -30t-38.5 -13t-53 -3v20q29 0 49 2t32 10.5t17.5 26.5t5.5 50v582h20v-589zM163 591l-103 123l-99 -123h-20l113 139h15l114 -139h-20z" />
    <glyph glyph-name="Kcommaaccent" unicode="&#x136;" horiz-adv-x="593" 
d="M74 253v-253h-20v714h20v-434l495 434h30l-345 -304l365 -410h-27l-354 398zM316 -50v-78q0 -26 -13.5 -42t-44.5 -19v16q24 5 31 18.5t7 32.5v72h20z" />
    <glyph glyph-name="kcommaaccent" unicode="&#x137;" horiz-adv-x="444" 
d="M75 194v-194h-20v714h20v-495l355 295h29l-236 -196l253 -318h-27l-241 304zM249 -50v-78q0 -26 -13.5 -42t-44.5 -19v16q24 5 31 18.5t7 32.5v72h20z" />
    <glyph glyph-name="Lacute" unicode="&#x139;" horiz-adv-x="481" 
d="M491 20v-20h-437v714h20v-694h417zM216 922l-146 -144h-15l132 144h29z" />
    <glyph glyph-name="lacute" unicode="&#x13a;" horiz-adv-x="130" 
d="M55 714h20v-714h-20v714zM216 922l-146 -144h-15l132 144h29z" />
    <glyph glyph-name="Lcommaaccent" unicode="&#x13b;" horiz-adv-x="481" 
d="M491 20v-20h-437v714h20v-694h417zM274 -50v-78q0 -26 -13.5 -42t-44.5 -19v16q24 5 31 18.5t7 32.5v72h20z" />
    <glyph glyph-name="lcommaaccent" unicode="&#x13c;" horiz-adv-x="130" 
d="M55 714h20v-714h-20v714zM77 -50v-78q0 -26 -13.5 -42t-44.5 -19v16q24 5 31 18.5t7 32.5v72h20z" />
    <glyph glyph-name="Lcaron" unicode="&#x13d;" horiz-adv-x="481" 
d="M491 20v-20h-437v714h20v-694h417zM258 714l-65 -144h-15l51 144h29z" />
    <glyph glyph-name="lcaron" unicode="&#x13e;" horiz-adv-x="188" 
d="M55 714h20v-714h-20v714zM204 714l-65 -144h-15l51 144h29z" />
    <glyph glyph-name="Ldot" unicode="&#x13f;" horiz-adv-x="481" 
d="M491 20v-20h-437v714h20v-694h417zM284 515v-81h-20v81h20z" />
    <glyph glyph-name="ldot" unicode="&#x140;" horiz-adv-x="180" 
d="M55 714h20v-714h-20v714zM150 515v-81h-20v81h20z" />
    <glyph glyph-name="Lslash" unicode="&#x141;" horiz-adv-x="481" 
d="M54 0v269l-74 -52v24l74 52v421h20v-407l248 174v-24l-248 -174v-263h417v-20h-437z" />
    <glyph glyph-name="lslash" unicode="&#x142;" horiz-adv-x="130" 
d="M75 714v-297l73 63v-25l-73 -63v-392h-20v375l-73 -63v25l73 63v314h20z" />
    <glyph glyph-name="Nacute" unicode="&#x143;" horiz-adv-x="648" 
d="M54 714h30l488 -689h2v689h20v-714h-30l-488 689h-2v-689h-20v714zM475 922l-146 -144h-15l132 144h29z" />
    <glyph glyph-name="nacute" unicode="&#x144;" 
d="M55 514h20v-127h2q7 30 22.5 55t39 44t54.5 29.5t69 10.5q40 0 73.5 -12t58 -35.5t38 -58t13.5 -79.5v-341h-20v338q0 45 -13 76.5t-35.5 52t-52 30t-62.5 9.5q-46 0 -81 -17.5t-58.5 -47t-35.5 -68.5t-12 -82v-291h-20v514zM390 732l-146 -144h-15l132 144h29z" />
    <glyph glyph-name="Ncommaaccent" unicode="&#x145;" horiz-adv-x="648" 
d="M54 714h30l488 -689h2v689h20v-714h-30l-488 689h-2v-689h-20v714zM326 -50v-78q0 -26 -13.5 -42t-44.5 -19v16q24 5 31 18.5t7 32.5v72h20z" />
    <glyph glyph-name="ncommaaccent" unicode="&#x146;" 
d="M55 514h20v-127h2q7 30 22.5 55t39 44t54.5 29.5t69 10.5q40 0 73.5 -12t58 -35.5t38 -58t13.5 -79.5v-341h-20v338q0 45 -13 76.5t-35.5 52t-52 30t-62.5 9.5q-46 0 -81 -17.5t-58.5 -47t-35.5 -68.5t-12 -82v-291h-20v514zM260 -50v-78q0 -26 -13.5 -42t-44.5 -19v16
q24 5 31 18.5t7 32.5v72h20z" />
    <glyph glyph-name="Ncaron" unicode="&#x147;" horiz-adv-x="648" 
d="M54 714h30l488 -689h2v689h20v-714h-30l-488 689h-2v-689h-20v714zM224 920l103 -123l99 123h20l-113 -139h-15l-114 139h20z" />
    <glyph glyph-name="ncaron" unicode="&#x148;" 
d="M55 514h20v-127h2q7 30 22.5 55t39 44t54.5 29.5t69 10.5q40 0 73.5 -12t58 -35.5t38 -58t13.5 -79.5v-341h-20v338q0 45 -13 76.5t-35.5 52t-52 30t-62.5 9.5q-46 0 -81 -17.5t-58.5 -47t-35.5 -68.5t-12 -82v-291h-20v514zM148 730l103 -123l99 123h20l-113 -139h-15
l-114 139h20z" />
    <glyph glyph-name="Omacron" unicode="&#x14c;" horiz-adv-x="721" 
d="M32 357q0 76 21.5 144t63 119t103 81t141.5 30t141.5 -30t103 -81t63 -119t21.5 -144t-21.5 -144t-63 -119t-103 -81t-141.5 -30t-141.5 30t-103 81t-63 119t-21.5 144zM52 357q1 -77 22 -142t61 -112t97 -73.5t129 -26.5t129 26.5t96.5 73.5t61 112t22.5 142
q-1 77 -22.5 142t-61 112t-96.5 73.5t-129 26.5t-129 -26.5t-97 -73.5t-61 -112t-22 -142zM480 830h-232v20h232v-20z" />
    <glyph glyph-name="omacron" unicode="&#x14d;" horiz-adv-x="519" 
d="M48 257q0 -49 13.5 -94t40.5 -79.5t66.5 -55t91.5 -20.5q51 0 90.5 20.5t66.5 55t40.5 79.5t13.5 94q0 48 -13.5 93t-40.5 79.5t-66.5 55.5t-90.5 21q-52 0 -91.5 -21t-66.5 -55.5t-40.5 -79.5t-13.5 -93zM28 257q0 52 15 101t44.5 86t72.5 59.5t100 22.5q56 0 99 -22.5
t72.5 -59.5t44.5 -86t15 -101q0 -53 -15 -101.5t-44.5 -86t-72.5 -59.5t-100 -22q-56 0 -99.5 22t-72.5 59.5t-44 86t-15 101.5zM375 640h-232v20h232v-20z" />
    <glyph glyph-name="Obreve" unicode="&#x14e;" horiz-adv-x="721" 
d="M32 357q0 76 21.5 144t63 119t103 81t141.5 30t141.5 -30t103 -81t63 -119t21.5 -144t-21.5 -144t-63 -119t-103 -81t-141.5 -30t-141.5 30t-103 81t-63 119t-21.5 144zM52 357q1 -77 22 -142t61 -112t97 -73.5t129 -26.5t129 26.5t96.5 73.5t61 112t22.5 142
q-1 77 -22.5 142t-61 112t-96.5 73.5t-129 26.5t-129 -26.5t-97 -73.5t-61 -112t-22 -142zM261 904q5 -39 32.5 -63t67.5 -24q43 0 72 21t34 66h20q-6 -51 -40.5 -79t-85.5 -28q-49 0 -81.5 29.5t-38.5 77.5h20z" />
    <glyph glyph-name="obreve" unicode="&#x14f;" horiz-adv-x="519" 
d="M48 257q0 -49 13.5 -94t40.5 -79.5t66.5 -55t91.5 -20.5q51 0 90.5 20.5t66.5 55t40.5 79.5t13.5 94q0 48 -13.5 93t-40.5 79.5t-66.5 55.5t-90.5 21q-52 0 -91.5 -21t-66.5 -55.5t-40.5 -79.5t-13.5 -93zM28 257q0 52 15 101t44.5 86t72.5 59.5t100 22.5q56 0 99 -22.5
t72.5 -59.5t44.5 -86t15 -101q0 -53 -15 -101.5t-44.5 -86t-72.5 -59.5t-100 -22q-56 0 -99.5 22t-72.5 59.5t-44 86t-15 101.5zM156 714q5 -39 32.5 -63t67.5 -24q43 0 72 21t34 66h20q-6 -51 -40.5 -79t-85.5 -28q-49 0 -81.5 29.5t-38.5 77.5h20z" />
    <glyph glyph-name="Ohungarumlaut" unicode="&#x150;" horiz-adv-x="721" 
d="M32 357q0 76 21.5 144t63 119t103 81t141.5 30t141.5 -30t103 -81t63 -119t21.5 -144t-21.5 -144t-63 -119t-103 -81t-141.5 -30t-141.5 30t-103 81t-63 119t-21.5 144zM52 357q1 -77 22 -142t61 -112t97 -73.5t129 -26.5t129 26.5t96.5 73.5t61 112t22.5 142
q-1 77 -22.5 142t-61 112t-96.5 73.5t-129 26.5t-129 -26.5t-97 -73.5t-61 -112t-22 -142zM589 922l-146 -144h-15l132 144h29zM439 922l-146 -144h-15l132 144h29z" />
    <glyph glyph-name="ohungarumlaut" unicode="&#x151;" horiz-adv-x="519" 
d="M48 257q0 -49 13.5 -94t40.5 -79.5t66.5 -55t91.5 -20.5q51 0 90.5 20.5t66.5 55t40.5 79.5t13.5 94q0 48 -13.5 93t-40.5 79.5t-66.5 55.5t-90.5 21q-52 0 -91.5 -21t-66.5 -55.5t-40.5 -79.5t-13.5 -93zM28 257q0 52 15 101t44.5 86t72.5 59.5t100 22.5q56 0 99 -22.5
t72.5 -59.5t44.5 -86t15 -101q0 -53 -15 -101.5t-44.5 -86t-72.5 -59.5t-100 -22q-56 0 -99.5 22t-72.5 59.5t-44 86t-15 101.5zM486 732l-146 -144h-15l132 144h29zM336 732l-146 -144h-15l132 144h29z" />
    <glyph glyph-name="Racute" unicode="&#x154;" horiz-adv-x="611" 
d="M74 0h-20v714h292q111 0 163.5 -45t54.5 -138q2 -71 -38 -119t-115 -65v-2q45 -6 73 -21.5t43 -40.5t20 -59t5 -77q0 -16 1 -38t3 -44t5 -40t8 -25h-22q-5 11 -7.5 29.5t-4.5 39.5t-2.5 42.5t-0.5 38.5q0 44 -6.5 78.5t-26.5 58t-57.5 36t-98.5 12.5h-269v-335zM74 355
h267q39 0 76 10t65.5 32t45 55.5t16.5 80.5q-1 76 -46 118.5t-147 42.5h-277v-339zM410 922l-146 -144h-15l132 144h29z" />
    <glyph glyph-name="racute" unicode="&#x155;" horiz-adv-x="259" 
d="M75 0h-20v514h20v-127h2q7 28 22 54t40 45.5t59.5 30t80.5 9.5v-20q-53 3 -91.5 -14.5t-63.5 -48t-37 -70.5t-12 -82v-291zM221 732l-146 -144h-15l132 144h29z" />
    <glyph glyph-name="Rcommaaccent" unicode="&#x156;" horiz-adv-x="611" 
d="M74 0h-20v714h292q111 0 163.5 -45t54.5 -138q2 -71 -38 -119t-115 -65v-2q45 -6 73 -21.5t43 -40.5t20 -59t5 -77q0 -16 1 -38t3 -44t5 -40t8 -25h-22q-5 11 -7.5 29.5t-4.5 39.5t-2.5 42.5t-0.5 38.5q0 44 -6.5 78.5t-26.5 58t-57.5 36t-98.5 12.5h-269v-335zM74 355
h267q39 0 76 10t65.5 32t45 55.5t16.5 80.5q-1 76 -46 118.5t-147 42.5h-277v-339zM307 -50v-78q0 -26 -13.5 -42t-44.5 -19v16q24 5 31 18.5t7 32.5v72h20z" />
    <glyph glyph-name="rcommaaccent" unicode="&#x157;" horiz-adv-x="259" 
d="M75 0h-20v514h20v-127h2q7 28 22 54t40 45.5t59.5 30t80.5 9.5v-20q-53 3 -91.5 -14.5t-63.5 -48t-37 -70.5t-12 -82v-291zM77 -50v-78q0 -26 -13.5 -42t-44.5 -19v16q24 5 31 18.5t7 32.5v72h20z" />
    <glyph glyph-name="Rcaron" unicode="&#x158;" horiz-adv-x="611" 
d="M74 0h-20v714h292q111 0 163.5 -45t54.5 -138q2 -71 -38 -119t-115 -65v-2q45 -6 73 -21.5t43 -40.5t20 -59t5 -77q0 -16 1 -38t3 -44t5 -40t8 -25h-22q-5 11 -7.5 29.5t-4.5 39.5t-2.5 42.5t-0.5 38.5q0 44 -6.5 78.5t-26.5 58t-57.5 36t-98.5 12.5h-269v-335zM74 355
h267q39 0 76 10t65.5 32t45 55.5t16.5 80.5q-1 76 -46 118.5t-147 42.5h-277v-339zM175 920l103 -123l99 123h20l-113 -139h-15l-114 139h20z" />
    <glyph glyph-name="rcaron" unicode="&#x159;" horiz-adv-x="259" 
d="M75 0h-20v514h20v-127h2q7 28 22 54t40 45.5t59.5 30t80.5 9.5v-20q-53 3 -91.5 -14.5t-63.5 -48t-37 -70.5t-12 -82v-291zM55 730l103 -123l99 123h20l-113 -139h-15l-114 139h20z" />
    <glyph glyph-name="Sacute" unicode="&#x15a;" horiz-adv-x="611" 
d="M531 514q-2 55 -20.5 92.5t-49 60.5t-72.5 33.5t-90 10.5q-38 0 -77.5 -7.5t-72 -26.5t-53.5 -50.5t-21 -79.5t21.5 -77t56 -47t78.5 -28l90 -21l94.5 -24.5t77.5 -32t52.5 -53.5t19.5 -89q0 -51 -22 -87t-58 -59.5t-81 -34.5t-91 -11q-61 0 -112.5 14.5t-89 45t-58 78.5
t-19.5 116h20q0 -64 19 -108.5t53.5 -72.5t82 -40.5t104.5 -12.5q42 0 83.5 9.5t74.5 30.5t53.5 54t20.5 79q0 54 -23.5 85.5t-60 50t-81 28t-85.5 19.5q-44 10 -86.5 21t-77 30.5t-55.5 51.5t-21 85t22 88.5t57 56.5t78.5 30t86.5 9q52 0 97 -11.5t78.5 -37t53.5 -67
t23 -101.5h-20zM446 922l-146 -144h-15l132 144h29z" />
    <glyph glyph-name="sacute" unicode="&#x15b;" horiz-adv-x="463" 
d="M390 362q0 39 -12 66t-34 44.5t-52.5 25.5t-67.5 8q-54 0 -85 -14.5t-46 -33.5t-19 -36.5t-4 -24.5q0 -38 15.5 -58.5t41.5 -31.5q27 -11 58.5 -19l73.5 -19l59.5 -16.5t53 -23.5t38 -38t14.5 -60q0 -39 -16.5 -66t-43 -44t-60 -25t-66.5 -8q-102 0 -155 45.5t-53 142.5
h20q0 -86 49 -127t139 -41q28 0 57.5 6.5t53.5 21t39.5 37.5t15.5 56q0 34 -15.5 55t-40 34.5t-56.5 21.5l-65 16q-37 9 -65 17t-50 18q-32 14 -47 39t-15 67q0 21 9 44t30 42t54 31t81 12q86 0 136 -39t50 -125h-20zM372 732l-146 -144h-15l132 144h29z" />
    <glyph glyph-name="Scircumflex" unicode="&#x15c;" horiz-adv-x="611" 
d="M531 514q-2 55 -20.5 92.5t-49 60.5t-72.5 33.5t-90 10.5q-38 0 -77.5 -7.5t-72 -26.5t-53.5 -50.5t-21 -79.5t21.5 -77t56 -47t78.5 -28l90 -21l94.5 -24.5t77.5 -32t52.5 -53.5t19.5 -89q0 -51 -22 -87t-58 -59.5t-81 -34.5t-91 -11q-61 0 -112.5 14.5t-89 45t-58 78.5
t-19.5 116h20q0 -64 19 -108.5t53.5 -72.5t82 -40.5t104.5 -12.5q42 0 83.5 9.5t74.5 30.5t53.5 54t20.5 79q0 54 -23.5 85.5t-60 50t-81 28t-85.5 19.5q-44 10 -86.5 21t-77 30.5t-55.5 51.5t-21 85t22 88.5t57 56.5t78.5 30t86.5 9q52 0 97 -11.5t78.5 -37t53.5 -67
t23 -101.5h-20zM408 781l-103 123l-99 -123h-20l113 139h15l114 -139h-20z" />
    <glyph glyph-name="scircumflex" unicode="&#x15d;" horiz-adv-x="463" 
d="M390 362q0 39 -12 66t-34 44.5t-52.5 25.5t-67.5 8q-54 0 -85 -14.5t-46 -33.5t-19 -36.5t-4 -24.5q0 -38 15.5 -58.5t41.5 -31.5q27 -11 58.5 -19l73.5 -19l59.5 -16.5t53 -23.5t38 -38t14.5 -60q0 -39 -16.5 -66t-43 -44t-60 -25t-66.5 -8q-102 0 -155 45.5t-53 142.5
h20q0 -86 49 -127t139 -41q28 0 57.5 6.5t53.5 21t39.5 37.5t15.5 56q0 34 -15.5 55t-40 34.5t-56.5 21.5l-65 16q-37 9 -65 17t-50 18q-32 14 -47 39t-15 67q0 21 9 44t30 42t54 31t81 12q86 0 136 -39t50 -125h-20zM336 591l-103 123l-99 -123h-20l113 139h15l114 -139
h-20z" />
    <glyph glyph-name="Scedilla" unicode="&#x15e;" horiz-adv-x="611" 
d="M215 -151q17 -8 34 -12.5t37 -4.5q14 0 28 4t23.5 12t14 17.5t4.5 21.5q0 13 -5 21t-12.5 13t-18 7t-17.5 2q-32 0 -54 -13l-15 10l44 57q-41 3 -78 14q-51 14 -88.5 44.5t-58 78.5t-19.5 116h20q0 -64 19 -108.5t53.5 -72.5t82 -40.5t104.5 -12.5q42 0 83.5 9.5
t74.5 30.5t53.5 54t20.5 79q0 54 -23.5 85.5t-60 50t-81 28t-85.5 19.5q-44 10 -86.5 21t-77 30.5t-55.5 51.5t-21 85t22 88.5t57 56.5t78.5 30t86.5 9q52 0 97 -11.5t78.5 -37t53.5 -67t23 -101.5h-20q-2 55 -20.5 92.5t-49 60.5t-72.5 33.5t-90 10.5q-38 0 -77.5 -7.5
t-72 -26.5t-53.5 -50.5t-21 -79.5t21.5 -77t56 -47t78.5 -28l90 -21l94.5 -24.5t77.5 -32t52.5 -53.5t19.5 -89q0 -51 -22 -87t-58 -59.5t-81 -34.5t-91 -11h-15l-28 -39q7 3 14.5 4.5t18.5 1.5q33 0 54 -14.5t22 -45.5q0 -15 -7 -31t-19.5 -26t-30 -15.5t-36.5 -5.5
q-24 0 -45 5.5t-35 12.5z" />
    <glyph glyph-name="scedilla" unicode="&#x15f;" horiz-adv-x="463" 
d="M143 -151q17 -8 34 -12.5t37 -4.5q14 0 28 4t23.5 12t14 17.5t4.5 21.5q0 13 -5 21t-12.5 13t-18 7t-17.5 2q-32 0 -54 -13l-15 10l48 62q-82 6 -127 44q-53 46 -53 143h20q0 -86 49 -127t139 -41q28 0 57.5 6.5t53.5 21t39.5 37.5t15.5 56q0 34 -15.5 55t-40 34.5
t-56.5 21.5l-65 16q-37 9 -65 17t-50 18q-32 14 -47 39t-15 67q0 21 9 44t30 42t54 31t81 12q86 0 136 -39t50 -125h-20q0 39 -12 66t-34 44.5t-52.5 25.5t-67.5 8q-54 0 -85 -14.5t-46 -33.5t-19 -36.5t-4 -24.5q0 -38 15.5 -58.5t41.5 -31.5q27 -11 58.5 -19l73.5 -19
l59.5 -16.5t53 -23.5t38 -38t14.5 -60q0 -39 -16.5 -66t-43 -44t-60 -25t-66.5 -8h-8l-32 -44q7 3 14.5 4.5t18.5 1.5q33 0 54 -14.5t22 -45.5q0 -15 -7 -31t-19.5 -26t-30 -15.5t-36.5 -5.5q-24 0 -45 5.5t-35 12.5z" />
    <glyph glyph-name="Tcommaaccent" unicode="&#x162;" 
d="M-17 694v20h534v-20h-257v-694h-20v694h-257zM261 -50v-78q0 -26 -13.5 -42t-44.5 -19v16q24 5 31 18.5t7 32.5v72h20z" />
    <glyph glyph-name="tcommaaccent" unicode="&#x163;" horiz-adv-x="241" 
d="M110 494v-394q0 -29 6.5 -45t16.5 -24t22 -9.5t24 -1.5q15 0 27 0.5t17 2.5v-20l-17.5 -2t-31.5 -1q-35 0 -59.5 20.5t-24.5 75.5v398h-95v20h95v162h20v-162h116v-20h-116zM163 -50v-78q0 -26 -13.5 -42t-44.5 -19v16q24 5 31 18.5t7 32.5v72h20z" />
    <glyph glyph-name="Tcaron" unicode="&#x164;" 
d="M-17 694v20h534v-20h-257v-694h-20v694h-257zM149 920l103 -123l99 123h20l-113 -139h-15l-114 139h20z" />
    <glyph glyph-name="tcaron" unicode="&#x165;" horiz-adv-x="267" 
d="M283 714l-65 -144h-15l51 144h29zM110 494v-394q0 -29 6.5 -45t16.5 -24t22 -9.5t24 -1.5q15 0 27 0.5t17 2.5v-20l-17.5 -2t-31.5 -1q-35 0 -59.5 20.5t-24.5 75.5v398h-95v20h95v162h20v-162h116v-20h-116z" />
    <glyph glyph-name="Tbar" unicode="&#x166;" 
d="M-17 694v20h534v-20h-257v-210h166v-20h-166v-464h-20v464h-166v20h166v210h-257z" />
    <glyph glyph-name="tbar" unicode="&#x167;" horiz-adv-x="241" 
d="M110 494v-148h123v-20h-123v-226q0 -29 6.5 -45t16.5 -24t22 -9.5t24 -1.5q15 0 27 0.5t17 2.5v-20l-17.5 -2t-31.5 -1q-35 0 -59.5 20.5t-24.5 75.5v230h-103v20h103v148h-95v20h95v162h20v-162h116v-20h-116z" />
    <glyph glyph-name="Utilde" unicode="&#x168;" horiz-adv-x="632" 
d="M558 714h20v-448q0 -143 -67.5 -213t-194.5 -70t-194.5 70t-67.5 213v448h20v-448q0 -128 59.5 -195.5t182.5 -67.5t182.5 67.5t59.5 195.5v448zM189 805q1 15 6 29t14 25t22 18t26 7q17 0 33.5 -9t32.5 -20t31 -20t30 -9q19 0 31.5 12.5t17.5 42.5h20q-5 -37 -22.5 -56
t-46.5 -19q-19 0 -35 9t-31 20t-30 20t-31 9q-11 0 -20 -5.5t-15 -14.5t-9 -18.5t-4 -20.5h-20z" />
    <glyph glyph-name="utilde" unicode="&#x169;" 
d="M445 0h-20v127h-2q-7 -30 -22.5 -55t-39 -44t-54.5 -29.5t-69 -10.5q-40 0 -73.5 12t-58 35.5t-38 58t-13.5 79.5v341h20v-338q0 -45 13 -76.5t35.5 -52t52 -30t62.5 -9.5q46 0 81 17.5t58.5 47t35.5 68.5t12 82v291h20v-514zM118 615q1 15 6 29t14 25t22 18t26 7
q17 0 33.5 -9t32.5 -20t31 -20t30 -9q19 0 31.5 12.5t17.5 42.5h20q-5 -37 -22.5 -56t-46.5 -19q-19 0 -35 9t-31 20t-30 20t-31 9q-11 0 -20 -5.5t-15 -14.5t-9 -18.5t-4 -20.5h-20z" />
    <glyph glyph-name="Umacron" unicode="&#x16a;" horiz-adv-x="632" 
d="M558 714h20v-448q0 -143 -67.5 -213t-194.5 -70t-194.5 70t-67.5 213v448h20v-448q0 -128 59.5 -195.5t182.5 -67.5t182.5 67.5t59.5 195.5v448zM436 830h-232v20h232v-20z" />
    <glyph glyph-name="umacron" unicode="&#x16b;" 
d="M445 0h-20v127h-2q-7 -30 -22.5 -55t-39 -44t-54.5 -29.5t-69 -10.5q-40 0 -73.5 12t-58 35.5t-38 58t-13.5 79.5v341h20v-338q0 -45 13 -76.5t35.5 -52t52 -30t62.5 -9.5q46 0 81 17.5t58.5 47t35.5 68.5t12 82v291h20v-514zM366 640h-232v20h232v-20z" />
    <glyph glyph-name="Ubreve" unicode="&#x16c;" horiz-adv-x="632" 
d="M558 714h20v-448q0 -143 -67.5 -213t-194.5 -70t-194.5 70t-67.5 213v448h20v-448q0 -128 59.5 -195.5t182.5 -67.5t182.5 67.5t59.5 195.5v448zM217 904q5 -39 32.5 -63t67.5 -24q43 0 72 21t34 66h20q-6 -51 -40.5 -79t-85.5 -28q-49 0 -81.5 29.5t-38.5 77.5h20z" />
    <glyph glyph-name="ubreve" unicode="&#x16d;" 
d="M445 0h-20v127h-2q-7 -30 -22.5 -55t-39 -44t-54.5 -29.5t-69 -10.5q-40 0 -73.5 12t-58 35.5t-38 58t-13.5 79.5v341h20v-338q0 -45 13 -76.5t35.5 -52t52 -30t62.5 -9.5q46 0 81 17.5t58.5 47t35.5 68.5t12 82v291h20v-514zM148 714q5 -39 32.5 -63t67.5 -24
q43 0 72 21t34 66h20q-6 -51 -40.5 -79t-85.5 -28q-49 0 -81.5 29.5t-38.5 77.5h20z" />
    <glyph glyph-name="Uring" unicode="&#x16e;" horiz-adv-x="632" 
d="M558 714h20v-448q0 -143 -67.5 -213t-194.5 -70t-194.5 70t-67.5 213v448h20v-448q0 -128 59.5 -195.5t182.5 -67.5t182.5 67.5t59.5 195.5v448zM386 850q0 28 -20 48t-48 20t-48 -20t-20 -48t20 -48t48 -20t48 20t20 48zM406 850q0 -18 -7 -34t-19 -28t-28 -19t-34 -7
t-34 7t-28 19t-19 28t-7 34t7 34t19 28t28 19t34 7t34 -7t28 -19t19 -28t7 -34z" />
    <glyph glyph-name="uring" unicode="&#x16f;" 
d="M445 0h-20v127h-2q-7 -30 -22.5 -55t-39 -44t-54.5 -29.5t-69 -10.5q-40 0 -73.5 12t-58 35.5t-38 58t-13.5 79.5v341h20v-338q0 -45 13 -76.5t35.5 -52t52 -30t62.5 -9.5q46 0 81 17.5t58.5 47t35.5 68.5t12 82v291h20v-514zM318 670q0 28 -20 48t-48 20t-48 -20
t-20 -48t20 -48t48 -20t48 20t20 48zM338 670q0 -18 -7 -34t-19 -28t-28 -19t-34 -7t-34 7t-28 19t-19 28t-7 34t7 34t19 28t28 19t34 7t34 -7t28 -19t19 -28t7 -34z" />
    <glyph glyph-name="Uhungarumlaut" unicode="&#x170;" horiz-adv-x="632" 
d="M558 714h20v-448q0 -143 -67.5 -213t-194.5 -70t-194.5 70t-67.5 213v448h20v-448q0 -128 59.5 -195.5t182.5 -67.5t182.5 67.5t59.5 195.5v448zM548 922l-146 -144h-15l132 144h29zM398 922l-146 -144h-15l132 144h29z" />
    <glyph glyph-name="uhungarumlaut" unicode="&#x171;" 
d="M445 0h-20v127h-2q-7 -30 -22.5 -55t-39 -44t-54.5 -29.5t-69 -10.5q-40 0 -73.5 12t-58 35.5t-38 58t-13.5 79.5v341h20v-338q0 -45 13 -76.5t35.5 -52t52 -30t62.5 -9.5q46 0 81 17.5t58.5 47t35.5 68.5t12 82v291h20v-514zM476 732l-146 -144h-15l132 144h29zM326 732
l-146 -144h-15l132 144h29z" />
    <glyph glyph-name="Uogonek" unicode="&#x172;" horiz-adv-x="632" 
d="M558 714h20v-448q0 -143 -68 -213q-61 -64 -173 -69q-40 -33 -57 -55q-22 -27 -22 -52q0 -19 13.5 -32t37.5 -13q28 0 46.5 10.5t28.5 21.5l17 -12q-21 -22 -42.5 -31t-49.5 -9q-37 0 -56 18t-19 45q0 19 9 36.5t22.5 32.5t30.5 30l11 9q-121 3 -186 70q-67 70 -67 213
v448h20v-448q0 -128 59.5 -195.5t182.5 -67.5t182.5 67.5t59.5 195.5v448z" />
    <glyph glyph-name="uogonek" unicode="&#x173;" 
d="M445 0q-57 -44 -79 -71t-22 -52q0 -19 13.5 -32t37.5 -13q28 0 46.5 10.5t28.5 21.5l17 -12q-21 -22 -42.5 -31t-49.5 -9q-37 0 -56 18t-19 45q0 19 9 36.5t22.5 32.5t30.5 29.5t43 33.5v120h-2q-7 -30 -22.5 -55t-39 -44t-54.5 -29.5t-69 -10.5q-40 0 -73.5 12t-58 35.5
t-38 58t-13.5 79.5v341h20v-338q0 -45 13 -76.5t35.5 -52t52 -30t62.5 -9.5q46 0 81 17.5t58.5 47t35.5 68.5t12 82v291h20v-514z" />
    <glyph glyph-name="Wcircumflex" unicode="&#x174;" horiz-adv-x="870" 
d="M860 714h20l-207 -714h-27l-210 689h-2l-206 -689h-27l-211 714h21l202 -689h2l206 689h29l209 -689h2zM536 781l-103 123l-99 -123h-20l113 139h15l114 -139h-20z" />
    <glyph glyph-name="wcircumflex" unicode="&#x175;" horiz-adv-x="685" 
d="M673 514h20l-164 -514h-26l-160 494h-2l-161 -494h-28l-160 514h20l153 -494h2l159 494h31l158 -494h2zM443 591l-103 123l-99 -123h-20l113 139h15l114 -139h-20z" />
    <glyph glyph-name="Ycircumflex" unicode="&#x176;" horiz-adv-x="538" 
d="M544 714h24l-289 -413v-301h-20v301l-289 413h25l274 -392zM370 781l-103 123l-99 -123h-20l113 139h15l114 -139h-20z" />
    <glyph glyph-name="ycircumflex" unicode="&#x177;" horiz-adv-x="407" 
d="M398 514h21l-237 -619q-10 -26 -24 -40.5t-31 -21.5t-37.5 -8.5t-43.5 -1.5v20q25 0 44 1.5t32.5 8t24 20t19.5 36.5l37 96l-215 509h22l204 -487zM315 591l-103 123l-99 -123h-20l113 139h15l114 -139h-20z" />
    <glyph glyph-name="Zacute" unicode="&#x179;" 
d="M508 20v-20h-527v27l499 667h-471v20h491v-27l-499 -667h507zM402 922l-146 -144h-15l132 144h29z" />
    <glyph glyph-name="zacute" unicode="&#x17a;" horiz-adv-x="407" 
d="M402 20v-20h-397v25l360 469h-333v20h354v-25l-360 -469h376zM359 732l-146 -144h-15l132 144h29z" />
    <glyph glyph-name="Zdotaccent" unicode="&#x17b;" 
d="M508 20v-20h-527v27l499 667h-471v20h491v-27l-499 -667h507zM259 885v-81h-20v81h20z" />
    <glyph glyph-name="zdotaccent" unicode="&#x17c;" horiz-adv-x="407" 
d="M402 20v-20h-397v25l360 469h-333v20h354v-25l-360 -469h376zM217 695v-81h-20v81h20z" />
    <glyph glyph-name="Scommaaccent" unicode="&#x218;" horiz-adv-x="611" 
d="M531 514q-2 55 -20.5 92.5t-49 60.5t-72.5 33.5t-90 10.5q-38 0 -77.5 -7.5t-72 -26.5t-53.5 -50.5t-21 -79.5t21.5 -77t56 -47t78.5 -28l90 -21l94.5 -24.5t77.5 -32t52.5 -53.5t19.5 -89q0 -51 -22 -87t-58 -59.5t-81 -34.5t-91 -11q-61 0 -112.5 14.5t-89 45t-58 78.5
t-19.5 116h20q0 -64 19 -108.5t53.5 -72.5t82 -40.5t104.5 -12.5q42 0 83.5 9.5t74.5 30.5t53.5 54t20.5 79q0 54 -23.5 85.5t-60 50t-81 28t-85.5 19.5q-44 10 -86.5 21t-77 30.5t-55.5 51.5t-21 85t22 88.5t57 56.5t78.5 30t86.5 9q52 0 97 -11.5t78.5 -37t53.5 -67
t23 -101.5h-20zM318 -50v-78q0 -26 -13.5 -42t-44.5 -19v16q24 5 31 18.5t7 32.5v72h20z" />
    <glyph glyph-name="scommaaccent" unicode="&#x219;" horiz-adv-x="463" 
d="M390 362q0 39 -12 66t-34 44.5t-52.5 25.5t-67.5 8q-54 0 -85 -14.5t-46 -33.5t-19 -36.5t-4 -24.5q0 -38 15.5 -58.5t41.5 -31.5q27 -11 58.5 -19l73.5 -19l59.5 -16.5t53 -23.5t38 -38t14.5 -60q0 -39 -16.5 -66t-43 -44t-60 -25t-66.5 -8q-102 0 -155 45.5t-53 142.5
h20q0 -86 49 -127t139 -41q28 0 57.5 6.5t53.5 21t39.5 37.5t15.5 56q0 34 -15.5 55t-40 34.5t-56.5 21.5l-65 16q-37 9 -65 17t-50 18q-32 14 -47 39t-15 67q0 21 9 44t30 42t54 31t81 12q86 0 136 -39t50 -125h-20zM245 -50v-78q0 -26 -13.5 -42t-44.5 -19v16
q24 5 31 18.5t7 32.5v72h20z" />
    <glyph glyph-name="uni021A" unicode="&#x21a;" 
d="M-17 694v20h534v-20h-257v-694h-20v694h-257zM261 -50v-78q0 -26 -13.5 -42t-44.5 -19v16q24 5 31 18.5t7 32.5v72h20z" />
    <glyph glyph-name="uni021B" unicode="&#x21b;" horiz-adv-x="241" 
d="M110 494v-394q0 -29 6.5 -45t16.5 -24t22 -9.5t24 -1.5q15 0 27 0.5t17 2.5v-20l-17.5 -2t-31.5 -1q-35 0 -59.5 20.5t-24.5 75.5v398h-95v20h95v162h20v-162h116v-20h-116zM163 -50v-78q0 -26 -13.5 -42t-44.5 -19v16q24 5 31 18.5t7 32.5v72h20z" />
    <glyph glyph-name="caron" unicode="&#x2c7;" horiz-adv-x="130" 
d="M-36 730l103 -123l99 123h20l-113 -139h-15l-114 139h20z" />
    <glyph glyph-name="uni02C9" unicode="&#x2c9;" horiz-adv-x="130" 
d="M181 640h-232v20h232v-20z" />
    <glyph glyph-name="breve" unicode="&#x2d8;" horiz-adv-x="130" 
d="M-38 714q5 -39 32.5 -63t67.5 -24q43 0 72 21t34 66h20q-6 -51 -40.5 -79t-85.5 -28q-49 0 -81.5 29.5t-38.5 77.5h20z" />
    <glyph glyph-name="dotaccent" unicode="&#x2d9;" horiz-adv-x="130" 
d="M75 695v-81h-20v81h20z" />
    <glyph glyph-name="ring" unicode="&#x2da;" horiz-adv-x="130" 
d="M133 670q0 28 -20 48t-48 20t-48 -20t-20 -48t20 -48t48 -20t48 20t20 48zM153 670q0 -18 -7 -34t-19 -28t-28 -19t-34 -7t-34 7t-28 19t-19 28t-7 34t7 34t19 28t28 19t34 7t34 -7t28 -19t19 -28t7 -34z" />
    <glyph glyph-name="ogonek" unicode="&#x2db;" horiz-adv-x="130" 
d="M110 0q-57 -44 -79 -71t-22 -52q0 -19 13.5 -32t37.5 -13q28 0 46.5 10.5t28.5 21.5l17 -12q-21 -22 -42.5 -31t-49.5 -9q-37 0 -56 18t-19 45q0 19 9 36.5t22.5 32.5t30.5 29.5t34 26.5h29z" />
    <glyph glyph-name="hungarumlaut" unicode="&#x2dd;" horiz-adv-x="130" 
d="M266 732l-146 -144h-15l132 144h29zM116 732l-146 -144h-15l132 144h29z" />
    <glyph glyph-name="uni0394" unicode="&#x394;" horiz-adv-x="611" 
d="M303 672l-266 -654h536zM11 0l289 712h7l293 -712h-589z" />
    <glyph glyph-name="uni03A9" unicode="&#x3a9;" horiz-adv-x="722" 
d="M447 0v152q48 10 84.5 34t61.5 58t37.5 77t12.5 90q0 58 -21.5 111t-59.5 93.5t-89.5 64t-111.5 23.5t-111 -23.5t-89 -64t-59.5 -93.5t-21.5 -111q0 -46 13 -89.5t38 -79t62 -59.5t85 -31v-152h-217v19h198v117q-49 13 -86 39.5t-62 63t-37.5 81t-12.5 94.5q0 62 23 118
t63.5 98t95.5 66.5t118 24.5q64 0 119 -24.5t95 -66.5t63 -98t23 -119q0 -101 -48.5 -174.5t-147.5 -101.5v-118h197v-19h-215z" />
    <glyph glyph-name="uni03BC" unicode="&#x3bc;" horiz-adv-x="556" 
d="M472 0h-20v127h-2q-7 -30 -22.5 -55t-39 -44t-54.5 -29.5t-69 -10.5q-50 0 -93.5 21t-66.5 72h-2v-258h-20v691h19v-338q0 -45 13 -76.5t35.5 -52t52 -30t62.5 -9.5q46 0 81 17.5t58.5 47t35.5 68.5t12 82v291h20v-514z" />
    <glyph glyph-name="pi" unicode="&#x3c0;" horiz-adv-x="556" 
d="M517 9q-21 -13 -44 -13q-21 0 -32.5 8.5t-17 21.5t-6 29t-0.5 32v348h-298v-435h-18v435h-72v18h482v-18h-76v-351q0 -11 0.5 -23t3.5 -22.5t11 -17.5t23 -7q25 0 44 16v-21v0z" />
    <glyph glyph-name="fraction" unicode="&#x2044;" horiz-adv-x="167" 
d="M310 714h23l-476 -748h-23z" />
    <glyph glyph-name="afii61289" unicode="&#x2113;" 
d="M286 -14q-19 0 -37 5.5t-32.5 19t-23 35.5t-8.5 55v164l-61 -71h-2l-10 10l73 83v274q0 83 28 121.5t66 38.5q35 0 58 -29t23 -84q0 -72 -41.5 -155.5t-115.5 -171.5v-177q0 -31 8 -50.5t20.5 -31t27.5 -15.5t29 -4q22 0 45 9.5t43 30.5h2l9 -11q-23 -23 -49 -34.5
t-52 -11.5zM343 605q0 46 -19 72.5t-45 26.5q-14 0 -28 -8t-24.5 -25t-17 -44t-6.5 -66v-258q65 78 102.5 157.5t37.5 144.5z" />
    <glyph glyph-name="Omega" unicode="&#x2126;" horiz-adv-x="722" 
d="M447 0v152q48 10 84.5 34t61.5 58t37.5 77t12.5 90q0 58 -21.5 111t-59.5 93.5t-89.5 64t-111.5 23.5t-111 -23.5t-89 -64t-59.5 -93.5t-21.5 -111q0 -46 13 -89.5t38 -79t62 -59.5t85 -31v-152h-217v19h198v117q-49 13 -86 39.5t-62 63t-37.5 81t-12.5 94.5q0 62 23 118
t63.5 98t95.5 66.5t118 24.5q64 0 119 -24.5t95 -66.5t63 -98t23 -119q0 -101 -48.5 -174.5t-147.5 -101.5v-118h197v-19h-215z" />
    <glyph glyph-name="estimated" unicode="&#x212e;" horiz-adv-x="600" 
d="M157 259v-181q59 -59 145 -59q63 0 109 28.5t84 91.5l35 -21q-23 -36 -46.5 -61.5t-51 -42t-59.5 -24t-71 -7.5q-59 0 -106.5 21.5t-81.5 59t-52 87.5t-18 108t18 108.5t52 87.5t81.5 58.5t106.5 21.5q58 0 105.5 -20.5t81.5 -57t53 -87t19 -111.5h-404zM448 295v145
q-63 60 -147 60t-144 -60v-145h291z" />
    <glyph glyph-name="partialdiff" unicode="&#x2202;" horiz-adv-x="444" 
d="M385 293q-17 24 -36 44t-41 35t-47.5 23.5t-56.5 8.5q-41 0 -70.5 -17.5t-49 -45t-29 -63t-9.5 -71.5q0 -33 9.5 -69t29 -66t48.5 -49.5t67 -19.5q49 0 84 30.5t57.5 75.5t33 95t10.5 89zM408 374q0 -33 -3 -74.5t-11.5 -84.5t-23 -84t-37.5 -73t-56 -51.5t-78 -19.5
q-42 0 -74.5 21t-54 53.5t-33 71.5t-11.5 76q0 41 11.5 79t34.5 67.5t56.5 47.5t78.5 18q55 0 102.5 -29.5t77.5 -74.5q1 17 1.5 35t0.5 35q0 30 -3.5 65t-12.5 70t-23.5 67.5t-36 58t-50.5 40.5t-67 15q-37 0 -64 -12.5t-56 -33.5l-11 16q31 21 62 34t69 13q64 0 105.5 -35
t65 -87.5t32.5 -113t9 -110.5z" />
    <glyph glyph-name="Delta" unicode="&#x2206;" horiz-adv-x="611" 
d="M303 672l-266 -654h536zM11 0l289 712h7l293 -712h-589z" />
    <glyph glyph-name="product" unicode="&#x220f;" horiz-adv-x="704" 
d="M593 -214v982h-482v-982h-18v1000h518v-1000h-18z" />
    <glyph glyph-name="summation" unicode="&#x2211;" horiz-adv-x="593" 
d="M44 -214v18l341 486l-326 478v18h479v-18h-456l326 -478l-341 -486h481v-18h-504z" />
    <glyph glyph-name="minus" unicode="&#x2212;" horiz-adv-x="600" 
d="M48 243v20h504v-20h-504z" />
    <glyph glyph-name="uni2215" unicode="&#x2215;" horiz-adv-x="167" 
d="M310 714h23l-476 -748h-23z" />
    <glyph glyph-name="uni2219" unicode="&#x2219;" horiz-adv-x="278" 
d="M107 340q0 14 9 23t23 9t23 -9t9 -23t-9 -23t-23 -9t-23 9t-9 23z" />
    <glyph glyph-name="radical" unicode="&#x221a;" horiz-adv-x="444" 
d="M225 -219h-10l-188 386l-44 -21l-6 15l58 28l180 -373l211 962l18 -1z" />
    <glyph glyph-name="infinity" unicode="&#x221e;" horiz-adv-x="722" 
d="M349 240q-17 16 -38.5 34.5t-45 34.5t-48.5 27t-49 11q-22 0 -40 -8.5t-30.5 -23t-19 -33.5t-6.5 -40q0 -47 26.5 -76.5t74.5 -29.5q26 0 50 10t46 25.5t42 33.5zM650 242q0 43 -26 74t-71 31q-24 0 -48.5 -11t-48 -27.5t-45 -34.5l-38.5 -33l37 -34.5t42 -34.5t46 -26.5
t49 -10.5q50 0 76.5 29.5t26.5 77.5zM668 242q0 -55 -32 -90t-88 -35q-30 0 -55 10.5t-47.5 26.5t-43 36t-41.5 38q-22 -18 -42 -37t-41.5 -35.5t-46.5 -27t-56 -10.5q-57 0 -89 34t-32 90q0 25 8.5 47.5t24 39.5t37 26.5t47.5 9.5t52 -11t50.5 -28t46.5 -36.5l41 -35.5
l40.5 35.5t47 36t50.5 28t51 11.5q53 0 85.5 -35.5t32.5 -87.5z" />
    <glyph glyph-name="integral" unicode="&#x222b;" horiz-adv-x="537" 
d="M358 758q0 -10 -6.5 -16t-16.5 -6q-12 0 -17 6.5t-13 14.5q-1 0 -2.5 1t-2.5 1q-11 0 -18.5 -12t-12.5 -27.5t-7.5 -31.5t-3.5 -23q-3 -33 -3.5 -66t-0.5 -66v-487q0 -15 0.5 -40t-0.5 -54t-5 -58.5t-13.5 -53.5t-26 -39t-41.5 -15q-12 0 -22 7t-10 20q0 10 6 16.5
t16 6.5q7 0 12.5 -3.5t9 -8t7 -8t6.5 -3.5q11 0 19 13t12.5 33.5t7 45t3 47.5t0.5 41v25v507q0 14 -0.5 39t0.5 54t5.5 59t14 54t26 39.5t41.5 15.5q13 0 24.5 -6.5t11.5 -21.5z" />
    <glyph glyph-name="approxequal" unicode="&#x2248;" horiz-adv-x="593" 
d="M538 210q-9 -29 -25 -52.5t-34.5 -32.5t-33 -13.5t-22.5 -2.5q-35 -2 -69.5 12t-69.5 25l-29.5 10.5t-39 13t-40.5 11.5t-33 5q-17 0 -32.5 -7.5t-27.5 -19t-21 -26.5t-14 -30h-18q9 29 25 52.5t34 33.5t32.5 13.5t22.5 1.5q24 -1 48 -8.5l48 -14.5q14 -4 38.5 -13
l51 -18t52 -16t42.5 -7q18 0 33.5 7t28 18.5t21.5 26.5t14 31h18zM536 386q-9 -29 -24.5 -52.5t-34 -32.5t-33 -13.5t-22.5 -2.5q-36 -2 -70.5 12t-69.5 25q-10 3 -29 10t-40 13.5t-41 11.5t-32 5q-18 0 -33 -7t-27 -19t-20.5 -27t-13.5 -30h-18q6 19 16 37t24.5 32.5
t32.5 23t40 8.5q10 0 22 -3t14.5 -4t40 -12t75.5 -24l27.5 -10t35 -11.5t36 -9.5t29.5 -4q18 0 33.5 7t28 19t21.5 27t14 31h18z" />
    <glyph glyph-name="notequal" unicode="&#x2260;" horiz-adv-x="593" 
d="M252 140l-75 -140l-16 8l71 132h-177v18h186l89 166h-275v18h284l76 140l16 -8l-71 -132h177v-18h-187l-88 -166h275v-18h-285z" />
    <glyph glyph-name="lessequal" unicode="&#x2264;" horiz-adv-x="593" 
d="M55 -3v18h482v-18h-482zM55 260v18l482 207v-19l-461 -197l461 -195v-19z" />
    <glyph glyph-name="greaterequal" unicode="&#x2265;" horiz-adv-x="593" 
d="M55 -3v18h482v-18h-482zM55 55v19l461 195l-461 197v19l482 -207v-18z" />
    <glyph glyph-name="lozenge" unicode="&#x25ca;" horiz-adv-x="593" 
d="M296 713l-154 -357l154 -357l155 357zM300 -35h-8l-170 391l170 391h8l171 -391z" />
    <glyph glyph-name="uniF8FF" unicode="&#xf8ff;" horiz-adv-x="512" 
d="M222 117v67h56v-67h-56zM225 234l-2 17q0 55 13 81t46 59q32 31 41 47.5t9 35.5q0 36 -22.5 60.5t-53.5 24.5t-53.5 -22t-28.5 -73l-50 8q7 71 44 104t91 33q53 0 88.5 -36t35.5 -95q0 -32 -12.5 -58.5t-50.5 -61.5q-37 -33 -43 -52t-6 -72h-46zM462 50v617h-412v-617
h412zM512 718v-718h-512v718h512z" />
    </font>
</defs>
</svg>
